<?xml version='1.0' encoding='utf-8'?>
<svg xmlns="http://www.w3.org/2000/svg" xmlns:xlink="http://www.w3.org/1999/xlink" width="2048" height="784" viewBox="8704.0 0 512.0 196.0"><defs>
<g>
<g id="glyph-0-0">
<path d="M 2.484375 -4.078125 C 1.546875 -4.078125 1.078125 -3.390625 1.078125 -2.671875 C 1.078125 -1.890625 1.609375 -1.078125 2.765625 -1.078125 C 3.484375 -1.078125 4.15625 -1.28125 4.84375 -1.515625 L 3.921875 1.5 C 3.828125 1.828125 3.046875 2.84375 2.734375 2.84375 C 1.828125 2.84375 2.484375 0.890625 0.921875 0.890625 C -0.015625 0.890625 -0.5 1.59375 -0.5 2.3125 C -0.5 3.09375 0.0625 3.90625 1.21875 3.90625 C 1.9375 3.90625 2.65625 3.6875 3.328125 3.453125 L 1.3125 9.953125 C 1.46875 10.09375 1.671875 10.15625 1.875 10.15625 C 2.078125 10.15625 2.25 10.09375 2.40625 9.953125 L 5.96875 -3.390625 C 5.9375 -3.5 5.8125 -3.5625 5.703125 -3.5625 C 5.578125 -3.5625 5.484375 -3.5 5.421875 -3.390625 C 5.28125 -3.109375 4.578125 -2.125 4.28125 -2.125 C 3.390625 -2.125 4.0625 -4.078125 2.484375 -4.078125 Z M 2.484375 -4.078125 " />
</g>
<g id="glyph-0-1">
<path d="M 8.890625 1.984375 C 8.890625 2.453125 9.25 2.8125 9.703125 2.8125 C 10.15625 2.8125 10.515625 2.453125 10.515625 1.984375 C 10.515625 1.53125 10.15625 1.171875 9.703125 1.171875 C 9.25 1.171875 8.890625 1.53125 8.890625 1.984375 Z M 8.890625 -1.984375 C 8.890625 -1.53125 9.25 -1.171875 9.703125 -1.171875 C 10.15625 -1.171875 10.515625 -1.53125 10.515625 -1.984375 C 10.515625 -2.453125 10.15625 -2.8125 9.703125 -2.8125 C 9.25 -2.8125 8.890625 -2.453125 8.890625 -1.984375 Z M 3.5625 -4.25 C 1.53125 -4.25 0 -2.453125 0 -0.375 C 0 0.5625 0.84375 1.3125 1.796875 1.3125 C 2.6875 1.3125 3.390625 0.53125 3.390625 -0.375 C 3.390625 -1.25 2.671875 -1.96875 1.796875 -1.96875 C 1.6875 -1.96875 1.59375 -1.953125 1.5 -1.9375 C 1.828125 -2.96875 2.53125 -3.71875 3.5625 -3.71875 C 5.171875 -3.71875 5.9375 -1.875 5.9375 -0.046875 C 5.9375 3.46875 2.8125 5.84375 -0.171875 7.796875 C -0.234375 7.84375 -0.265625 7.90625 -0.265625 7.96875 C -0.265625 8.109375 -0.140625 8.234375 0 8.234375 C 0.0625 8.234375 0.125 8.203125 0.171875 8.140625 C 4.1875 6.390625 8.359375 3.96875 8.359375 -0.234375 C 8.359375 -2.875 6.359375 -4.25 3.5625 -4.25 Z M 3.5625 -4.25 " />
</g>
<g id="glyph-0-2">
<path d="M 0 0.921875 C 0 1.9375 0.78125 2.703125 2.109375 2.703125 C 4.296875 2.703125 6.5 0.8125 6.5 -0.921875 C 6.5 -2.015625 5.578125 -2.703125 4.328125 -2.703125 C 2.3125 -2.703125 0 -0.890625 0 0.921875 Z M 0 0.921875 " />
</g>
<g id="glyph-0-3">
<path d="M -1 0 C -1 0.5625 -0.5625 1 0 1 C 0.5625 1 1 0.5625 1 0 C 1 -0.5625 0.5625 -1 0 -1 C -0.5625 -1 -1 -0.5625 -1 0 Z M -1 0 " />
</g>
<g id="glyph-0-4">
<path d="M -0.140625 -7.46875 L 0 3.890625 C 0 4.078125 0.15625 4.21875 0.359375 4.21875 L 0.421875 4.21875 L 2.53125 3.828125 L 2.484375 7.46875 C 2.65625 7.546875 2.8125 7.609375 2.96875 7.609375 C 3.125 7.609375 3.3125 7.546875 3.46875 7.46875 L 3.328125 -3.890625 C 3.328125 -4.078125 3.171875 -4.21875 2.96875 -4.21875 L 2.90625 -4.21875 L 0.796875 -3.828125 L 0.84375 -7.46875 C 0.671875 -7.546875 0.515625 -7.609375 0.359375 -7.609375 C 0.203125 -7.609375 0.015625 -7.546875 -0.140625 -7.46875 Z M 2.609375 -2.234375 L 2.546875 1.890625 L 0.71875 2.234375 L 0.78125 -1.890625 Z M 2.609375 -2.234375 " />
</g>
<g id="glyph-0-5">
<path d="M 0 -2.375 L 0 -1.171875 C 0 -0.953125 0.171875 -0.78125 0.390625 -0.78125 C 0.4375 -0.78125 0.5 -0.78125 0.53125 -0.796875 L 1.171875 -1.015625 L 1.171875 2.171875 L 0.265625 2.484375 C 0.09375 2.546875 0 2.703125 0 2.875 L 0 4.0625 C 0 4.28125 0.171875 4.46875 0.390625 4.46875 C 0.4375 4.46875 0.5 4.46875 0.53125 4.4375 L 1.171875 4.203125 L 1.171875 7.09375 C 1.171875 7.296875 1.328125 7.46875 1.53125 7.46875 C 1.734375 7.46875 1.90625 7.296875 1.90625 7.09375 L 1.90625 3.9375 L 3.5625 3.328125 L 3.5625 6.21875 C 3.5625 6.421875 3.75 6.59375 3.9375 6.59375 C 4.140625 6.59375 4.296875 6.421875 4.296875 6.21875 L 4.296875 3.0625 L 5.21875 2.734375 C 5.375 2.671875 5.484375 2.53125 5.484375 2.375 L 5.484375 1.171875 C 5.484375 0.953125 5.296875 0.78125 5.078125 0.78125 C 5.046875 0.78125 4.984375 0.78125 4.9375 0.796875 L 4.296875 1.015625 L 4.296875 -2.171875 L 5.21875 -2.484375 C 5.375 -2.546875 5.484375 -2.703125 5.484375 -2.875 L 5.484375 -4.0625 C 5.484375 -4.28125 5.296875 -4.46875 5.078125 -4.46875 C 5.046875 -4.46875 4.984375 -4.46875 4.9375 -4.4375 L 4.296875 -4.203125 L 4.296875 -7.09375 C 4.296875 -7.296875 4.140625 -7.46875 3.9375 -7.46875 C 3.75 -7.46875 3.5625 -7.296875 3.5625 -7.09375 L 3.5625 -3.9375 L 1.90625 -3.328125 L 1.90625 -6.21875 C 1.90625 -6.421875 1.734375 -6.59375 1.53125 -6.59375 C 1.328125 -6.59375 1.171875 -6.421875 1.171875 -6.21875 L 1.171875 -3.0625 L 0.265625 -2.734375 C 0.09375 -2.671875 0 -2.53125 0 -2.375 Z M 3.5625 -1.890625 L 3.5625 1.296875 L 1.90625 1.890625 L 1.90625 -1.296875 Z M 3.5625 -1.890625 " />
</g>
<g id="glyph-0-6">
<path d="M 4.1875 10.203125 L 4.203125 9.34375 L 4.140625 9.34375 C 3.46875 9.34375 2.90625 9.03125 2.53125 8.5 C 2.609375 8.53125 2.65625 8.53125 2.734375 8.53125 C 3.5625 8.53125 4.25 7.84375 4.25 7.015625 C 4.25 6.109375 3.578125 5.359375 2.734375 5.359375 C 1.765625 5.359375 0.9375 6.09375 0.9375 7.015625 C 0.9375 8.765625 2.375 10.203125 4.109375 10.203125 Z M 6.515625 -2.328125 C 8.171875 -2.09375 9.046875 -0.734375 9.046875 0.59375 C 9.046875 1.609375 8.53125 2.65625 7.4375 3.09375 C 7.171875 0.796875 6.578125 -2.09375 6.515625 -2.328125 Z M 1.25 -0.375 C 1.25 -2.953125 2.84375 -4.953125 4.484375 -6.96875 C 4.765625 -6.015625 5.015625 -5.078125 5.234375 -4.125 C 3.609375 -3.71875 2.6875 -2.328125 2.6875 -0.921875 C 2.6875 1.09375 4.46875 2.109375 4.765625 2.109375 C 5 2.109375 5.171875 1.890625 5.171875 1.671875 C 5.171875 1.578125 5.15625 1.46875 5.0625 1.375 C 4.203125 0.875 3.78125 0.15625 3.78125 -0.515625 C 3.78125 -1.390625 4.46875 -2.21875 5.640625 -2.34375 C 6.15625 0.125 6.46875 2.265625 6.59375 3.28125 C 6.234375 3.34375 5.921875 3.359375 5.59375 3.359375 C 2.828125 3.359375 1.25 1.421875 1.25 -0.375 Z M 5.484375 -19.65625 C 5.203125 -19.65625 3.015625 -17.875 3.015625 -14.84375 C 3.015625 -11.8125 3.3125 -10.8125 3.84375 -9.109375 C 2.046875 -6.859375 0.046875 -4.65625 0.046875 -1.796875 C 0.046875 0.625 1.578125 4.21875 5.484375 4.21875 C 5.859375 4.21875 6.25 4.1875 6.671875 4.109375 C 6.71875 4.5625 6.734375 5.015625 6.734375 5.484375 C 6.734375 8.90625 4.953125 9.328125 4.203125 9.34375 L 4.1875 10.203125 C 6.0625 10.15625 7.4375 8.453125 7.546875 6.5 C 7.5625 6.171875 7.5625 5.84375 7.5625 5.515625 C 7.5625 4.984375 7.546875 4.4375 7.515625 3.90625 C 9.421875 3.265625 10.296875 1.640625 10.296875 0 C 10.296875 -2.109375 8.828125 -4.25 6.21875 -4.25 C 6.171875 -4.25 6.140625 -4.21875 6.09375 -4.21875 L 6.078125 -4.21875 C 5.796875 -5.421875 5.484375 -6.609375 5.140625 -7.796875 C 6.578125 -9.578125 7.828125 -11.421875 7.828125 -13.703125 C 7.828125 -16.21875 6 -19.65625 5.484375 -19.65625 Z M 6.359375 -17.125 C 6.53125 -16.4375 6.640625 -15.78125 6.640625 -15.15625 C 6.640625 -13.328125 5.84375 -11.734375 4.484375 -9.921875 C 4.265625 -10.640625 3.9375 -11.75 3.9375 -12.953125 C 3.9375 -14.4375 4.46875 -16.0625 6.359375 -17.125 Z M 6.359375 -17.125 " />
</g>
<g id="glyph-0-7">
<path d="M 3.3125 -3.859375 C 3.3125 -4.1875 3.546875 -4.4375 3.859375 -4.4375 C 4.1875 -4.4375 4.4375 -4.1875 4.4375 -3.859375 C 4.4375 -3.546875 4.1875 -3.3125 3.859375 -3.3125 C 3.546875 -3.3125 3.3125 -3.546875 3.3125 -3.859375 Z M 3.109375 -5.015625 C 2.34375 -5.015625 3.140625 -6.90625 1.828125 -6.90625 C 1.3125 -6.90625 0.84375 -6.4375 0.84375 -5.921875 C 0.84375 -5.78125 0.875 -5.0625 1.734375 -5.0625 C 1.8125 -5.0625 1.890625 -5.078125 1.96875 -5.078125 C 2.59375 -5.078125 2.703125 -4.78125 2.703125 -4.578125 C 2.703125 -4.328125 2.515625 -4.0625 2.234375 -4.0625 C 1.6875 -4.0625 1.5 -4.84375 0.953125 -4.84375 C 0.3125 -4.84375 0 -4.34375 0 -3.859375 C 0 -3.390625 0.3125 -2.90625 0.953125 -2.90625 C 1.5 -2.90625 1.6875 -3.671875 2.234375 -3.671875 C 2.5625 -3.671875 2.734375 -3.328125 2.734375 -3.109375 C 2.734375 -2.34375 0.84375 -3.140625 0.84375 -1.828125 C 0.84375 -1.3125 1.3125 -0.84375 1.828125 -0.84375 C 1.96875 -0.84375 2.671875 -0.875 2.671875 -1.734375 L 2.671875 -1.96875 C 2.671875 -2.59375 2.96875 -2.703125 3.171875 -2.703125 C 3.421875 -2.703125 3.671875 -2.515625 3.671875 -2.234375 C 3.671875 -1.6875 2.90625 -1.5 2.90625 -0.953125 C 2.90625 -0.3125 3.390625 0 3.859375 0 C 4.34375 0 4.84375 -0.3125 4.84375 -0.953125 C 4.84375 -1.5 4.0625 -1.6875 4.0625 -2.234375 C 4.0625 -2.5625 4.40625 -2.734375 4.625 -2.734375 C 5.375 -2.734375 4.609375 -0.84375 5.921875 -0.84375 C 6.4375 -0.84375 6.90625 -1.3125 6.90625 -1.828125 C 6.90625 -1.96875 6.875 -2.671875 6.015625 -2.671875 L 5.78125 -2.671875 C 5.15625 -2.671875 5.046875 -2.96875 5.046875 -3.171875 C 5.046875 -3.421875 5.234375 -3.671875 5.515625 -3.671875 C 6.0625 -3.671875 6.25 -2.90625 6.796875 -2.90625 C 7.4375 -2.90625 7.75 -3.390625 7.75 -3.859375 C 7.75 -4.34375 7.4375 -4.84375 6.796875 -4.84375 C 6.25 -4.84375 6.0625 -4.0625 5.515625 -4.0625 C 5.171875 -4.0625 5.015625 -4.40625 5.015625 -4.625 C 5.015625 -5.375 6.90625 -4.609375 6.90625 -5.921875 C 6.90625 -6.4375 6.4375 -6.90625 5.921875 -6.90625 C 5.78125 -6.90625 5.0625 -6.859375 5.0625 -6 C 5.0625 -5.921875 5.078125 -5.859375 5.078125 -5.78125 C 5.078125 -5.15625 4.78125 -5.046875 4.578125 -5.046875 C 4.328125 -5.046875 4.0625 -5.234375 4.0625 -5.515625 C 4.0625 -6.0625 4.84375 -6.25 4.84375 -6.796875 C 4.84375 -7.4375 4.34375 -7.75 3.859375 -7.75 C 3.390625 -7.75 2.90625 -7.4375 2.90625 -6.796875 C 2.90625 -6.25 3.671875 -6.0625 3.671875 -5.515625 C 3.671875 -5.171875 3.328125 -5.015625 3.109375 -5.015625 Z M 3.109375 -5.015625 " />
</g>
<g id="glyph-0-8">
<path d="M 0 -0.703125 C 0 -0.3125 0.3125 0 0.703125 0 C 1.078125 0 1.390625 -0.3125 1.390625 -0.703125 C 1.390625 -1.078125 1.078125 -1.390625 0.703125 -1.390625 C 0.3125 -1.390625 0 -1.078125 0 -0.703125 Z M 0 -0.703125 " />
</g>
<g id="glyph-0-9">
<path d="M 8.1875 -1.71875 C 8.53125 -0.5 8.859375 0 9.359375 0 C 9.921875 0 10.640625 -0.640625 11.71875 -1.640625 C 12.078125 -0.734375 12.828125 0 13.6875 0 C 14.9375 0 15.9375 -1.4375 15.9375 -2.828125 C 15.9375 -6.3125 10.671875 -8.71875 9.296875 -8.71875 C 9.21875 -8.71875 9.15625 -8.609375 9.15625 -8.5 C 9.15625 -8.453125 9.203125 -8.390625 9.265625 -8.359375 C 10.84375 -8.09375 12.390625 -7 13.40625 -5.578125 C 12.375 -5.078125 11.46875 -3.9375 11.46875 -2.84375 C 11.46875 -2.5625 11.515625 -2.296875 11.59375 -2.015625 C 11.578125 -1.984375 10.421875 -1.03125 10.203125 -1.03125 C 9.796875 -1.03125 9.359375 -1.859375 9.046875 -2.453125 L 9.265625 -2.625 C 9.984375 -3.234375 10.84375 -4.078125 10.84375 -4.828125 C 10.84375 -5.28125 10.453125 -5.734375 9.859375 -5.734375 C 9 -5.734375 7.953125 -4.796875 7.953125 -3.140625 C 7.953125 -2.828125 7.984375 -2.484375 8.0625 -2.125 C 7.390625 -1.609375 7.171875 -1.453125 7.046875 -1.453125 C 7.046875 -1.453125 5.8125 -2.296875 4.90625 -2.390625 C 5.4375 -3.0625 6.0625 -3.8125 6.0625 -4.1875 C 6.0625 -5.171875 4.0625 -6.53125 4.0625 -7.453125 C 4.0625 -7.75 4.703125 -9.328125 4.84375 -9.609375 L 4.984375 -9.609375 C 6.515625 -9.609375 7.390625 -8.546875 7.390625 -7.765625 C 7.390625 -7.296875 7.046875 -7.046875 6.75 -7.046875 C 6.109375 -7.046875 5.859375 -7.75 5.734375 -7.75 C 5.640625 -7.75 5.515625 -7.671875 5.515625 -7.59375 C 5.515625 -7.5625 6.296875 -5.75 7.25 -5.75 C 7.671875 -5.75 8.28125 -6.171875 8.28125 -7.09375 C 8.28125 -8.328125 7.125 -9.953125 4.984375 -9.953125 C 1.765625 -9.953125 -0.015625 -7.671875 -0.015625 -6.03125 C -0.015625 -4.953125 0.75 -4.484375 1.1875 -4.484375 C 2.03125 -4.484375 2.84375 -5.71875 2.84375 -6.96875 C 2.84375 -7.046875 2.75 -7.09375 2.671875 -7.09375 C 2.59375 -7.09375 2.484375 -7.046875 2.484375 -6.96875 C 2.484375 -6.359375 2.078125 -5.796875 1.640625 -5.796875 C 1.390625 -5.796875 0.859375 -6.078125 0.859375 -6.75 C 0.859375 -7.828125 2.21875 -9.390625 4.46875 -9.578125 C 4.140625 -9.046875 3.265625 -6.765625 3.265625 -6.359375 C 3.265625 -5.578125 5.015625 -4.296875 5.015625 -3.359375 C 5.015625 -3.140625 4.984375 -3.046875 4.421875 -2.390625 C 3.578125 -2.296875 1.9375 -0.75 1.9375 -0.203125 C 1.9375 -0.078125 2.015625 0 2.21875 0 C 2.953125 0 3.921875 -1.21875 4.609375 -2.03125 C 5.28125 -1.828125 5.359375 -0.046875 5.921875 -0.046875 C 6.234375 -0.046875 7.921875 -1.515625 8.1875 -1.71875 Z M 10.140625 -4.421875 C 10.140625 -3.828125 9.34375 -3.140625 8.890625 -2.765625 C 8.6875 -3.203125 8.609375 -3.578125 8.609375 -3.90625 C 8.609375 -4.65625 9.0625 -5.078125 9.5 -5.078125 C 9.859375 -5.078125 10.140625 -4.765625 10.140625 -4.421875 Z M 13.609375 -5.28125 C 14.296875 -4.21875 14.578125 -3.125 14.578125 -2.296875 C 14.578125 -1.359375 14.21875 -0.703125 13.6875 -0.703125 C 12.875 -0.703125 12.515625 -1.890625 12.515625 -2.84375 C 12.515625 -3.75 12.875 -4.859375 13.609375 -5.28125 Z M 13.609375 -5.28125 " />
</g>
<g id="glyph-0-10">
<path d="M 3.03125 0 C 3.484375 -0.453125 4.140625 -0.5625 4.796875 -0.5625 C 4.921875 -0.5625 5 -0.640625 5 -0.75 L 5.171875 -2.484375 L 5.171875 -2.515625 C 5.171875 -2.609375 5.09375 -2.6875 5 -2.6875 L 4.984375 -2.6875 L 3.25 -2.515625 C 3.140625 -2.484375 3.046875 -2.40625 3.046875 -2.3125 C 3.046875 -1.65625 2.953125 -1 2.484375 -0.53125 C 2.03125 -1 1.9375 -1.65625 1.9375 -2.3125 C 1.9375 -2.40625 1.859375 -2.484375 1.75 -2.515625 L 0 -2.6875 L -0.015625 -2.6875 C -0.125 -2.6875 -0.203125 -2.609375 -0.203125 -2.515625 L -0.203125 -2.484375 L -0.015625 -0.75 C -0.015625 -0.640625 0.0625 -0.5625 0.171875 -0.5625 C 0.84375 -0.5625 1.5 -0.453125 1.953125 0 C 1.5 0.453125 0.84375 0.5625 0.171875 0.5625 C 0.0625 0.5625 -0.015625 0.640625 -0.015625 0.75 L -0.203125 2.484375 L -0.203125 2.515625 C -0.203125 2.609375 -0.125 2.6875 -0.015625 2.6875 L 0 2.6875 L 1.75 2.515625 C 1.859375 2.484375 1.953125 2.40625 1.953125 2.3125 C 1.953125 1.65625 2.03125 1 2.484375 0.53125 C 2.953125 1 3.046875 1.65625 3.046875 2.3125 C 3.046875 2.40625 3.140625 2.484375 3.25 2.515625 L 4.984375 2.6875 L 5 2.6875 C 5.09375 2.6875 5.171875 2.609375 5.171875 2.515625 L 5.171875 2.484375 L 5 0.75 C 5 0.640625 4.921875 0.5625 4.796875 0.5625 C 4.140625 0.5625 3.484375 0.453125 3.03125 0 Z M 3.03125 0 " />
</g>
<g id="glyph-0-11">
<path d="M 0 0 L 0 -7.46875 L -0.3125 -7.46875 L -0.3125 0 Z M 4.46875 -10.140625 C 4.46875 -7.921875 1.9375 -6.15625 0 -4.984375 L 0 0 C 0 -4.046875 5.3125 -6.09375 5.3125 -10.140625 C 5.3125 -11.375 5.015625 -12.59375 4.515625 -13.703125 C 4.421875 -13.859375 4.265625 -13.921875 4.125 -13.921875 C 3.890625 -13.921875 3.671875 -13.765625 3.671875 -13.484375 C 3.671875 -13.28125 4.46875 -12.015625 4.46875 -10.140625 Z M 4.46875 -10.140625 " />
</g>
<g id="glyph-0-12">
<path d="M 0 0 L -0.3125 0 L -0.3125 7.46875 L 0 7.46875 Z M 2.453125 14.515625 C 2.453125 14.796875 2.671875 14.984375 2.90625 14.984375 C 3.046875 14.984375 3.203125 14.90625 3.3125 14.734375 C 3.828125 13.421875 4.125 12.03125 4.125 10.625 C 4.125 6.6875 0 3.921875 0 0 L 0 4.984375 C 1.421875 6.46875 3.28125 8.5625 3.28125 10.625 C 3.28125 12.796875 2.453125 14.328125 2.453125 14.515625 Z M 2.453125 14.515625 " />
</g>
<g id="glyph-0-13">
<path d="M 0 0 C 0 0.625 0.5 1.109375 1.109375 1.109375 C 1.734375 1.109375 2.234375 0.625 2.234375 0 C 2.234375 -0.625 1.734375 -1.109375 1.109375 -1.109375 C 0.5 -1.109375 0 -0.625 0 0 Z M 0 0 " />
</g>
<g id="glyph-0-14">
<path d="M 1.4375 2.109375 C 0.953125 2.109375 0.625 1.734375 0.625 1.296875 C 0.625 1.109375 0.671875 0.921875 0.8125 0.734375 C 1.359375 0.078125 4.625 -2.109375 5.421875 -2.109375 C 5.890625 -2.109375 6.25 -1.734375 6.25 -1.296875 C 6.25 -1.109375 6.171875 -0.921875 6.03125 -0.734375 C 5.5 -0.078125 2.234375 2.109375 1.4375 2.109375 Z M 0 1.328125 C 0 2.515625 0.890625 2.703125 1.71875 2.703125 C 5.9375 2.703125 6.859375 0.078125 6.859375 -1.328125 C 6.859375 -2.515625 5.953125 -2.703125 5.140625 -2.703125 C 0.921875 -2.703125 0 -0.078125 0 1.328125 Z M 0 1.328125 " />
</g>
<g id="glyph-0-15">
<path d="M 6.90625 0.515625 C 6.90625 2.078125 5.9375 2.234375 5.5 2.234375 C 4.375 2.234375 2.875 1.328125 2.875 -0.484375 C 2.875 -2.046875 3.8125 -2.25 4.265625 -2.25 C 5.140625 -2.25 6.90625 -1.515625 6.90625 0.515625 Z M 4.875 -2.703125 C 2.015625 -2.703125 0 -1.421875 0 0 C 0 1.421875 2.015625 2.703125 4.875 2.703125 C 7.75 2.703125 9.78125 1.421875 9.78125 0 C 9.78125 -1.421875 7.75 -2.703125 4.875 -2.703125 Z M 4.875 -2.703125 " />
</g>
<g id="glyph-0-16">
<path d="M 7.265625 3.109375 C 7.390625 3.109375 7.46875 3.03125 7.46875 2.90625 L 7.46875 0.203125 C 7.46875 0.078125 7.390625 0 7.265625 0 L 0.203125 0 C 0.078125 0 0 0.078125 0 0.203125 L 0 2.90625 C 0 3.03125 0.078125 3.109375 0.203125 3.109375 Z M 7.265625 3.109375 " />
</g>
<g id="glyph-0-17">
<path d="M -1.328125 -0.953125 C -1.328125 -0.21875 -0.734375 0.375 0 0.375 C 0.734375 0.375 1.328125 -0.21875 1.328125 -0.953125 C 1.328125 -1.6875 0.734375 -2.296875 0 -2.296875 C -0.734375 -2.296875 -1.328125 -1.6875 -1.328125 -0.953125 Z M -6.609375 0.0625 C -6.609375 0.234375 -6.421875 0.359375 -6.234375 0.359375 C -6.0625 0.359375 -5.890625 0.265625 -5.859375 0 C -5.34375 -2.953125 -2.953125 -5.21875 0 -5.21875 C 2.953125 -5.21875 5.34375 -2.953125 5.859375 0 C 5.890625 0.265625 6.0625 0.359375 6.234375 0.359375 C 6.421875 0.359375 6.609375 0.234375 6.609375 0.0625 C 6.609375 -0.640625 5.078125 -7.234375 0 -7.234375 C -5.078125 -7.234375 -6.609375 -0.640625 -6.609375 0.0625 Z M -6.609375 0.0625 " />
</g>
<g id="glyph-0-18">
<path d="M -4.625 -5.53125 C -4.125 -5.53125 -3.53125 -5.359375 -2.984375 -4.953125 L -3.09375 -4.484375 C -3.8125 -4.15625 -4.5625 -3.921875 -5.125 -3.921875 C -5.59375 -3.921875 -5.921875 -4.078125 -5.921875 -4.5 C -5.921875 -5.078125 -5.4375 -5.53125 -4.625 -5.53125 Z M 5.515625 -5.234375 C 5.515625 -6.171875 4.859375 -6.609375 4.140625 -6.609375 C 3.640625 -6.609375 3.125 -6.421875 2.765625 -6.015625 C 2.546875 -6.375 2.078125 -6.578125 1.5 -6.578125 C 1.03125 -6.578125 0.53125 -6.453125 0.015625 -6.171875 L -1.25 -5.453125 L -0.203125 -10.75 C -0.59375 -10.375 -1.109375 -10.0625 -1.546875 -10.0625 C -1.6875 -10.0625 -1.828125 -10.09375 -1.953125 -10.15625 L -2.875 -5.53125 C -3.453125 -5.890625 -3.984375 -6.0625 -4.46875 -6.0625 C -5.65625 -6.0625 -6.4375 -5.140625 -6.4375 -4.375 C -6.4375 -3.859375 -6.078125 -3.421875 -5.203125 -3.421875 C -4.703125 -3.421875 -4.046875 -3.5625 -3.203125 -3.921875 L -3.5 -2.40625 C -3.5625 -2.15625 -3.578125 -1.875 -3.578125 -1.59375 C -3.578125 -0.65625 -3.25 0.21875 -2.46875 0.21875 C -1.75 0.21875 -0.5 -0.625 -0.5 -1.984375 C -0.5 -2.625 -0.78125 -3.390625 -1.515625 -4.25 L -1.375 -4.859375 L 0.203125 -5.734375 C 0.359375 -5.8125 0.53125 -5.875 0.671875 -5.875 C 1.015625 -5.875 1.25 -5.671875 1.25 -5.359375 L 1.25 -5.21875 L 0.171875 0.15625 C 0.453125 0.015625 0.75 -0.0625 1.03125 -0.0625 C 1.3125 -0.0625 1.578125 0.015625 1.796875 0.15625 L 2.875 -5.21875 C 2.96875 -5.75 3.484375 -6.078125 3.96875 -6.078125 C 4.265625 -6.078125 4.5625 -5.953125 4.71875 -5.671875 L 4.640625 -5.671875 C 3.84375 -5.671875 3.453125 -5 3.453125 -4.375 C 3.453125 -3.890625 3.71875 -3.453125 4.21875 -3.453125 C 4.90625 -3.453125 5.515625 -4.265625 5.515625 -5.234375 Z M -1.65625 -3.546875 C -1.1875 -2.921875 -1.015625 -2.375 -1.015625 -1.9375 C -1.015625 -1.21875 -1.4375 -0.78125 -1.71875 -0.78125 C -1.9375 -0.78125 -2.015625 -1.015625 -2.015625 -1.359375 C -2.015625 -1.890625 -1.828125 -2.65625 -1.75 -3.015625 Z M -1.65625 -3.546875 " />
</g>
<g id="glyph-0-19">
<path d="M -0.125 -1.546875 C -0.125 -1.390625 -0.0625 -1.234375 0.078125 -1.0625 L 2.703125 2.09375 C 1.890625 1.734375 1 1.46875 0.34375 1.46875 C 0.078125 1.46875 -0.453125 1.5 -0.453125 2.3125 C -0.453125 3.78125 1.234375 6.375 1.5 6.375 C 1.578125 6.375 1.65625 6.3125 1.65625 6.234375 C 1.65625 6.171875 1.0625 5.484375 1.0625 4.25 C 1.0625 2.90625 1.796875 2.90625 2.109375 2.90625 C 3.390625 2.90625 4.125 3.78125 4.28125 3.78125 C 4.4375 3.78125 4.609375 3.640625 4.609375 3.46875 C 4.609375 3.40625 4.578125 3.328125 4.515625 3.265625 L 2.84375 1.296875 C 2.515625 0.890625 2.375 0.390625 2.375 -0.078125 C 2.375 -2.046875 4.84375 -2.53125 4.84375 -3.703125 C 4.84375 -3.859375 4.78125 -4.03125 4.640625 -4.203125 L 1.640625 -7.796875 C 1.578125 -7.875 1.5 -7.890625 1.421875 -7.890625 C 1.25 -7.890625 1.078125 -7.765625 1.078125 -7.59375 C 1.078125 -7.53125 1.09375 -7.453125 1.15625 -7.390625 L 1.859375 -6.546875 C 2.1875 -6.15625 2.34375 -5.65625 2.34375 -5.171875 C 2.34375 -3.203125 -0.125 -2.734375 -0.125 -1.546875 Z M -0.125 -1.546875 " />
</g>
<g id="glyph-0-20">
<path d="M 1.390625 -4.078125 C 0.453125 -4.078125 -0.015625 -3.390625 -0.015625 -2.671875 C -0.015625 -1.890625 0.515625 -1.078125 1.671875 -1.078125 C 2.390625 -1.078125 3.09375 -1.28125 3.765625 -1.515625 L 1.4375 4.984375 C 1.59375 5.125 1.796875 5.171875 1.984375 5.171875 C 2.1875 5.171875 2.375 5.125 2.53125 4.984375 L 4.984375 -3.390625 C 4.9375 -3.5 4.828125 -3.5625 4.703125 -3.5625 C 4.578125 -3.5625 4.484375 -3.5 4.421875 -3.390625 C 4.28125 -3.09375 3.53125 -2.125 3.203125 -2.125 C 2.3125 -2.125 2.96875 -4.078125 1.390625 -4.078125 Z M 1.390625 -4.078125 " />
</g>
<g id="glyph-0-21">
<path d="M 7.265625 0 C 7.390625 0 7.46875 -0.078125 7.46875 -0.203125 L 7.46875 -2.90625 C 7.46875 -3.03125 7.390625 -3.109375 7.265625 -3.109375 L 0.203125 -3.109375 C 0.078125 -3.109375 0 -3.03125 0 -2.90625 L 0 -0.203125 C 0 -0.078125 0.078125 0 0.203125 0 Z M 7.265625 0 " />
</g>
<g id="glyph-0-22">
<path d="M 11.09375 2.484375 C 11.09375 3.046875 11.546875 3.5 12.109375 3.5 C 12.671875 3.5 13.125 3.046875 13.125 2.484375 C 13.125 1.9375 12.671875 1.46875 12.109375 1.46875 C 11.546875 1.46875 11.09375 1.9375 11.09375 2.484375 Z M 11.09375 -2.484375 C 11.09375 -1.9375 11.546875 -1.46875 12.109375 -1.46875 C 12.671875 -1.46875 13.125 -1.9375 13.125 -2.484375 C 13.125 -3.046875 12.671875 -3.5 12.109375 -3.5 C 11.546875 -3.5 11.09375 -3.046875 11.09375 -2.484375 Z M 4.625 -5.234375 C 2.03125 -5.234375 0 -3.03125 0 -0.375 C 0 0.796875 1.03125 1.734375 2.234375 1.734375 C 3.34375 1.734375 4.21875 0.78125 4.21875 -0.375 C 4.21875 -1.46875 3.328125 -2.375 2.234375 -2.375 C 1.984375 -2.375 1.765625 -2.3125 1.546875 -2.21875 C 2.046875 -3.640625 3.140625 -4.71875 4.625 -4.71875 C 6.765625 -4.71875 8.03125 -2.4375 8.03125 -0.046875 C 8.03125 4.5 3.84375 7.4375 -0.171875 9.78125 C -0.234375 9.84375 -0.265625 9.90625 -0.265625 9.953125 C -0.265625 10.09375 -0.140625 10.21875 0 10.21875 C 0.0625 10.21875 0.125 10.203125 0.171875 10.140625 C 5.21875 8.015625 10.453125 5 10.453125 -0.234375 C 10.453125 -3.484375 8.046875 -5.234375 4.625 -5.234375 Z M 4.625 -5.234375 " />
</g>
<g id="glyph-0-23">
<path d="M 2.453125 17.015625 C 2.453125 17.296875 2.671875 17.46875 2.90625 17.46875 C 3.046875 17.46875 3.203125 17.390625 3.3125 17.234375 C 3.828125 16.078125 4.125 14.84375 4.125 13.59375 C 4.125 12.75 3.90625 12 3.546875 11.25 C 3.828125 10.65625 4 10.015625 4 9.359375 C 4 5.84375 0 3.53125 0 0 L -0.3125 0 L -0.3125 10.953125 L 0 10.953125 L 0 8.46875 C 1.421875 9.796875 3.28125 11.65625 3.28125 13.59375 C 3.28125 15.5 2.453125 16.8125 2.453125 17.015625 Z M 3.015625 10.296875 C 1.796875 8.34375 0 6.59375 0 4.25 C 1.359375 5.578125 3.171875 7.453125 3.171875 9.359375 C 3.171875 9.6875 3.109375 10 3.015625 10.296875 Z M 3.015625 10.296875 " />
</g>
<g id="glyph-0-24">
<path d="M 0 4.21875 C 1.28125 5.578125 2.96875 7.453125 2.96875 9.296875 C 2.96875 9.546875 2.921875 9.78125 2.875 10 C 1.6875 8.1875 0 6.515625 0 4.328125 Z M 2.453125 20.765625 C 2.453125 21.03125 2.671875 21.203125 2.90625 21.203125 C 3.046875 21.203125 3.203125 21.140625 3.3125 20.984375 C 3.828125 19.90625 4.125 18.71875 4.125 17.53125 C 4.125 16.71875 3.90625 15.984375 3.546875 15.28125 C 3.84375 14.625 4 13.90625 4 13.1875 C 4 12.390625 3.765625 11.671875 3.421875 10.984375 C 3.640625 10.4375 3.8125 9.875 3.8125 9.296875 C 3.8125 5.8125 0 3.484375 0 0 L -0.3125 0 L -0.3125 15.375 L 0 15.375 L 0 12.890625 C 1.421875 14.046875 3.28125 15.71875 3.28125 17.53125 C 3.28125 19.34375 2.453125 20.5625 2.453125 20.765625 Z M 0 8.5625 C 1.359375 9.734375 3.171875 11.390625 3.171875 13.1875 C 3.171875 13.59375 3.09375 13.96875 2.96875 14.34375 C 1.75 12.53125 0 10.890625 0 8.671875 Z M 0 8.5625 " />
</g>
<g id="glyph-0-25">
<path d="M 8.625 1.765625 C 8.625 1.609375 8.484375 1.53125 8.359375 1.53125 C 8.265625 1.53125 8.171875 1.59375 8.125 1.734375 C 7.75 3.34375 6.578125 4.734375 4.984375 4.734375 C 2.875 4.734375 2.734375 3.265625 2.734375 1.015625 L 2.734375 -1.015625 C 2.734375 -3.265625 2.875 -4.71875 4.984375 -4.71875 C 5.9375 -4.71875 6.8125 -4.28125 7.375 -3.546875 C 7.265625 -3.5625 7.171875 -3.5625 7.09375 -3.5625 C 6.203125 -3.5625 5.65625 -2.78125 5.65625 -2.03125 C 5.65625 -1.03125 6.53125 -0.53125 7.15625 -0.53125 C 7.890625 -0.53125 8.484375 -1.171875 8.484375 -1.96875 C 8.484375 -3.109375 7.296875 -5.21875 4.984375 -5.21875 C 0.359375 -5.21875 0 -1.234375 0 0 C 0 4.859375 3.8125 5.234375 4.984375 5.234375 C 7.625 5.234375 8.625 2.21875 8.625 1.765625 Z M 8.625 1.765625 " />
</g>
<g id="glyph-1-0">
<path d="M 3.578125 -4.296875 C 3.578125 -4.078125 3.84375 -3.859375 4.203125 -3.859375 C 4.578125 -3.859375 4.796875 -4.203125 4.796875 -4.578125 C 4.796875 -5.140625 4.34375 -5.8125 3.234375 -5.8125 C 2.15625 -5.8125 1.25 -4.953125 1.25 -3.890625 C 1.25 -2.8125 3.25 -2.703125 3.25 -1.546875 C 3.25 -0.9375 2.625 -0.53125 1.96875 -0.53125 C 1.640625 -0.53125 1.28125 -0.671875 1.28125 -0.96875 C 1.28125 -1.234375 1.6875 -1.296875 1.6875 -1.546875 C 1.6875 -1.90625 1.421875 -2.1875 1.0625 -2.1875 C 0.671875 -2.1875 0.4375 -1.765625 0.4375 -1.359375 C 0.4375 -0.5625 1.1875 0 2.046875 0 C 3.328125 0 4.4375 -0.890625 4.4375 -2.109375 C 4.4375 -3.453125 2.46875 -3.625 2.46875 -4.4375 C 2.46875 -4.9375 2.890625 -5.34375 3.40625 -5.34375 C 3.640625 -5.34375 3.765625 -5.140625 3.765625 -4.875 C 3.765625 -4.5625 3.578125 -4.46875 3.578125 -4.296875 Z M 3.578125 -4.296875 " />
</g>
<g id="glyph-1-1">
<path d="M 5.046875 -4.875 L 6.359375 -4.875 C 6.578125 -4.875 6.734375 -5.046875 6.734375 -5.265625 C 6.734375 -5.484375 6.578125 -5.640625 6.359375 -5.640625 L 5.265625 -5.640625 C 5.578125 -6.953125 5.734375 -8.703125 6.96875 -8.703125 L 7.109375 -8.703125 C 7.34375 -8.703125 7.546875 -8.6875 7.546875 -8.484375 C 7.546875 -7.890625 6.796875 -7.984375 6.796875 -7.390625 C 6.796875 -6.90625 7.1875 -6.53125 7.671875 -6.53125 C 8.359375 -6.53125 8.703125 -7.296875 8.703125 -8.0625 C 8.703125 -8.90625 7.875 -9.4375 6.96875 -9.4375 C 5.078125 -9.4375 3.359375 -7.546875 2.734375 -5.640625 L 1.53125 -5.640625 C 1.3125 -5.640625 1.15625 -5.484375 1.15625 -5.265625 C 1.15625 -5.046875 1.3125 -4.875 1.53125 -4.875 L 2.515625 -4.875 L 1.15625 0.5625 C 0.921875 1.546875 0.65625 2.703125 -0.296875 2.703125 L -0.421875 2.703125 C -0.65625 2.703125 -0.875 2.6875 -0.875 2.484375 C -0.875 1.890625 -0.125 2.015625 -0.125 1.421875 C -0.125 0.9375 -0.515625 0.53125 -1 0.53125 C -1.6875 0.53125 -2.03125 1.296875 -2.03125 2.078125 C -2.03125 2.90625 -1.1875 3.453125 -0.296875 3.453125 C 1.640625 3.453125 3.453125 0.34375 4.046875 -1.640625 Z M 5.046875 -4.875 " />
</g>
<g id="glyph-1-2">
<path d="M 3.203125 -0.640625 C 2.78125 -0.640625 2.609375 -1 2.609375 -1.515625 C 2.609375 -2.75 3.609375 -4.84375 4.640625 -4.84375 C 5 -4.84375 5.140625 -4.546875 5.140625 -4.1875 C 5.140625 -3.859375 4.65625 -0.640625 3.203125 -0.640625 Z M -1.0625 -2.8125 C -1.0625 -2.65625 -0.9375 -2.5625 -0.78125 -2.5625 C -0.59375 -2.5625 -0.390625 -2.671875 -0.296875 -2.90625 C 0.015625 -3.640625 0.625 -4.84375 1.28125 -4.84375 C 1.453125 -4.84375 1.5 -4.71875 1.5 -4.5625 C 1.5 -4.4375 1.453125 -4.296875 1.421875 -4.15625 L -0.625 1.8125 C -0.921875 2.6875 -2.65625 1.96875 -2.65625 2.625 C -2.65625 2.765625 -2.546875 2.90625 -2.375 2.90625 C -2.3125 2.90625 -1.375 2.8125 -0.0625 2.8125 C 1.21875 2.8125 2.21875 2.90625 2.234375 2.90625 C 2.40625 2.90625 2.484375 2.765625 2.484375 2.625 C 2.484375 2.15625 1.328125 2.484375 1.328125 1.8125 C 1.328125 1.75 1.359375 1.6875 1.375 1.65625 L 1.953125 -0.0625 C 1.984375 -0.203125 2.078125 -0.265625 2.171875 -0.265625 C 2.453125 -0.265625 2.96875 0.15625 3.9375 0.15625 C 5.015625 0.15625 7.109375 -1.1875 7.109375 -3.546875 C 7.109375 -4.84375 6.359375 -5.8125 4.984375 -5.8125 C 4.265625 -5.8125 3.5 -5.40625 2.921875 -4.78125 C 2.78125 -5.40625 2.3125 -5.8125 1.609375 -5.8125 C -0.046875 -5.8125 -1.0625 -2.84375 -1.0625 -2.8125 Z M -1.0625 -2.8125 " />
</g>
<g id="glyph-2-0">
<path d="M 2.953125 -3.171875 C 3.375 -3.296875 3.53125 -3.375 3.75 -3.5 C 4.15625 -3.78125 4.40625 -4.25 4.40625 -4.75 C 4.40625 -5.5625 3.75 -6.125 2.765625 -6.125 C 1.8125 -6.125 1.015625 -5.53125 1.015625 -4.828125 C 1.015625 -4.46875 1.234375 -4.21875 1.5625 -4.21875 C 1.859375 -4.21875 2.0625 -4.4375 2.0625 -4.71875 C 2.0625 -4.859375 2.015625 -4.96875 1.875 -5.109375 C 1.796875 -5.1875 1.765625 -5.25 1.765625 -5.3125 C 1.765625 -5.515625 2.1875 -5.734375 2.609375 -5.734375 C 3.1875 -5.734375 3.53125 -5.40625 3.53125 -4.875 C 3.53125 -4.09375 2.984375 -3.375 2.40625 -3.375 C 2.375 -3.375 2.296875 -3.375 2.203125 -3.390625 C 1.953125 -3.40625 1.953125 -3.40625 1.890625 -3.40625 C 1.703125 -3.40625 1.59375 -3.3125 1.59375 -3.15625 C 1.59375 -3.015625 1.703125 -2.9375 1.859375 -2.9375 C 1.890625 -2.9375 1.953125 -2.9375 2.03125 -2.953125 C 2.15625 -2.96875 2.28125 -2.984375 2.359375 -2.984375 C 2.765625 -2.984375 3.046875 -2.625 3.046875 -2.078125 C 3.046875 -1.65625 2.953125 -1.265625 2.765625 -0.9375 C 2.5 -0.46875 2.09375 -0.234375 1.53125 -0.234375 C 1.046875 -0.234375 0.625 -0.484375 0.625 -0.75 C 0.625 -0.859375 0.65625 -0.890625 0.796875 -0.953125 C 1.046875 -1.0625 1.15625 -1.21875 1.15625 -1.453125 C 1.15625 -1.765625 0.90625 -2 0.59375 -2 C 0.21875 -2 -0.015625 -1.703125 -0.015625 -1.25 C -0.015625 -0.40625 0.625 0.125 1.671875 0.125 C 2.984375 0.125 3.984375 -0.75 3.984375 -1.921875 C 3.984375 -2.234375 3.890625 -2.5 3.703125 -2.71875 C 3.515625 -2.9375 3.34375 -3.046875 2.953125 -3.171875 Z M 2.953125 -3.171875 " />
</g>
<g id="glyph-2-1">
<path d="M 0.96875 -3.328125 C 0.703125 -3.171875 0.625 -3.0625 0.625 -2.890625 C 0.625 -2.71875 0.765625 -2.609375 0.9375 -2.609375 C 1.171875 -2.609375 1.296875 -2.765625 1.328125 -3.09375 C 1.59375 -3.3125 1.875 -3.40625 2.234375 -3.40625 C 2.875 -3.40625 3.234375 -3 3.234375 -2.28125 C 3.234375 -1.15625 2.5 -0.21875 1.59375 -0.21875 C 1.09375 -0.21875 0.671875 -0.46875 0.671875 -0.75 C 0.671875 -0.8125 0.671875 -0.828125 0.71875 -0.859375 C 0.953125 -0.953125 0.953125 -0.953125 1.015625 -1 C 1.15625 -1.109375 1.234375 -1.265625 1.234375 -1.4375 C 1.234375 -1.71875 1.015625 -1.9375 0.703125 -1.9375 C 0.328125 -1.9375 0.03125 -1.609375 0.03125 -1.1875 C 0.03125 -0.421875 0.703125 0.125 1.625 0.125 C 3.03125 0.125 4.171875 -0.984375 4.171875 -2.390625 C 4.171875 -3.265625 3.5 -3.875 2.5625 -3.875 C 2.1875 -3.875 1.875 -3.796875 1.46875 -3.59375 L 1.953125 -5.234375 C 2.40625 -5.140625 2.78125 -5.09375 3.09375 -5.09375 C 3.65625 -5.09375 4.171875 -5.28125 4.46875 -5.59375 C 4.609375 -5.765625 4.703125 -5.90625 4.703125 -6.015625 C 4.703125 -6.078125 4.671875 -6.125 4.640625 -6.125 C 4.609375 -6.125 4.59375 -6.125 4.546875 -6.09375 C 4.25 -5.953125 3.890625 -5.875 3.546875 -5.875 C 3.03125 -5.875 2.40625 -5.96875 1.765625 -6.125 Z M 0.96875 -3.328125 " />
</g>
<g id="glyph-2-2">
<path d="M 1.375 -2.921875 C 1.515625 -3.6875 1.703125 -4.15625 2.03125 -4.75 C 2.421875 -5.4375 2.890625 -5.78125 3.40625 -5.78125 C 3.6875 -5.78125 3.84375 -5.671875 3.84375 -5.515625 C 3.84375 -5.453125 3.828125 -5.40625 3.765625 -5.296875 C 3.6875 -5.15625 3.65625 -5.046875 3.65625 -4.921875 C 3.65625 -4.640625 3.859375 -4.453125 4.15625 -4.453125 C 4.515625 -4.453125 4.765625 -4.703125 4.765625 -5.09375 C 4.765625 -5.6875 4.203125 -6.125 3.421875 -6.125 C 2.609375 -6.125 1.875 -5.6875 1.28125 -4.859375 C 0.671875 -4 0.3125 -2.890625 0.3125 -1.921875 C 0.3125 -0.640625 0.953125 0.125 2.015625 0.125 C 2.65625 0.125 3.25 -0.125 3.65625 -0.59375 C 4.046875 -1.03125 4.28125 -1.65625 4.28125 -2.234375 C 4.28125 -3.109375 3.6875 -3.734375 2.8125 -3.734375 C 2.203125 -3.734375 1.734375 -3.46875 1.375 -2.921875 Z M 2.53125 -3.234375 C 3.078125 -3.234375 3.375 -2.859375 3.375 -2.171875 C 3.375 -1.078125 2.78125 -0.21875 2.015625 -0.21875 C 1.453125 -0.21875 1.125 -0.640625 1.125 -1.328125 C 1.125 -2.421875 1.71875 -3.234375 2.53125 -3.234375 Z M 2.53125 -3.234375 " />
</g>
<g id="glyph-3-0">
<path d="M 0 0.5625 C 0 1.359375 0.609375 1.953125 1.609375 1.953125 C 3.125 1.953125 4.578125 0.671875 4.578125 -0.5625 C 4.578125 -1.390625 3.875 -1.953125 2.9375 -1.953125 C 1.53125 -1.953125 0 -0.734375 0 0.5625 Z M 0 0.5625 " />
</g>
<g id="glyph-3-1">
<path d="M -0.703125 0 C -0.703125 0.390625 -0.390625 0.703125 0 0.703125 C 0.390625 0.703125 0.703125 0.390625 0.703125 0 C 0.703125 -0.390625 0.390625 -0.703125 0 -0.703125 C -0.390625 -0.703125 -0.703125 -0.390625 -0.703125 0 Z M -0.703125 0 " />
</g>
<g id="glyph-4-0">
<path d="M 1.984375 0 C 2.265625 -0.28125 2.640625 -0.328125 3.03125 -0.328125 C 3.15625 -0.328125 3.234375 -0.40625 3.234375 -0.53125 L 3.34375 -1.5625 L 3.34375 -1.578125 C 3.34375 -1.6875 3.25 -1.765625 3.15625 -1.765625 L 3.140625 -1.765625 L 2.09375 -1.671875 C 1.984375 -1.65625 1.890625 -1.5625 1.890625 -1.46875 C 1.890625 -1.078125 1.84375 -0.6875 1.5625 -0.40625 C 1.296875 -0.6875 1.234375 -1.078125 1.234375 -1.46875 C 1.234375 -1.5625 1.15625 -1.65625 1.046875 -1.671875 L 0 -1.765625 L -0.015625 -1.765625 C -0.109375 -1.765625 -0.203125 -1.6875 -0.203125 -1.578125 L -0.203125 -1.5625 L -0.09375 -0.53125 C -0.09375 -0.40625 -0.015625 -0.328125 0.09375 -0.328125 C 0.484375 -0.328125 0.875 -0.28125 1.15625 0 C 0.875 0.28125 0.484375 0.328125 0.09375 0.328125 C -0.015625 0.328125 -0.09375 0.40625 -0.09375 0.53125 L -0.203125 1.5625 L -0.203125 1.578125 C -0.203125 1.6875 -0.109375 1.765625 -0.015625 1.765625 L 0 1.765625 L 1.046875 1.671875 C 1.15625 1.65625 1.234375 1.5625 1.234375 1.46875 C 1.234375 1.078125 1.296875 0.6875 1.5625 0.40625 C 1.84375 0.6875 1.890625 1.078125 1.890625 1.46875 C 1.890625 1.5625 1.984375 1.65625 2.09375 1.671875 L 3.140625 1.765625 L 3.15625 1.765625 C 3.25 1.765625 3.34375 1.6875 3.34375 1.578125 L 3.34375 1.5625 L 3.234375 0.53125 C 3.234375 0.40625 3.15625 0.328125 3.03125 0.328125 C 2.640625 0.328125 2.265625 0.28125 1.984375 0 Z M 1.984375 0 " />
</g>
<g id="glyph-4-1">
<path d="M 0 -1.40625 L 0 -0.828125 C 0 -0.609375 0.1875 -0.421875 0.40625 -0.421875 C 0.453125 -0.421875 0.5 -0.4375 0.546875 -0.46875 L 0.671875 -0.515625 L 0.671875 1.34375 L 0.25 1.515625 C 0.09375 1.578125 0 1.71875 0 1.875 L 0 2.453125 C 0 2.6875 0.1875 2.859375 0.40625 2.859375 C 0.453125 2.859375 0.5 2.859375 0.546875 2.828125 L 0.671875 2.78125 L 0.671875 4.40625 C 0.671875 4.5625 0.796875 4.703125 0.96875 4.703125 C 1.125 4.703125 1.265625 4.5625 1.265625 4.40625 L 1.265625 2.546875 L 2.1875 2.1875 L 2.1875 3.796875 C 2.1875 3.96875 2.328125 4.109375 2.484375 4.109375 C 2.640625 4.109375 2.765625 3.96875 2.765625 3.796875 L 2.765625 1.9375 L 3.203125 1.78125 C 3.34375 1.71875 3.453125 1.5625 3.453125 1.40625 L 3.453125 0.828125 C 3.453125 0.609375 3.265625 0.421875 3.046875 0.421875 C 3 0.421875 2.953125 0.4375 2.890625 0.46875 L 2.765625 0.515625 L 2.765625 -1.34375 L 3.203125 -1.515625 C 3.34375 -1.578125 3.453125 -1.71875 3.453125 -1.875 L 3.453125 -2.453125 C 3.453125 -2.6875 3.265625 -2.859375 3.046875 -2.859375 C 3 -2.859375 2.953125 -2.859375 2.890625 -2.828125 L 2.765625 -2.78125 L 2.765625 -4.40625 C 2.765625 -4.5625 2.640625 -4.703125 2.484375 -4.703125 C 2.328125 -4.703125 2.1875 -4.5625 2.1875 -4.40625 L 2.1875 -2.546875 L 1.265625 -2.1875 L 1.265625 -3.796875 C 1.265625 -3.96875 1.125 -4.109375 0.96875 -4.109375 C 0.796875 -4.109375 0.671875 -3.96875 0.671875 -3.796875 L 0.671875 -1.9375 L 0.25 -1.78125 C 0.09375 -1.71875 0 -1.5625 0 -1.40625 Z M 2.1875 -1.109375 L 2.1875 0.734375 L 1.265625 1.109375 L 1.265625 -0.734375 Z M 2.1875 -1.109375 " />
</g>
<g id="glyph-5-0">
<path d="M -1.828125 10.125 C -1.828125 17.125 -4.625 25.1875 -4.625 32.828125 C -4.625 42.234375 0 46.0625 0 46.0625 C 0.15625 46.0625 0.390625 45.90625 0.390625 45.65625 C 0.390625 45.578125 -2.953125 42.390625 -2.953125 35.375 C -2.953125 28.53125 -0.234375 20.484375 -0.234375 12.984375 C -0.234375 8.359375 -1.28125 3.90625 -4.546875 0 C -1.28125 -3.90625 -0.234375 -8.359375 -0.234375 -12.984375 C -0.234375 -20.484375 -2.953125 -28.53125 -2.953125 -35.375 C -2.953125 -42.875 0.390625 -45.109375 0.390625 -45.65625 C 0.390625 -45.90625 0.15625 -46.0625 0 -46.0625 C -0.15625 -46.0625 -4.625 -42 -4.625 -32.828125 C -4.625 -25.1875 -1.828125 -17.125 -1.828125 -10.125 C -1.828125 -2.78125 -5.09375 -0.484375 -5.09375 0 C -5.09375 0.078125 -1.828125 3.109375 -1.828125 10.125 Z M -1.828125 10.125 " />
</g>
</g>
</defs>
<path fill="none" stroke-width="0.1" stroke-linecap="round" stroke-linejoin="miter" stroke="#ffffff" stroke-opacity="1" stroke-miterlimit="10" d="M 1.757347 -13.423588 L 10734.53772 -13.423588 " transform="matrix(4.98132, 0, 0, -4.98132, 0, 0)" />
<path fill="none" stroke-width="0.1" stroke-linecap="round" stroke-linejoin="miter" stroke="#ffffff" stroke-opacity="1" stroke-miterlimit="10" d="M 1.757347 -12.422975 L 10734.53772 -12.422975 " transform="matrix(4.98132, 0, 0, -4.98132, 0, 0)" />
<path fill="none" stroke-width="0.1" stroke-linecap="round" stroke-linejoin="miter" stroke="#ffffff" stroke-opacity="1" stroke-miterlimit="10" d="M 1.757347 -11.423146 L 10734.53772 -11.423146 " transform="matrix(4.98132, 0, 0, -4.98132, 0, 0)" />
<path fill="none" stroke-width="0.1" stroke-linecap="round" stroke-linejoin="miter" stroke="#ffffff" stroke-opacity="1" stroke-miterlimit="10" d="M 1.757347 -10.423316 L 10734.53772 -10.423316 " transform="matrix(4.98132, 0, 0, -4.98132, 0, 0)" />
<path fill="none" stroke-width="0.1" stroke-linecap="round" stroke-linejoin="miter" stroke="#ffffff" stroke-opacity="1" stroke-miterlimit="10" d="M 1.757347 -9.423487 L 10734.53772 -9.423487 " transform="matrix(4.98132, 0, 0, -4.98132, 0, 0)" />
<path fill-rule="nonzero" fill="#ffffff" fill-opacity="1" d="M 9169.480469 114.140625 C 9169.753906 114.140625 9169.976562 113.914062 9169.976562 113.640625 C 9169.976562 113.367188 9169.753906 113.140625 9169.480469 113.140625 L 9160.730469 113.140625 C 9160.457031 113.140625 9160.230469 113.367188 9160.230469 113.640625 C 9160.230469 113.914062 9160.457031 114.140625 9160.730469 114.140625 Z M 9169.480469 114.140625 " />
<path fill-rule="nonzero" fill="#ffffff" fill-opacity="1" d="M 9151.027344 114.140625 C 9151.300781 114.140625 9151.523438 113.914062 9151.523438 113.640625 C 9151.523438 113.367188 9151.300781 113.140625 9151.027344 113.140625 L 9142.277344 113.140625 C 9142.003906 113.140625 9141.777344 113.367188 9141.777344 113.640625 C 9141.777344 113.914062 9142.003906 114.140625 9142.277344 114.140625 Z M 9151.027344 114.140625 " />
<path fill-rule="nonzero" fill="#ffffff" fill-opacity="1" d="M 9132.574219 114.140625 C 9132.847656 114.140625 9133.070312 113.914062 9133.070312 113.640625 C 9133.070312 113.367188 9132.847656 113.140625 9132.574219 113.140625 L 9117.652344 113.140625 C 9117.378906 113.140625 9117.152344 113.367188 9117.152344 113.640625 C 9117.152344 113.914062 9117.378906 114.140625 9117.652344 114.140625 Z M 9132.574219 114.140625 " />
<path fill-rule="nonzero" fill="#ffffff" fill-opacity="1" d="M 9114.121094 114.140625 C 9114.394531 114.140625 9114.617188 113.914062 9114.617188 113.640625 C 9114.617188 113.367188 9114.394531 113.140625 9114.121094 113.140625 L 9099.199219 113.140625 C 9098.925781 113.140625 9098.699219 113.367188 9098.699219 113.640625 C 9098.699219 113.914062 9098.925781 114.140625 9099.199219 114.140625 Z M 9114.121094 114.140625 " />
<path fill-rule="nonzero" fill="#ffffff" fill-opacity="1" d="M 9095.671875 114.140625 C 9095.945312 114.140625 9096.167969 113.914062 9096.167969 113.640625 C 9096.167969 113.367188 9095.945312 113.140625 9095.671875 113.140625 L 9080.75 113.140625 C 9080.476562 113.140625 9080.25 113.367188 9080.25 113.640625 C 9080.25 113.914062 9080.476562 114.140625 9080.75 114.140625 Z M 9095.671875 114.140625 " />
<path fill-rule="nonzero" fill="#ffffff" fill-opacity="1" d="M 9077.21875 114.140625 C 9077.492188 114.140625 9077.714844 113.914062 9077.714844 113.640625 C 9077.714844 113.367188 9077.492188 113.140625 9077.21875 113.140625 L 9062.296875 113.140625 C 9062.023438 113.140625 9061.796875 113.367188 9061.796875 113.640625 C 9061.796875 113.914062 9062.023438 114.140625 9062.296875 114.140625 Z M 9077.21875 114.140625 " />
<path fill-rule="nonzero" fill="#ffffff" fill-opacity="1" d="M 9058.765625 114.140625 C 9059.039062 114.140625 9059.261719 113.914062 9059.261719 113.640625 C 9059.261719 113.367188 9059.039062 113.140625 9058.765625 113.140625 L 9043.84375 113.140625 C 9043.570312 113.140625 9043.34375 113.367188 9043.34375 113.640625 C 9043.34375 113.914062 9043.570312 114.140625 9043.84375 114.140625 Z M 9058.765625 114.140625 " />
<path fill-rule="nonzero" fill="#ffffff" fill-opacity="1" d="M 9040.316406 114.140625 C 9040.589844 114.140625 9040.8125 113.914062 9040.8125 113.640625 C 9040.8125 113.367188 9040.589844 113.140625 9040.316406 113.140625 L 9031.566406 113.140625 C 9031.292969 113.140625 9031.066406 113.367188 9031.066406 113.640625 C 9031.066406 113.914062 9031.292969 114.140625 9031.566406 114.140625 Z M 9040.316406 114.140625 " />
<path fill-rule="nonzero" fill="#ffffff" fill-opacity="1" d="M 8770.777344 144.027344 C 8771.050781 144.027344 8771.273438 143.800781 8771.273438 143.527344 C 8771.273438 143.253906 8771.050781 143.027344 8770.777344 143.027344 L 8762.027344 143.027344 C 8761.753906 143.027344 8761.527344 143.253906 8761.527344 143.527344 C 8761.527344 143.800781 8761.753906 144.027344 8762.027344 144.027344 Z M 8770.777344 144.027344 " />
<path fill="none" stroke-width="0.1" stroke-linecap="round" stroke-linejoin="miter" stroke="#ffffff" stroke-opacity="1" stroke-miterlimit="10" d="M 1.757347 -27.813285 L 10734.53772 -27.813285 " transform="matrix(4.98132, 0, 0, -4.98132, 0, 0)" />
<path fill="none" stroke-width="0.1" stroke-linecap="round" stroke-linejoin="miter" stroke="#ffffff" stroke-opacity="1" stroke-miterlimit="10" d="M 1.757347 -26.813456 L 10734.53772 -26.813456 " transform="matrix(4.98132, 0, 0, -4.98132, 0, 0)" />
<path fill="none" stroke-width="0.1" stroke-linecap="round" stroke-linejoin="miter" stroke="#ffffff" stroke-opacity="1" stroke-miterlimit="10" d="M 1.757347 -25.813627 L 10734.53772 -25.813627 " transform="matrix(4.98132, 0, 0, -4.98132, 0, 0)" />
<path fill="none" stroke-width="0.1" stroke-linecap="round" stroke-linejoin="miter" stroke="#ffffff" stroke-opacity="1" stroke-miterlimit="10" d="M 1.757347 -24.813798 L 10734.53772 -24.813798 " transform="matrix(4.98132, 0, 0, -4.98132, 0, 0)" />
<path fill="none" stroke-width="0.1" stroke-linecap="round" stroke-linejoin="miter" stroke="#ffffff" stroke-opacity="1" stroke-miterlimit="10" d="M 1.757347 -23.813185 L 10734.53772 -23.813185 " transform="matrix(4.98132, 0, 0, -4.98132, 0, 0)" />
<path fill-rule="nonzero" fill="#ffffff" fill-opacity="1" d="M 8881.84375 72.347656 C 8882.117188 72.347656 8882.339844 72.121094 8882.339844 71.847656 C 8882.339844 71.574219 8882.117188 71.347656 8881.84375 71.347656 L 8873.09375 71.347656 C 8872.820312 71.347656 8872.59375 71.574219 8872.59375 71.847656 C 8872.59375 72.121094 8872.820312 72.347656 8873.09375 72.347656 Z M 8881.84375 72.347656 " />
<path fill-rule="nonzero" fill="#ffffff" fill-opacity="1" d="M 8881.84375 77.328125 C 8882.117188 77.328125 8882.339844 77.101562 8882.339844 76.828125 C 8882.339844 76.554688 8882.117188 76.328125 8881.84375 76.328125 L 8873.09375 76.328125 C 8872.820312 76.328125 8872.59375 76.554688 8872.59375 76.828125 C 8872.59375 77.101562 8872.820312 77.328125 8873.09375 77.328125 Z M 8881.84375 77.328125 " />
<path fill-rule="nonzero" fill="#ffffff" fill-opacity="1" d="M 8771.230469 72.347656 C 8771.503906 72.347656 8771.726562 72.121094 8771.726562 71.847656 C 8771.726562 71.574219 8771.503906 71.347656 8771.230469 71.347656 L 8761.933594 71.347656 C 8761.660156 71.347656 8761.433594 71.574219 8761.433594 71.847656 C 8761.433594 72.121094 8761.660156 72.347656 8761.933594 72.347656 Z M 8771.230469 72.347656 " />
<path fill-rule="nonzero" fill="#ffffff" fill-opacity="1" d="M 8771.230469 77.328125 C 8771.503906 77.328125 8771.726562 77.101562 8771.726562 76.828125 C 8771.726562 76.554688 8771.503906 76.328125 8771.230469 76.328125 L 8761.933594 76.328125 C 8761.660156 76.328125 8761.433594 76.554688 8761.433594 76.828125 C 8761.433594 77.101562 8761.660156 77.328125 8761.933594 77.328125 Z M 8771.230469 77.328125 " />
<path fill-rule="nonzero" fill="#ffffff" fill-opacity="1" d="M 8771.230469 82.308594 C 8771.507812 82.308594 8771.730469 82.082031 8771.730469 81.808594 C 8771.730469 81.535156 8771.507812 81.308594 8771.230469 81.308594 L 8762.679688 81.308594 C 8762.40625 81.308594 8762.179688 81.535156 8762.179688 81.808594 C 8762.179688 82.082031 8762.40625 82.308594 8762.679688 82.308594 Z M 8771.230469 82.308594 " />
<path fill-rule="nonzero" fill="#ffffff" fill-opacity="1" d="M 9180.097656 118.621094 L 9180.097656 67.113281 L 9181.042969 67.113281 L 9181.042969 118.621094 Z M 9180.097656 118.621094 " />
<path fill-rule="nonzero" fill="#ffffff" fill-opacity="1" d="M 9180.097656 138.546875 L 9180.097656 118.371094 L 9181.042969 118.371094 L 9181.042969 138.546875 Z M 9180.097656 138.546875 " />
<path fill-rule="nonzero" fill="#ffffff" fill-opacity="1" d="M 9180.097656 67.113281 L 9180.097656 46.9375 L 9181.042969 46.9375 L 9181.042969 67.113281 Z M 9180.097656 67.113281 " />
<path fill-rule="nonzero" fill="#ffffff" fill-opacity="1" d="M 9021.832031 118.621094 L 9021.832031 67.113281 L 9022.777344 67.113281 L 9022.777344 118.621094 Z M 9021.832031 118.621094 " />
<path fill-rule="nonzero" fill="#ffffff" fill-opacity="1" d="M 9021.832031 138.546875 L 9021.832031 118.371094 L 9022.777344 118.371094 L 9022.777344 138.546875 Z M 9021.832031 138.546875 " />
<path fill-rule="nonzero" fill="#ffffff" fill-opacity="1" d="M 9021.832031 67.113281 L 9021.832031 46.9375 L 9022.777344 46.9375 L 9022.777344 67.113281 Z M 9021.832031 67.113281 " />
<path fill-rule="nonzero" fill="#ffffff" fill-opacity="1" d="M 8868.789062 118.621094 L 8868.789062 67.113281 L 8869.734375 67.113281 L 8869.734375 118.621094 Z M 8868.789062 118.621094 " />
<path fill-rule="nonzero" fill="#ffffff" fill-opacity="1" d="M 8868.789062 138.546875 L 8868.789062 118.371094 L 8869.734375 118.371094 L 8869.734375 138.546875 Z M 8868.789062 138.546875 " />
<path fill-rule="nonzero" fill="#ffffff" fill-opacity="1" d="M 8868.789062 67.113281 L 8868.789062 46.9375 L 8869.734375 46.9375 L 8869.734375 67.113281 Z M 8868.789062 67.113281 " />
<g fill="#ffffff" fill-opacity="1">
<use xlink:href="#glyph-0-2" x="8678.324219" y="116.132812" />
</g>
<g fill="#ffffff" fill-opacity="1">
<use xlink:href="#glyph-0-2" x="8689.550781" y="121.113281" />
</g>
<g fill="#ffffff" fill-opacity="1">
<use xlink:href="#glyph-0-2" x="8703.269531" y="116.132812" />
</g>
<path fill-rule="nonzero" fill="#ffffff" fill-opacity="1" d="M 8703.71875 137.652344 C 8703.828125 137.652344 8703.917969 137.5625 8703.917969 137.453125 L 8703.917969 117.261719 C 8703.917969 117.152344 8703.828125 117.0625 8703.71875 117.0625 L 8703.46875 117.0625 C 8703.359375 117.0625 8703.269531 117.152344 8703.269531 117.261719 L 8703.269531 137.453125 C 8703.269531 137.5625 8703.359375 137.652344 8703.46875 137.652344 Z M 8703.71875 137.652344 " />
<g fill="#ffffff" fill-opacity="1">
<use xlink:href="#glyph-0-2" x="8714.5" y="128.585938" />
</g>
<path fill-rule="nonzero" fill="#ffffff" fill-opacity="1" d="M 8714.949219 143.480469 C 8715.058594 143.480469 8715.148438 143.390625 8715.148438 143.28125 L 8715.148438 129.710938 C 8715.148438 129.601562 8715.058594 129.511719 8714.949219 129.511719 L 8714.699219 129.511719 C 8714.589844 129.511719 8714.5 129.601562 8714.5 129.710938 L 8714.5 143.28125 C 8714.5 143.390625 8714.589844 143.480469 8714.699219 143.480469 Z M 8714.949219 143.480469 " />
<g fill="#ffffff" fill-opacity="1">
<use xlink:href="#glyph-0-2" x="8728.21875" y="116.132812" />
</g>
<path fill-rule="nonzero" fill="#ffffff" fill-opacity="1" d="M 8728.667969 141.414062 C 8728.777344 141.414062 8728.867188 141.324219 8728.867188 141.214844 L 8728.867188 117.261719 C 8728.867188 117.152344 8728.777344 117.0625 8728.667969 117.0625 L 8728.417969 117.0625 C 8728.308594 117.0625 8728.21875 117.152344 8728.21875 117.261719 L 8728.21875 141.214844 C 8728.21875 141.324219 8728.308594 141.414062 8728.417969 141.414062 Z M 8728.667969 141.414062 " />
<g fill="#ffffff" fill-opacity="1">
<use xlink:href="#glyph-0-2" x="8739.449219" y="121.113281" />
</g>
<path fill-rule="nonzero" fill="#ffffff" fill-opacity="1" d="M 8739.898438 139.71875 C 8740.007812 139.71875 8740.097656 139.628906 8740.097656 139.519531 L 8740.097656 122.238281 C 8740.097656 122.128906 8740.007812 122.039062 8739.898438 122.039062 L 8739.648438 122.039062 C 8739.539062 122.039062 8739.449219 122.128906 8739.449219 122.238281 L 8739.449219 139.519531 C 8739.449219 139.628906 8739.539062 139.71875 8739.648438 139.71875 Z M 8739.898438 139.71875 " />
<g fill="#ffffff" fill-opacity="1">
<use xlink:href="#glyph-0-2" x="8753.167969" y="116.132812" />
</g>
<path fill-rule="nonzero" fill="#ffffff" fill-opacity="1" d="M 8753.617188 137.652344 C 8753.726562 137.652344 8753.816406 137.5625 8753.816406 137.453125 L 8753.816406 117.261719 C 8753.816406 117.152344 8753.726562 117.0625 8753.617188 117.0625 L 8753.367188 117.0625 C 8753.257812 117.0625 8753.167969 117.152344 8753.167969 117.261719 L 8753.167969 137.453125 C 8753.167969 137.5625 8753.257812 137.652344 8753.367188 137.652344 Z M 8753.617188 137.652344 " />
<g fill="#ffffff" fill-opacity="1">
<use xlink:href="#glyph-0-14" x="8763.152344" y="64.375" />
</g>
<g fill="#ffffff" fill-opacity="1">
<use xlink:href="#glyph-0-14" x="8763.152344" y="71.847656" />
</g>
<g fill="#ffffff" fill-opacity="1">
<use xlink:href="#glyph-0-14" x="8763.152344" y="81.808594" />
</g>
<g fill="#ffffff" fill-opacity="1">
<use xlink:href="#glyph-1-1" x="8763.4375" y="96.882812" />
</g>
<g fill="#ffffff" fill-opacity="1">
<use xlink:href="#glyph-0-2" x="8763.152344" y="146.019531" />
</g>
<path fill-rule="nonzero" fill="#ffffff" fill-opacity="1" d="M 8769.8125 80.519531 C 8769.921875 80.519531 8770.011719 80.429688 8770.011719 80.320312 L 8770.011719 47.140625 C 8770.011719 47.03125 8769.921875 46.941406 8769.8125 46.941406 L 8769.5625 46.941406 C 8769.453125 46.941406 8769.363281 47.03125 8769.363281 47.140625 L 8769.363281 80.320312 C 8769.363281 80.429688 8769.453125 80.519531 8769.5625 80.519531 Z M 8769.8125 80.519531 " />
<g fill="#ffffff" fill-opacity="1">
<use xlink:href="#glyph-0-10" x="8756.226562" y="64.375" />
</g>
<g fill="#ffffff" fill-opacity="1">
<use xlink:href="#glyph-0-10" x="8756.226562" y="81.808594" />
</g>
<path fill-rule="nonzero" fill="#ffffff" fill-opacity="1" d="M 8769.449219 145.09375 C 8769.558594 145.09375 8769.648438 145.003906 8769.648438 144.894531 L 8769.648438 113.84375 C 8769.648438 113.730469 8769.558594 113.644531 8769.449219 113.644531 L 8769.199219 113.644531 C 8769.089844 113.644531 8769 113.730469 8769 113.84375 L 8769 144.894531 C 8769 145.003906 8769.089844 145.09375 8769.199219 145.09375 Z M 8769.449219 145.09375 " />
<g fill="#ffffff" fill-opacity="1">
<use xlink:href="#glyph-0-2" x="8776.871094" y="128.585938" />
</g>
<path fill-rule="nonzero" fill="#ffffff" fill-opacity="1" d="M 8783.167969 127.660156 C 8783.277344 127.660156 8783.367188 127.570312 8783.367188 127.460938 L 8783.367188 113.84375 C 8783.367188 113.734375 8783.277344 113.644531 8783.167969 113.644531 L 8782.917969 113.644531 C 8782.808594 113.644531 8782.71875 113.734375 8782.71875 113.84375 L 8782.71875 127.460938 C 8782.71875 127.570312 8782.808594 127.660156 8782.917969 127.660156 Z M 8783.167969 127.660156 " />
<g fill="#ffffff" fill-opacity="1">
<use xlink:href="#glyph-0-2" x="8793.28125" y="131.074219" />
</g>
<path fill-rule="nonzero" fill="#ffffff" fill-opacity="1" d="M 8799.578125 130.148438 C 8799.6875 130.148438 8799.777344 130.058594 8799.777344 129.949219 L 8799.777344 113.839844 C 8799.777344 113.730469 8799.6875 113.640625 8799.578125 113.640625 L 8799.328125 113.640625 C 8799.21875 113.640625 8799.128906 113.730469 8799.128906 113.839844 L 8799.128906 129.949219 C 8799.128906 130.058594 8799.21875 130.148438 8799.328125 130.148438 Z M 8799.578125 130.148438 " />
<g fill="#ffffff" fill-opacity="1">
<use xlink:href="#glyph-0-10" x="8786.355469" y="131.074219" />
</g>
<g fill="#ffffff" fill-opacity="1">
<use xlink:href="#glyph-0-2" x="8805.753906" y="128.585938" />
</g>
<path fill-rule="nonzero" fill="#ffffff" fill-opacity="1" d="M 8812.050781 127.660156 C 8812.160156 127.660156 8812.25 127.570312 8812.25 127.460938 L 8812.25 113.84375 C 8812.25 113.734375 8812.160156 113.644531 8812.050781 113.644531 L 8811.800781 113.644531 C 8811.691406 113.644531 8811.601562 113.734375 8811.601562 113.84375 L 8811.601562 127.460938 C 8811.601562 127.570312 8811.691406 127.660156 8811.800781 127.660156 Z M 8812.050781 127.660156 " />
<g fill="#ffffff" fill-opacity="1">
<use xlink:href="#glyph-0-2" x="8818.230469" y="131.074219" />
</g>
<path fill-rule="nonzero" fill="#ffffff" fill-opacity="1" d="M 8824.527344 130.148438 C 8824.636719 130.148438 8824.726562 130.058594 8824.726562 129.949219 L 8824.726562 113.839844 C 8824.726562 113.730469 8824.636719 113.640625 8824.527344 113.640625 L 8824.277344 113.640625 C 8824.167969 113.640625 8824.078125 113.730469 8824.078125 113.839844 L 8824.078125 129.949219 C 8824.078125 130.058594 8824.167969 130.148438 8824.277344 130.148438 Z M 8824.527344 130.148438 " />
<g fill="#ffffff" fill-opacity="1">
<use xlink:href="#glyph-0-2" x="8830.703125" y="128.585938" />
</g>
<path fill-rule="nonzero" fill="#ffffff" fill-opacity="1" d="M 8837 127.660156 C 8837.109375 127.660156 8837.199219 127.570312 8837.199219 127.460938 L 8837.199219 113.84375 C 8837.199219 113.734375 8837.109375 113.644531 8837 113.644531 L 8836.75 113.644531 C 8836.640625 113.644531 8836.550781 113.734375 8836.550781 113.84375 L 8836.550781 127.460938 C 8836.550781 127.570312 8836.640625 127.660156 8836.75 127.660156 Z M 8837 127.660156 " />
<g fill="#ffffff" fill-opacity="1">
<use xlink:href="#glyph-0-2" x="8843.175781" y="131.074219" />
</g>
<path fill-rule="nonzero" fill="#ffffff" fill-opacity="1" d="M 8849.476562 130.148438 C 8849.585938 130.148438 8849.675781 130.058594 8849.675781 129.949219 L 8849.675781 113.839844 C 8849.675781 113.730469 8849.585938 113.640625 8849.476562 113.640625 L 8849.226562 113.640625 C 8849.117188 113.640625 8849.027344 113.730469 8849.027344 113.839844 L 8849.027344 129.949219 C 8849.027344 130.058594 8849.117188 130.148438 8849.226562 130.148438 Z M 8849.476562 130.148438 " />
<g fill="#ffffff" fill-opacity="1">
<use xlink:href="#glyph-0-2" x="8855.652344" y="128.585938" />
</g>
<path fill-rule="nonzero" fill="#ffffff" fill-opacity="1" d="M 8861.949219 127.660156 C 8862.058594 127.660156 8862.148438 127.570312 8862.148438 127.460938 L 8862.148438 113.84375 C 8862.148438 113.734375 8862.058594 113.644531 8861.949219 113.644531 L 8861.699219 113.644531 C 8861.589844 113.644531 8861.5 113.734375 8861.5 113.84375 L 8861.5 127.460938 C 8861.5 127.570312 8861.589844 127.660156 8861.699219 127.660156 Z M 8861.949219 127.660156 " />
<g fill="#ffffff" fill-opacity="1">
<use xlink:href="#glyph-0-2" x="8874.21875" y="61.882812" />
</g>
<g fill="#ffffff" fill-opacity="1">
<use xlink:href="#glyph-0-2" x="8874.21875" y="74.335938" />
</g>
<g fill="#ffffff" fill-opacity="1">
<use xlink:href="#glyph-0-2" x="8874.21875" y="79.320312" />
</g>
<g fill="#ffffff" fill-opacity="1">
<use xlink:href="#glyph-0-2" x="8874.21875" y="138.546875" />
</g>
<path fill-rule="nonzero" fill="#ffffff" fill-opacity="1" d="M 8880.515625 78.390625 C 8880.625 78.390625 8880.714844 78.300781 8880.714844 78.191406 L 8880.714844 44.648438 C 8880.714844 44.539062 8880.625 44.449219 8880.515625 44.449219 L 8880.265625 44.449219 C 8880.15625 44.449219 8880.066406 44.539062 8880.066406 44.648438 L 8880.066406 78.191406 C 8880.066406 78.300781 8880.15625 78.390625 8880.265625 78.390625 Z M 8880.515625 78.390625 " />
<g fill="#ffffff" fill-opacity="1">
<use xlink:href="#glyph-0-12" x="8880.714844" y="44.648438" />
</g>
<path fill-rule="nonzero" fill="#ffffff" fill-opacity="1" d="M 8880.515625 137.621094 C 8880.625 137.621094 8880.714844 137.53125 8880.714844 137.421875 L 8880.714844 121.3125 C 8880.714844 121.203125 8880.625 121.113281 8880.515625 121.113281 L 8880.265625 121.113281 C 8880.15625 121.113281 8880.066406 121.203125 8880.066406 121.3125 L 8880.066406 137.421875 C 8880.066406 137.53125 8880.15625 137.621094 8880.265625 137.621094 Z M 8880.515625 137.621094 " />
<g fill="#ffffff" fill-opacity="1">
<use xlink:href="#glyph-0-12" x="8880.714844" y="121.3125" />
</g>
<g fill="#ffffff" fill-opacity="1">
<use xlink:href="#glyph-0-2" x="8892.671875" y="56.902344" />
</g>
<g fill="#ffffff" fill-opacity="1">
<use xlink:href="#glyph-0-2" x="8892.671875" y="69.355469" />
</g>
<g fill="#ffffff" fill-opacity="1">
<use xlink:href="#glyph-1-2" x="8892.261719" y="82.949219" />
</g>
<g fill="#ffffff" fill-opacity="1">
<use xlink:href="#glyph-0-3" x="8895.917969" y="74.0625" />
</g>
<g fill="#ffffff" fill-opacity="1">
<use xlink:href="#glyph-0-2" x="8892.671875" y="121.113281" />
</g>
<g fill="#ffffff" fill-opacity="1">
<use xlink:href="#glyph-0-3" x="8895.917969" y="116.132812" />
</g>
<path fill-rule="nonzero" fill="#ffffff" fill-opacity="1" d="M 8898.96875 68.429688 C 8899.078125 68.429688 8899.167969 68.339844 8899.167969 68.230469 L 8899.167969 42.160156 C 8899.167969 42.050781 8899.078125 41.960938 8898.96875 41.960938 L 8898.71875 41.960938 C 8898.609375 41.960938 8898.519531 42.050781 8898.519531 42.160156 L 8898.519531 68.230469 C 8898.519531 68.339844 8898.609375 68.429688 8898.71875 68.429688 Z M 8898.96875 68.429688 " />
<path fill-rule="nonzero" fill="#ffffff" fill-opacity="1" d="M 8893.121094 137.601562 C 8893.230469 137.601562 8893.320312 137.511719 8893.320312 137.402344 L 8893.320312 122.238281 C 8893.320312 122.128906 8893.230469 122.039062 8893.121094 122.039062 L 8892.871094 122.039062 C 8892.761719 122.039062 8892.671875 122.128906 8892.671875 122.238281 L 8892.671875 137.402344 C 8892.671875 137.511719 8892.761719 137.601562 8892.871094 137.601562 Z M 8893.121094 137.601562 " />
<g fill="#ffffff" fill-opacity="1">
<use xlink:href="#glyph-0-2" x="8911.121094" y="56.902344" />
</g>
<g fill="#ffffff" fill-opacity="1">
<use xlink:href="#glyph-0-2" x="8911.121094" y="69.355469" />
</g>
<g fill="#ffffff" fill-opacity="1">
<use xlink:href="#glyph-0-3" x="8914.371094" y="74.0625" />
</g>
<g fill="#ffffff" fill-opacity="1">
<use xlink:href="#glyph-0-2" x="8911.121094" y="121.113281" />
</g>
<g fill="#ffffff" fill-opacity="1">
<use xlink:href="#glyph-0-3" x="8914.371094" y="116.132812" />
</g>
<path fill-rule="nonzero" fill="#ffffff" fill-opacity="1" d="M 8917.421875 68.429688 C 8917.53125 68.429688 8917.621094 68.339844 8917.621094 68.230469 L 8917.621094 42.160156 C 8917.621094 42.050781 8917.53125 41.960938 8917.421875 41.960938 L 8917.171875 41.960938 C 8917.0625 41.960938 8916.972656 42.050781 8916.972656 42.160156 L 8916.972656 68.230469 C 8916.972656 68.339844 8917.0625 68.429688 8917.171875 68.429688 Z M 8917.421875 68.429688 " />
<path fill-rule="nonzero" fill="#ffffff" fill-opacity="1" d="M 8911.570312 137.601562 C 8911.679688 137.601562 8911.769531 137.511719 8911.769531 137.402344 L 8911.769531 122.238281 C 8911.769531 122.128906 8911.679688 122.039062 8911.570312 122.039062 L 8911.320312 122.039062 C 8911.210938 122.039062 8911.121094 122.128906 8911.121094 122.238281 L 8911.121094 137.402344 C 8911.121094 137.511719 8911.210938 137.601562 8911.320312 137.601562 Z M 8911.570312 137.601562 " />
<g fill="#ffffff" fill-opacity="1">
<use xlink:href="#glyph-0-2" x="8929.574219" y="56.902344" />
</g>
<g fill="#ffffff" fill-opacity="1">
<use xlink:href="#glyph-0-2" x="8929.574219" y="69.355469" />
</g>
<g fill="#ffffff" fill-opacity="1">
<use xlink:href="#glyph-0-3" x="8932.824219" y="74.0625" />
</g>
<g fill="#ffffff" fill-opacity="1">
<use xlink:href="#glyph-0-2" x="8929.574219" y="121.113281" />
</g>
<g fill="#ffffff" fill-opacity="1">
<use xlink:href="#glyph-0-3" x="8932.824219" y="116.132812" />
</g>
<path fill-rule="nonzero" fill="#ffffff" fill-opacity="1" d="M 8935.871094 68.429688 C 8935.980469 68.429688 8936.070312 68.339844 8936.070312 68.230469 L 8936.070312 42.160156 C 8936.070312 42.050781 8935.980469 41.960938 8935.871094 41.960938 L 8935.621094 41.960938 C 8935.511719 41.960938 8935.421875 42.050781 8935.421875 42.160156 L 8935.421875 68.230469 C 8935.421875 68.339844 8935.511719 68.429688 8935.621094 68.429688 Z M 8935.871094 68.429688 " />
<path fill-rule="nonzero" fill="#ffffff" fill-opacity="1" d="M 8930.023438 137.601562 C 8930.132812 137.601562 8930.222656 137.511719 8930.222656 137.402344 L 8930.222656 122.238281 C 8930.222656 122.128906 8930.132812 122.039062 8930.023438 122.039062 L 8929.773438 122.039062 C 8929.664062 122.039062 8929.574219 122.128906 8929.574219 122.238281 L 8929.574219 137.402344 C 8929.574219 137.511719 8929.664062 137.601562 8929.773438 137.601562 Z M 8930.023438 137.601562 " />
<g fill="#ffffff" fill-opacity="1">
<use xlink:href="#glyph-0-2" x="8948.027344" y="56.902344" />
</g>
<g fill="#ffffff" fill-opacity="1">
<use xlink:href="#glyph-0-2" x="8948.027344" y="69.355469" />
</g>
<g fill="#ffffff" fill-opacity="1">
<use xlink:href="#glyph-0-3" x="8951.273438" y="74.0625" />
</g>
<g fill="#ffffff" fill-opacity="1">
<use xlink:href="#glyph-0-2" x="8948.027344" y="121.113281" />
</g>
<g fill="#ffffff" fill-opacity="1">
<use xlink:href="#glyph-0-3" x="8951.273438" y="116.132812" />
</g>
<path fill-rule="nonzero" fill="#ffffff" fill-opacity="1" d="M 8954.324219 68.429688 C 8954.433594 68.429688 8954.523438 68.339844 8954.523438 68.230469 L 8954.523438 43.125 C 8954.523438 43.011719 8954.433594 42.925781 8954.324219 42.925781 L 8954.074219 42.925781 C 8953.964844 42.925781 8953.875 43.011719 8953.875 43.125 L 8953.875 68.230469 C 8953.875 68.339844 8953.964844 68.429688 8954.074219 68.429688 Z M 8954.324219 68.429688 " />
<path fill-rule="nonzero" fill="#ffffff" fill-opacity="1" d="M 8948.476562 137.585938 C 8948.585938 137.585938 8948.675781 137.496094 8948.675781 137.386719 L 8948.675781 122.242188 C 8948.675781 122.132812 8948.585938 122.042969 8948.476562 122.042969 L 8948.226562 122.042969 C 8948.117188 122.042969 8948.027344 122.132812 8948.027344 122.242188 L 8948.027344 137.386719 C 8948.027344 137.496094 8948.117188 137.585938 8948.226562 137.585938 Z M 8948.476562 137.585938 " />
<g fill="#ffffff" fill-opacity="1">
<use xlink:href="#glyph-0-2" x="8966.476562" y="56.902344" />
</g>
<g fill="#ffffff" fill-opacity="1">
<use xlink:href="#glyph-0-2" x="8966.476562" y="69.355469" />
</g>
<g fill="#ffffff" fill-opacity="1">
<use xlink:href="#glyph-0-3" x="8969.726562" y="74.0625" />
</g>
<g fill="#ffffff" fill-opacity="1">
<use xlink:href="#glyph-0-2" x="8966.476562" y="121.113281" />
</g>
<g fill="#ffffff" fill-opacity="1">
<use xlink:href="#glyph-0-3" x="8969.726562" y="116.132812" />
</g>
<path fill-rule="nonzero" fill="#ffffff" fill-opacity="1" d="M 8972.777344 68.429688 C 8972.886719 68.429688 8972.976562 68.339844 8972.976562 68.230469 L 8972.976562 44.140625 C 8972.976562 44.03125 8972.886719 43.941406 8972.777344 43.941406 L 8972.527344 43.941406 C 8972.417969 43.941406 8972.328125 44.03125 8972.328125 44.140625 L 8972.328125 68.230469 C 8972.328125 68.339844 8972.417969 68.429688 8972.527344 68.429688 Z M 8972.777344 68.429688 " />
<path fill-rule="nonzero" fill="#ffffff" fill-opacity="1" d="M 8966.925781 136.566406 C 8967.035156 136.566406 8967.125 136.476562 8967.125 136.367188 L 8967.125 122.242188 C 8967.125 122.128906 8967.035156 122.042969 8966.925781 122.042969 L 8966.675781 122.042969 C 8966.566406 122.042969 8966.476562 122.128906 8966.476562 122.242188 L 8966.476562 136.367188 C 8966.476562 136.476562 8966.566406 136.566406 8966.675781 136.566406 Z M 8966.925781 136.566406 " />
<g fill="#ffffff" fill-opacity="1">
<use xlink:href="#glyph-0-2" x="8984.929688" y="59.394531" />
</g>
<g fill="#ffffff" fill-opacity="1">
<use xlink:href="#glyph-0-2" x="8984.929688" y="69.355469" />
</g>
<g fill="#ffffff" fill-opacity="1">
<use xlink:href="#glyph-0-3" x="8988.179688" y="74.0625" />
</g>
<g fill="#ffffff" fill-opacity="1">
<use xlink:href="#glyph-0-2" x="8984.929688" y="118.621094" />
</g>
<g fill="#ffffff" fill-opacity="1">
<use xlink:href="#glyph-0-3" x="8988.179688" y="113.914063" />
</g>
<path fill-rule="nonzero" fill="#ffffff" fill-opacity="1" d="M 8991.226562 68.429688 C 8991.335938 68.429688 8991.425781 68.339844 8991.425781 68.230469 L 8991.425781 45.160156 C 8991.425781 45.046875 8991.335938 44.960938 8991.226562 44.960938 L 8990.976562 44.960938 C 8990.867188 44.960938 8990.777344 45.046875 8990.777344 45.160156 L 8990.777344 68.230469 C 8990.777344 68.339844 8990.867188 68.429688 8990.976562 68.429688 Z M 8991.226562 68.429688 " />
<g fill="#ffffff" fill-opacity="1">
<use xlink:href="#glyph-0-5" x="8977.707031" y="59.394531" />
</g>
<path fill-rule="nonzero" fill="#ffffff" fill-opacity="1" d="M 8985.378906 135.550781 C 8985.488281 135.550781 8985.578125 135.460938 8985.578125 135.351562 L 8985.578125 119.75 C 8985.578125 119.640625 8985.488281 119.550781 8985.378906 119.550781 L 8985.128906 119.550781 C 8985.019531 119.550781 8984.929688 119.640625 8984.929688 119.75 L 8984.929688 135.351562 C 8984.929688 135.460938 8985.019531 135.550781 8985.128906 135.550781 Z M 8985.378906 135.550781 " />
<g fill="#ffffff" fill-opacity="1">
<use xlink:href="#glyph-0-5" x="8977.707031" y="118.621094" />
</g>
<g fill="#ffffff" fill-opacity="1">
<use xlink:href="#glyph-0-2" x="9003.382812" y="61.882812" />
</g>
<g fill="#ffffff" fill-opacity="1">
<use xlink:href="#glyph-0-2" x="9003.382812" y="69.355469" />
</g>
<g fill="#ffffff" fill-opacity="1">
<use xlink:href="#glyph-0-3" x="9006.628906" y="74.0625" />
</g>
<g fill="#ffffff" fill-opacity="1">
<use xlink:href="#glyph-0-2" x="9003.382812" y="116.132812" />
</g>
<g fill="#ffffff" fill-opacity="1">
<use xlink:href="#glyph-0-3" x="9006.628906" y="111.425781" />
</g>
<path fill-rule="nonzero" fill="#ffffff" fill-opacity="1" d="M 9009.679688 68.429688 C 9009.789062 68.429688 9009.878906 68.339844 9009.878906 68.230469 L 9009.878906 46.175781 C 9009.878906 46.066406 9009.789062 45.976562 9009.679688 45.976562 L 9009.429688 45.976562 C 9009.320312 45.976562 9009.230469 46.066406 9009.230469 46.175781 L 9009.230469 68.230469 C 9009.230469 68.339844 9009.320312 68.429688 9009.429688 68.429688 Z M 9009.679688 68.429688 " />
<path fill-rule="nonzero" fill="#ffffff" fill-opacity="1" d="M 9003.832031 134.53125 C 9003.941406 134.53125 9004.03125 134.441406 9004.03125 134.332031 L 9004.03125 117.257812 C 9004.03125 117.148438 9003.941406 117.058594 9003.832031 117.058594 L 9003.582031 117.058594 C 9003.472656 117.058594 9003.382812 117.148438 9003.382812 117.257812 L 9003.382812 134.332031 C 9003.382812 134.441406 9003.472656 134.53125 9003.582031 134.53125 Z M 9003.832031 134.53125 " />
<g fill="#ffffff" fill-opacity="1">
<use xlink:href="#glyph-0-2" x="9032.691406" y="64.375" />
</g>
<g fill="#ffffff" fill-opacity="1">
<use xlink:href="#glyph-0-2" x="9032.691406" y="69.355469" />
</g>
<g fill="#ffffff" fill-opacity="1">
<use xlink:href="#glyph-0-2" x="9032.691406" y="113.640625" />
</g>
<g fill="#ffffff" fill-opacity="1">
<use xlink:href="#glyph-0-2" x="9032.691406" y="128.585938" />
</g>
<path fill-rule="nonzero" fill="#ffffff" fill-opacity="1" d="M 9038.992188 68.429688 C 9039.101562 68.429688 9039.191406 68.339844 9039.191406 68.230469 L 9039.191406 47.140625 C 9039.191406 47.03125 9039.101562 46.941406 9038.992188 46.941406 L 9038.742188 46.941406 C 9038.632812 46.941406 9038.542969 47.03125 9038.542969 47.140625 L 9038.542969 68.230469 C 9038.542969 68.339844 9038.632812 68.429688 9038.742188 68.429688 Z M 9038.992188 68.429688 " />
<g fill="#ffffff" fill-opacity="1">
<use xlink:href="#glyph-0-12" x="9039.1875" y="47.140625" />
</g>
<g fill="#ffffff" fill-opacity="1">
<use xlink:href="#glyph-0-10" x="9025.769531" y="64.375" />
</g>
<path fill-rule="nonzero" fill="#ffffff" fill-opacity="1" d="M 9033.140625 145.398438 C 9033.25 145.398438 9033.339844 145.308594 9033.339844 145.199219 L 9033.339844 114.769531 C 9033.339844 114.660156 9033.25 114.570312 9033.140625 114.570312 L 9032.890625 114.570312 C 9032.78125 114.570312 9032.691406 114.660156 9032.691406 114.769531 L 9032.691406 145.199219 C 9032.691406 145.308594 9032.78125 145.398438 9032.890625 145.398438 Z M 9033.140625 145.398438 " />
<g fill="#ffffff" fill-opacity="1">
<use xlink:href="#glyph-0-11" x="9033.339844" y="145.199219" />
</g>
<g fill="#ffffff" fill-opacity="1">
<use xlink:href="#glyph-0-2" x="9051.144531" y="51.921875" />
</g>
<g fill="#ffffff" fill-opacity="1">
<use xlink:href="#glyph-0-2" x="9051.144531" y="64.375" />
</g>
<g fill="#ffffff" fill-opacity="1">
<use xlink:href="#glyph-0-2" x="9051.144531" y="111.152344" />
</g>
<g fill="#ffffff" fill-opacity="1">
<use xlink:href="#glyph-0-2" x="9044.972656" y="113.640625" />
</g>
<path fill-rule="nonzero" fill="#ffffff" fill-opacity="1" d="M 9057.441406 63.445312 C 9057.550781 63.445312 9057.640625 63.355469 9057.640625 63.246094 L 9057.640625 37.175781 C 9057.640625 37.066406 9057.550781 36.976562 9057.441406 36.976562 L 9057.191406 36.976562 C 9057.082031 36.976562 9056.992188 37.066406 9056.992188 37.175781 L 9056.992188 63.246094 C 9056.992188 63.355469 9057.082031 63.445312 9057.191406 63.445312 Z M 9057.441406 63.445312 " />
<path fill-rule="nonzero" fill="#ffffff" fill-opacity="1" d="M 9051.59375 128.585938 C 9051.703125 128.585938 9051.792969 128.496094 9051.792969 128.386719 L 9051.792969 112.277344 C 9051.792969 112.167969 9051.703125 112.078125 9051.59375 112.078125 L 9051.34375 112.078125 C 9051.234375 112.078125 9051.144531 112.167969 9051.144531 112.277344 L 9051.144531 128.386719 C 9051.144531 128.496094 9051.234375 128.585938 9051.34375 128.585938 Z M 9051.59375 128.585938 " />
<g fill="#ffffff" fill-opacity="1">
<use xlink:href="#glyph-0-2" x="9069.597656" y="51.921875" />
</g>
<g fill="#ffffff" fill-opacity="1">
<use xlink:href="#glyph-0-2" x="9069.597656" y="64.375" />
</g>
<g fill="#ffffff" fill-opacity="1">
<use xlink:href="#glyph-0-2" x="9069.597656" y="111.152344" />
</g>
<g fill="#ffffff" fill-opacity="1">
<use xlink:href="#glyph-0-2" x="9063.421875" y="113.640625" />
</g>
<path fill-rule="nonzero" fill="#ffffff" fill-opacity="1" d="M 9075.894531 63.445312 C 9076.003906 63.445312 9076.09375 63.355469 9076.09375 63.246094 L 9076.09375 37.175781 C 9076.09375 37.066406 9076.003906 36.976562 9075.894531 36.976562 L 9075.644531 36.976562 C 9075.535156 36.976562 9075.445312 37.066406 9075.445312 37.175781 L 9075.445312 63.246094 C 9075.445312 63.355469 9075.535156 63.445312 9075.644531 63.445312 Z M 9075.894531 63.445312 " />
<path fill-rule="nonzero" fill="#ffffff" fill-opacity="1" d="M 9070.042969 128.585938 C 9070.152344 128.585938 9070.242188 128.496094 9070.242188 128.386719 L 9070.242188 112.277344 C 9070.242188 112.167969 9070.152344 112.078125 9070.042969 112.078125 L 9069.792969 112.078125 C 9069.683594 112.078125 9069.59375 112.167969 9069.59375 112.277344 L 9069.59375 128.386719 C 9069.59375 128.496094 9069.683594 128.585938 9069.792969 128.585938 Z M 9070.042969 128.585938 " />
<g fill="#ffffff" fill-opacity="1">
<use xlink:href="#glyph-0-2" x="9088.046875" y="51.921875" />
</g>
<g fill="#ffffff" fill-opacity="1">
<use xlink:href="#glyph-0-2" x="9088.046875" y="64.375" />
</g>
<g fill="#ffffff" fill-opacity="1">
<use xlink:href="#glyph-0-2" x="9088.046875" y="111.152344" />
</g>
<g fill="#ffffff" fill-opacity="1">
<use xlink:href="#glyph-0-2" x="9081.875" y="113.640625" />
</g>
<path fill-rule="nonzero" fill="#ffffff" fill-opacity="1" d="M 9094.347656 63.445312 C 9094.457031 63.445312 9094.546875 63.355469 9094.546875 63.246094 L 9094.546875 37.175781 C 9094.546875 37.066406 9094.457031 36.976562 9094.347656 36.976562 L 9094.097656 36.976562 C 9093.988281 36.976562 9093.898438 37.066406 9093.898438 37.175781 L 9093.898438 63.246094 C 9093.898438 63.355469 9093.988281 63.445312 9094.097656 63.445312 Z M 9094.347656 63.445312 " />
<path fill-rule="nonzero" fill="#ffffff" fill-opacity="1" d="M 9088.496094 128.585938 C 9088.605469 128.585938 9088.695312 128.496094 9088.695312 128.386719 L 9088.695312 112.277344 C 9088.695312 112.167969 9088.605469 112.078125 9088.496094 112.078125 L 9088.246094 112.078125 C 9088.136719 112.078125 9088.046875 112.167969 9088.046875 112.277344 L 9088.046875 128.386719 C 9088.046875 128.496094 9088.136719 128.585938 9088.246094 128.585938 Z M 9088.496094 128.585938 " />
<g fill="#ffffff" fill-opacity="1">
<use xlink:href="#glyph-0-2" x="9106.5" y="51.921875" />
</g>
<g fill="#ffffff" fill-opacity="1">
<use xlink:href="#glyph-0-2" x="9106.5" y="64.375" />
</g>
<g fill="#ffffff" fill-opacity="1">
<use xlink:href="#glyph-0-2" x="9106.5" y="111.152344" />
</g>
<g fill="#ffffff" fill-opacity="1">
<use xlink:href="#glyph-0-2" x="9100.328125" y="113.640625" />
</g>
<path fill-rule="nonzero" fill="#ffffff" fill-opacity="1" d="M 9112.796875 63.445312 C 9112.90625 63.445312 9112.996094 63.355469 9112.996094 63.246094 L 9112.996094 38.121094 C 9112.996094 38.011719 9112.90625 37.921875 9112.796875 37.921875 L 9112.546875 37.921875 C 9112.4375 37.921875 9112.347656 38.011719 9112.347656 38.121094 L 9112.347656 63.246094 C 9112.347656 63.355469 9112.4375 63.445312 9112.546875 63.445312 Z M 9112.796875 63.445312 " />
<path fill-rule="nonzero" fill="#ffffff" fill-opacity="1" d="M 9106.949219 129.550781 C 9107.058594 129.550781 9107.148438 129.460938 9107.148438 129.351562 L 9107.148438 112.277344 C 9107.148438 112.167969 9107.058594 112.078125 9106.949219 112.078125 L 9106.699219 112.078125 C 9106.589844 112.078125 9106.5 112.167969 9106.5 112.277344 L 9106.5 129.351562 C 9106.5 129.460938 9106.589844 129.550781 9106.699219 129.550781 Z M 9106.949219 129.550781 " />
<g fill="#ffffff" fill-opacity="1">
<use xlink:href="#glyph-0-2" x="9124.953125" y="51.921875" />
</g>
<g fill="#ffffff" fill-opacity="1">
<use xlink:href="#glyph-0-2" x="9124.953125" y="64.375" />
</g>
<g fill="#ffffff" fill-opacity="1">
<use xlink:href="#glyph-0-2" x="9124.953125" y="111.152344" />
</g>
<g fill="#ffffff" fill-opacity="1">
<use xlink:href="#glyph-0-2" x="9118.777344" y="113.640625" />
</g>
<path fill-rule="nonzero" fill="#ffffff" fill-opacity="1" d="M 9131.25 63.445312 C 9131.359375 63.445312 9131.449219 63.355469 9131.449219 63.246094 L 9131.449219 38.121094 C 9131.449219 38.011719 9131.359375 37.921875 9131.25 37.921875 L 9131 37.921875 C 9130.890625 37.921875 9130.800781 38.011719 9130.800781 38.121094 L 9130.800781 63.246094 C 9130.800781 63.355469 9130.890625 63.445312 9131 63.445312 Z M 9131.25 63.445312 " />
<path fill-rule="nonzero" fill="#ffffff" fill-opacity="1" d="M 9125.398438 130.566406 C 9125.507812 130.566406 9125.597656 130.476562 9125.597656 130.367188 L 9125.597656 112.277344 C 9125.597656 112.167969 9125.507812 112.078125 9125.398438 112.078125 L 9125.148438 112.078125 C 9125.039062 112.078125 9124.949219 112.167969 9124.949219 112.277344 L 9124.949219 130.367188 C 9124.949219 130.476562 9125.039062 130.566406 9125.148438 130.566406 Z M 9125.398438 130.566406 " />
<g fill="#ffffff" fill-opacity="1">
<use xlink:href="#glyph-0-2" x="9143.402344" y="51.921875" />
</g>
<g fill="#ffffff" fill-opacity="1">
<use xlink:href="#glyph-0-2" x="9143.402344" y="61.882812" />
</g>
<g fill="#ffffff" fill-opacity="1">
<use xlink:href="#glyph-0-2" x="9143.402344" y="111.152344" />
</g>
<g fill="#ffffff" fill-opacity="1">
<use xlink:href="#glyph-0-2" x="9143.402344" y="116.132812" />
</g>
<path fill-rule="nonzero" fill="#ffffff" fill-opacity="1" d="M 9149.699219 60.957031 C 9149.808594 60.957031 9149.898438 60.867188 9149.898438 60.757812 L 9149.898438 38.125 C 9149.898438 38.011719 9149.808594 37.925781 9149.699219 37.925781 L 9149.449219 37.925781 C 9149.339844 37.925781 9149.25 38.011719 9149.25 38.125 L 9149.25 60.757812 C 9149.25 60.867188 9149.339844 60.957031 9149.449219 60.957031 Z M 9149.699219 60.957031 " />
<path fill-rule="nonzero" fill="#ffffff" fill-opacity="1" d="M 9143.851562 131.585938 C 9143.960938 131.585938 9144.050781 131.496094 9144.050781 131.386719 L 9144.050781 112.277344 C 9144.050781 112.167969 9143.960938 112.078125 9143.851562 112.078125 L 9143.601562 112.078125 C 9143.492188 112.078125 9143.402344 112.167969 9143.402344 112.277344 L 9143.402344 131.386719 C 9143.402344 131.496094 9143.492188 131.585938 9143.601562 131.585938 Z M 9143.851562 131.585938 " />
<g fill="#ffffff" fill-opacity="1">
<use xlink:href="#glyph-0-2" x="9161.855469" y="51.921875" />
</g>
<g fill="#ffffff" fill-opacity="1">
<use xlink:href="#glyph-0-2" x="9161.855469" y="59.394531" />
</g>
<g fill="#ffffff" fill-opacity="1">
<use xlink:href="#glyph-0-2" x="9161.855469" y="111.152344" />
</g>
<g fill="#ffffff" fill-opacity="1">
<use xlink:href="#glyph-0-2" x="9161.855469" y="118.621094" />
</g>
<path fill-rule="nonzero" fill="#ffffff" fill-opacity="1" d="M 9168.152344 58.464844 C 9168.261719 58.464844 9168.351562 58.375 9168.351562 58.265625 L 9168.351562 38.121094 C 9168.351562 38.011719 9168.261719 37.921875 9168.152344 37.921875 L 9167.902344 37.921875 C 9167.792969 37.921875 9167.703125 38.011719 9167.703125 38.121094 L 9167.703125 58.265625 C 9167.703125 58.375 9167.792969 58.464844 9167.902344 58.464844 Z M 9168.152344 58.464844 " />
<g fill="#ffffff" fill-opacity="1">
<use xlink:href="#glyph-0-5" x="9154.632812" y="59.394531" />
</g>
<path fill-rule="nonzero" fill="#ffffff" fill-opacity="1" d="M 9162.304688 132.601562 C 9162.414062 132.601562 9162.503906 132.511719 9162.503906 132.402344 L 9162.503906 112.277344 C 9162.503906 112.167969 9162.414062 112.078125 9162.304688 112.078125 L 9162.054688 112.078125 C 9161.945312 112.078125 9161.855469 112.167969 9161.855469 112.277344 L 9161.855469 132.402344 C 9161.855469 132.511719 9161.945312 132.601562 9162.054688 132.601562 Z M 9162.304688 132.601562 " />
<g fill="#ffffff" fill-opacity="1">
<use xlink:href="#glyph-0-5" x="9154.632812" y="118.621094" />
</g>
<g fill="#ffffff" fill-opacity="1">
<use xlink:href="#glyph-0-2" x="9186.332031" y="51.921875" />
</g>
<g fill="#ffffff" fill-opacity="1">
<use xlink:href="#glyph-0-2" x="9186.332031" y="56.902344" />
</g>
<g fill="#ffffff" fill-opacity="1">
<use xlink:href="#glyph-0-2" x="9186.332031" y="121.113281" />
</g>
<g fill="#ffffff" fill-opacity="1">
<use xlink:href="#glyph-0-2" x="9186.332031" y="138.546875" />
</g>
<path fill-rule="nonzero" fill="#ffffff" fill-opacity="1" d="M 9186.78125 73.714844 C 9186.890625 73.714844 9186.980469 73.625 9186.980469 73.515625 L 9186.980469 53.046875 C 9186.980469 52.9375 9186.890625 52.847656 9186.78125 52.847656 L 9186.53125 52.847656 C 9186.421875 52.847656 9186.332031 52.9375 9186.332031 53.046875 L 9186.332031 73.515625 C 9186.332031 73.625 9186.421875 73.714844 9186.53125 73.714844 Z M 9186.78125 73.714844 " />
<g fill="#ffffff" fill-opacity="1">
<use xlink:href="#glyph-0-11" x="9186.980469" y="73.515625" />
</g>
<path fill-rule="nonzero" fill="#ffffff" fill-opacity="1" d="M 9192.632812 137.621094 C 9192.742188 137.621094 9192.832031 137.53125 9192.832031 137.421875 L 9192.832031 106.371094 C 9192.832031 106.257812 9192.742188 106.171875 9192.632812 106.171875 L 9192.382812 106.171875 C 9192.273438 106.171875 9192.183594 106.257812 9192.183594 106.371094 L 9192.183594 137.421875 C 9192.183594 137.53125 9192.273438 137.621094 9192.382812 137.621094 Z M 9192.632812 137.621094 " />
<g fill="#ffffff" fill-opacity="1">
<use xlink:href="#glyph-0-12" x="9192.832031" y="106.367188" />
</g>
<g fill="#ffffff" fill-opacity="1">
<use xlink:href="#glyph-0-2" x="9204.785156" y="56.902344" />
</g>
<g fill="#ffffff" fill-opacity="1">
<use xlink:href="#glyph-0-2" x="9204.785156" y="69.355469" />
</g>
<g fill="#ffffff" fill-opacity="1">
<use xlink:href="#glyph-0-2" x="9204.785156" y="121.113281" />
</g>
<path fill-rule="nonzero" fill="#ffffff" fill-opacity="1" d="M 9211.082031 68.429688 C 9211.191406 68.429688 9211.28125 68.339844 9211.28125 68.230469 L 9211.28125 42.160156 C 9211.28125 42.050781 9211.191406 41.960938 9211.082031 41.960938 L 9210.832031 41.960938 C 9210.722656 41.960938 9210.632812 42.050781 9210.632812 42.160156 L 9210.632812 68.230469 C 9210.632812 68.339844 9210.722656 68.429688 9210.832031 68.429688 Z M 9211.082031 68.429688 " />
<path fill-rule="nonzero" fill="#ffffff" fill-opacity="1" d="M 9205.234375 137.601562 C 9205.34375 137.601562 9205.433594 137.511719 9205.433594 137.402344 L 9205.433594 122.238281 C 9205.433594 122.128906 9205.34375 122.039062 9205.234375 122.039062 L 9204.984375 122.039062 C 9204.875 122.039062 9204.785156 122.128906 9204.785156 122.238281 L 9204.785156 137.402344 C 9204.785156 137.511719 9204.875 137.601562 9204.984375 137.601562 Z M 9205.234375 137.601562 " />
<g fill="#ffffff" fill-opacity="1">
<use xlink:href="#glyph-0-2" x="9223.238281" y="56.902344" />
</g>
<g fill="#ffffff" fill-opacity="1">
<use xlink:href="#glyph-0-2" x="9223.238281" y="69.355469" />
</g>
<g fill="#ffffff" fill-opacity="1">
<use xlink:href="#glyph-0-2" x="9223.238281" y="121.113281" />
</g>
<path fill="none" stroke-width="0.08" stroke-linecap="butt" stroke-linejoin="round" stroke="#ffffff" stroke-opacity="1" stroke-miterlimit="10" d="M 1855.358946 -27.423548 L 1855.358946 -27.823479 L 1847.900613 -27.823479 L 1847.900613 -27.423548 Z M 1855.358946 -27.423548 " transform="matrix(4.98132, 0, 0, -4.98132, 0, 0)" />
<path fill-rule="nonzero" fill="#ffffff" fill-opacity="1" d="M 9242.136719 136.605469 L 9242.136719 138.597656 L 9204.984375 138.597656 L 9204.984375 136.605469 Z M 9242.136719 136.605469 " />
<path fill="none" stroke-width="0.08" stroke-linecap="butt" stroke-linejoin="round" stroke="#ffffff" stroke-opacity="1" stroke-miterlimit="10" d="M 1856.532863 -8.223692 L 1856.532863 -8.623624 L 1849.07453 -8.623624 L 1849.07453 -8.223692 Z M 1856.532863 -8.223692 " transform="matrix(4.98132, 0, 0, -4.98132, 0, 0)" />
<path fill-rule="nonzero" fill="#ffffff" fill-opacity="1" d="M 9247.984375 40.964844 L 9247.984375 42.957031 L 9210.832031 42.957031 L 9210.832031 40.964844 Z M 9247.984375 40.964844 " />
<path fill="none" stroke-width="0.08" stroke-linecap="butt" stroke-linejoin="round" stroke="#ffffff" stroke-opacity="1" stroke-miterlimit="10" d="M 1839.332666 -26.423719 L 1839.332666 -26.82365 L 1828.169868 -26.203364 L 1828.169868 -25.803433 Z M 1839.332666 -26.423719 " transform="matrix(4.98132, 0, 0, -4.98132, 0, 0)" />
<path fill-rule="nonzero" fill="#ffffff" fill-opacity="1" d="M 9162.304688 131.625 L 9162.304688 133.617188 L 9106.699219 130.527344 L 9106.699219 128.535156 Z M 9162.304688 131.625 " />
<path fill="none" stroke-width="0.08" stroke-linecap="butt" stroke-linejoin="round" stroke="#ffffff" stroke-opacity="1" stroke-miterlimit="10" d="M 1840.506583 -7.413635 L 1840.506583 -7.813566 L 1829.343785 -7.813566 L 1829.343785 -7.413635 Z M 1840.506583 -7.413635 " transform="matrix(4.98132, 0, 0, -4.98132, 0, 0)" />
<path fill-rule="nonzero" fill="#ffffff" fill-opacity="1" d="M 9168.152344 36.929688 L 9168.152344 38.921875 L 9112.546875 38.921875 L 9112.546875 36.929688 Z M 9168.152344 36.929688 " />
<path fill="none" stroke-width="0.08" stroke-linecap="butt" stroke-linejoin="round" stroke="#ffffff" stroke-opacity="1" stroke-miterlimit="10" d="M 1824.515591 -25.613661 L 1824.515591 -26.013593 L 1817.057258 -26.013593 L 1817.057258 -25.613661 Z M 1824.515591 -25.613661 " transform="matrix(4.98132, 0, 0, -4.98132, 0, 0)" />
<path fill-rule="nonzero" fill="#ffffff" fill-opacity="1" d="M 9088.496094 127.589844 L 9088.496094 129.582031 L 9051.34375 129.582031 L 9051.34375 127.589844 Z M 9088.496094 127.589844 " />
<path fill="none" stroke-width="0.08" stroke-linecap="butt" stroke-linejoin="round" stroke="#ffffff" stroke-opacity="1" stroke-miterlimit="10" d="M 1825.689508 -7.223079 L 1825.689508 -7.623011 L 1818.231175 -7.623011 L 1818.231175 -7.223079 Z M 1825.689508 -7.223079 " transform="matrix(4.98132, 0, 0, -4.98132, 0, 0)" />
<path fill-rule="nonzero" fill="#ffffff" fill-opacity="1" d="M 9094.34375 35.980469 L 9094.34375 37.972656 L 9057.191406 37.972656 L 9057.191406 35.980469 Z M 9094.34375 35.980469 " />
<path fill="none" stroke-width="0.08" stroke-linecap="butt" stroke-linejoin="round" stroke="#ffffff" stroke-opacity="1" stroke-miterlimit="10" d="M 1807.51928 -26.803262 L 1807.51928 -27.203193 L 1796.356482 -27.823479 L 1796.356482 -27.423548 Z M 1807.51928 -26.803262 " transform="matrix(4.98132, 0, 0, -4.98132, 0, 0)" />
<path fill-rule="nonzero" fill="#ffffff" fill-opacity="1" d="M 9003.832031 133.515625 L 9003.832031 135.507812 L 8948.226562 138.597656 L 8948.226562 136.605469 Z M 9003.832031 133.515625 " />
<path fill="none" stroke-width="0.08" stroke-linecap="butt" stroke-linejoin="round" stroke="#ffffff" stroke-opacity="1" stroke-miterlimit="10" d="M 1808.693197 -9.03375 L 1808.693197 -9.433682 L 1797.530399 -8.813396 L 1797.530399 -8.413464 Z M 1808.693197 -9.03375 " transform="matrix(4.98132, 0, 0, -4.98132, 0, 0)" />
<path fill-rule="nonzero" fill="#ffffff" fill-opacity="1" d="M 9009.679688 45 L 9009.679688 46.992188 L 8954.074219 43.902344 L 8954.074219 41.910156 Z M 9009.679688 45 " />
<path fill="none" stroke-width="0.08" stroke-linecap="butt" stroke-linejoin="round" stroke="#ffffff" stroke-opacity="1" stroke-miterlimit="10" d="M 1792.702205 -27.423548 L 1792.702205 -27.823479 L 1785.243872 -27.823479 L 1785.243872 -27.423548 Z M 1792.702205 -27.423548 " transform="matrix(4.98132, 0, 0, -4.98132, 0, 0)" />
<path fill-rule="nonzero" fill="#ffffff" fill-opacity="1" d="M 8930.023438 136.605469 L 8930.023438 138.597656 L 8892.871094 138.597656 L 8892.871094 136.605469 Z M 8930.023438 136.605469 " />
<path fill="none" stroke-width="0.08" stroke-linecap="butt" stroke-linejoin="round" stroke="#ffffff" stroke-opacity="1" stroke-miterlimit="10" d="M 1793.876122 -8.223692 L 1793.876122 -8.623624 L 1786.417789 -8.623624 L 1786.417789 -8.223692 Z M 1793.876122 -8.223692 " transform="matrix(4.98132, 0, 0, -4.98132, 0, 0)" />
<path fill-rule="nonzero" fill="#ffffff" fill-opacity="1" d="M 8935.871094 40.964844 L 8935.871094 42.957031 L 8898.71875 42.957031 L 8898.71875 40.964844 Z M 8935.871094 40.964844 " />
<path fill="none" stroke-width="0.08" stroke-linecap="butt" stroke-linejoin="round" stroke="#ffffff" stroke-opacity="1" stroke-miterlimit="10" d="M 1779.036306 -22.61339 L 1779.036306 -23.013321 L 1771.473677 -23.013321 L 1771.473677 -22.61339 Z M 1779.036306 -22.61339 " transform="matrix(4.98132, 0, 0, -4.98132, 0, 0)" />
<path fill-rule="nonzero" fill="#ffffff" fill-opacity="1" d="M 8861.949219 112.644531 L 8861.949219 114.636719 L 8824.277344 114.636719 L 8824.277344 112.644531 Z M 8861.949219 112.644531 " />
<path fill="none" stroke-width="0.08" stroke-linecap="butt" stroke-linejoin="round" stroke="#ffffff" stroke-opacity="1" stroke-miterlimit="10" d="M 1779.036306 -23.423447 L 1779.036306 -23.823379 L 1771.473677 -23.823379 L 1771.473677 -23.423447 Z M 1779.036306 -23.423447 " transform="matrix(4.98132, 0, 0, -4.98132, 0, 0)" />
<path fill-rule="nonzero" fill="#ffffff" fill-opacity="1" d="M 8861.949219 116.679688 L 8861.949219 118.671875 L 8824.277344 118.671875 L 8824.277344 116.679688 Z M 8861.949219 116.679688 " />
<path fill="none" stroke-width="0.08" stroke-linecap="butt" stroke-linejoin="round" stroke="#ffffff" stroke-opacity="1" stroke-miterlimit="10" d="M 1769.019194 -22.61339 L 1769.019194 -23.013321 L 1760.416743 -23.013321 L 1760.416743 -22.61339 Z M 1769.019194 -22.61339 " transform="matrix(4.98132, 0, 0, -4.98132, 0, 0)" />
<path fill-rule="nonzero" fill="#ffffff" fill-opacity="1" d="M 8812.050781 112.644531 L 8812.050781 114.636719 L 8769.199219 114.636719 L 8769.199219 112.644531 Z M 8812.050781 112.644531 " />
<path fill="none" stroke-width="0.08" stroke-linecap="butt" stroke-linejoin="round" stroke="#ffffff" stroke-opacity="1" stroke-miterlimit="10" d="M 1769.019194 -23.423447 L 1769.019194 -23.823379 L 1760.416743 -23.823379 L 1760.416743 -23.423447 Z M 1769.019194 -23.423447 " transform="matrix(4.98132, 0, 0, -4.98132, 0, 0)" />
<path fill-rule="nonzero" fill="#ffffff" fill-opacity="1" d="M 8812.050781 116.679688 L 8812.050781 118.671875 L 8769.199219 118.671875 L 8769.199219 116.679688 Z M 8812.050781 116.679688 " />
<path fill="none" stroke-width="0.08" stroke-linecap="butt" stroke-linejoin="round" stroke="#ffffff" stroke-opacity="1" stroke-miterlimit="10" d="M 1757.28865 -26.61349 L 1757.28865 -27.014206 L 1749.475868 -28.203807 L 1749.475868 -27.803875 Z M 1757.28865 -26.61349 " transform="matrix(4.98132, 0, 0, -4.98132, 0, 0)" />
<path fill-rule="nonzero" fill="#ffffff" fill-opacity="1" d="M 8753.617188 132.570312 L 8753.617188 134.566406 L 8714.699219 140.492188 L 8714.699219 138.5 Z M 8753.617188 132.570312 " />
<path fill="none" stroke-width="0.08" stroke-linecap="butt" stroke-linejoin="round" stroke="#ffffff" stroke-opacity="1" stroke-miterlimit="10" d="M 1757.28865 -27.422764 L 1757.28865 -27.823479 L 1749.475868 -29.01308 L 1749.475868 -28.613148 Z M 1757.28865 -27.422764 " transform="matrix(4.98132, 0, 0, -4.98132, 0, 0)" />
<path fill-rule="nonzero" fill="#ffffff" fill-opacity="1" d="M 8753.617188 136.601562 L 8753.617188 138.597656 L 8714.699219 144.523438 L 8714.699219 142.53125 Z M 8753.617188 136.601562 " />
<path fill="none" stroke-width="0.08" stroke-linecap="butt" stroke-linejoin="round" stroke="#ffffff" stroke-opacity="1" stroke-miterlimit="10" d="M 1747.271539 -26.61349 L 1747.271539 -27.014206 L 1739.458757 -28.203807 L 1739.458757 -27.803875 Z M 1747.271539 -26.61349 " transform="matrix(4.98132, 0, 0, -4.98132, 0, 0)" />
<path fill-rule="nonzero" fill="#ffffff" fill-opacity="1" d="M 8703.71875 132.570312 L 8703.71875 134.566406 L 8664.800781 140.492188 L 8664.800781 138.5 Z M 8703.71875 132.570312 " />
<path fill="none" stroke-width="0.08" stroke-linecap="butt" stroke-linejoin="round" stroke="#ffffff" stroke-opacity="1" stroke-miterlimit="10" d="M 1747.271539 -27.422764 L 1747.271539 -27.823479 L 1739.458757 -29.01308 L 1739.458757 -28.613148 Z M 1747.271539 -27.422764 " transform="matrix(4.98132, 0, 0, -4.98132, 0, 0)" />
<path fill-rule="nonzero" fill="#ffffff" fill-opacity="1" d="M 8703.71875 136.601562 L 8703.71875 138.597656 L 8664.800781 144.523438 L 8664.800781 142.53125 Z M 8703.71875 136.601562 " />
</svg>