<?xml version='1.0' encoding='utf-8'?>
<svg xmlns="http://www.w3.org/2000/svg" xmlns:xlink="http://www.w3.org/1999/xlink" width="2048" height="784" viewBox="50176.0 0 512.0 196.0"><defs>
<g>
<g id="glyph-0-0">
<path d="M 2.484375 -4.078125 C 1.546875 -4.078125 1.078125 -3.390625 1.078125 -2.671875 C 1.078125 -1.890625 1.609375 -1.078125 2.765625 -1.078125 C 3.484375 -1.078125 4.15625 -1.28125 4.84375 -1.515625 L 3.921875 1.5 C 3.828125 1.828125 3.046875 2.84375 2.734375 2.84375 C 1.828125 2.84375 2.484375 0.890625 0.921875 0.890625 C -0.015625 0.890625 -0.5 1.59375 -0.5 2.3125 C -0.5 3.09375 0.0625 3.90625 1.21875 3.90625 C 1.9375 3.90625 2.65625 3.6875 3.328125 3.453125 L 1.3125 9.953125 C 1.46875 10.09375 1.671875 10.15625 1.875 10.15625 C 2.078125 10.15625 2.25 10.09375 2.40625 9.953125 L 5.96875 -3.390625 C 5.9375 -3.5 5.8125 -3.5625 5.703125 -3.5625 C 5.578125 -3.5625 5.484375 -3.5 5.421875 -3.390625 C 5.28125 -3.109375 4.578125 -2.125 4.28125 -2.125 C 3.390625 -2.125 4.0625 -4.078125 2.484375 -4.078125 Z M 2.484375 -4.078125 " />
</g>
<g id="glyph-0-1">
<path d="M 8.890625 1.984375 C 8.890625 2.453125 9.25 2.8125 9.703125 2.8125 C 10.15625 2.8125 10.515625 2.453125 10.515625 1.984375 C 10.515625 1.53125 10.15625 1.171875 9.703125 1.171875 C 9.25 1.171875 8.890625 1.53125 8.890625 1.984375 Z M 8.890625 -1.984375 C 8.890625 -1.53125 9.25 -1.171875 9.703125 -1.171875 C 10.15625 -1.171875 10.515625 -1.53125 10.515625 -1.984375 C 10.515625 -2.453125 10.15625 -2.8125 9.703125 -2.8125 C 9.25 -2.8125 8.890625 -2.453125 8.890625 -1.984375 Z M 3.5625 -4.25 C 1.53125 -4.25 0 -2.453125 0 -0.375 C 0 0.5625 0.84375 1.3125 1.796875 1.3125 C 2.6875 1.3125 3.390625 0.53125 3.390625 -0.375 C 3.390625 -1.25 2.671875 -1.96875 1.796875 -1.96875 C 1.6875 -1.96875 1.59375 -1.953125 1.5 -1.9375 C 1.828125 -2.96875 2.53125 -3.71875 3.5625 -3.71875 C 5.171875 -3.71875 5.9375 -1.875 5.9375 -0.046875 C 5.9375 3.46875 2.8125 5.84375 -0.171875 7.796875 C -0.234375 7.84375 -0.265625 7.90625 -0.265625 7.96875 C -0.265625 8.109375 -0.140625 8.234375 0 8.234375 C 0.0625 8.234375 0.125 8.203125 0.171875 8.140625 C 4.1875 6.390625 8.359375 3.96875 8.359375 -0.234375 C 8.359375 -2.875 6.359375 -4.25 3.5625 -4.25 Z M 3.5625 -4.25 " />
</g>
<g id="glyph-0-2">
<path d="M 0 0.921875 C 0 1.9375 0.78125 2.703125 2.109375 2.703125 C 4.296875 2.703125 6.5 0.8125 6.5 -0.921875 C 6.5 -2.015625 5.578125 -2.703125 4.328125 -2.703125 C 2.3125 -2.703125 0 -0.890625 0 0.921875 Z M 0 0.921875 " />
</g>
<g id="glyph-0-3">
<path d="M -1 0 C -1 0.5625 -0.5625 1 0 1 C 0.5625 1 1 0.5625 1 0 C 1 -0.5625 0.5625 -1 0 -1 C -0.5625 -1 -1 -0.5625 -1 0 Z M -1 0 " />
</g>
<g id="glyph-0-4">
<path d="M -0.140625 -7.46875 L 0 3.890625 C 0 4.078125 0.15625 4.21875 0.359375 4.21875 L 0.421875 4.21875 L 2.53125 3.828125 L 2.484375 7.46875 C 2.65625 7.546875 2.8125 7.609375 2.96875 7.609375 C 3.125 7.609375 3.3125 7.546875 3.46875 7.46875 L 3.328125 -3.890625 C 3.328125 -4.078125 3.171875 -4.21875 2.96875 -4.21875 L 2.90625 -4.21875 L 0.796875 -3.828125 L 0.84375 -7.46875 C 0.671875 -7.546875 0.515625 -7.609375 0.359375 -7.609375 C 0.203125 -7.609375 0.015625 -7.546875 -0.140625 -7.46875 Z M 2.609375 -2.234375 L 2.546875 1.890625 L 0.71875 2.234375 L 0.78125 -1.890625 Z M 2.609375 -2.234375 " />
</g>
<g id="glyph-0-5">
<path d="M 0 -2.375 L 0 -1.171875 C 0 -0.953125 0.171875 -0.78125 0.390625 -0.78125 C 0.4375 -0.78125 0.5 -0.78125 0.53125 -0.796875 L 1.171875 -1.015625 L 1.171875 2.171875 L 0.265625 2.484375 C 0.09375 2.546875 0 2.703125 0 2.875 L 0 4.0625 C 0 4.28125 0.171875 4.46875 0.390625 4.46875 C 0.4375 4.46875 0.5 4.46875 0.53125 4.4375 L 1.171875 4.203125 L 1.171875 7.09375 C 1.171875 7.296875 1.328125 7.46875 1.53125 7.46875 C 1.734375 7.46875 1.90625 7.296875 1.90625 7.09375 L 1.90625 3.9375 L 3.5625 3.328125 L 3.5625 6.21875 C 3.5625 6.421875 3.75 6.59375 3.9375 6.59375 C 4.140625 6.59375 4.296875 6.421875 4.296875 6.21875 L 4.296875 3.0625 L 5.21875 2.734375 C 5.375 2.671875 5.484375 2.53125 5.484375 2.375 L 5.484375 1.171875 C 5.484375 0.953125 5.296875 0.78125 5.078125 0.78125 C 5.046875 0.78125 4.984375 0.78125 4.9375 0.796875 L 4.296875 1.015625 L 4.296875 -2.171875 L 5.21875 -2.484375 C 5.375 -2.546875 5.484375 -2.703125 5.484375 -2.875 L 5.484375 -4.0625 C 5.484375 -4.28125 5.296875 -4.46875 5.078125 -4.46875 C 5.046875 -4.46875 4.984375 -4.46875 4.9375 -4.4375 L 4.296875 -4.203125 L 4.296875 -7.09375 C 4.296875 -7.296875 4.140625 -7.46875 3.9375 -7.46875 C 3.75 -7.46875 3.5625 -7.296875 3.5625 -7.09375 L 3.5625 -3.9375 L 1.90625 -3.328125 L 1.90625 -6.21875 C 1.90625 -6.421875 1.734375 -6.59375 1.53125 -6.59375 C 1.328125 -6.59375 1.171875 -6.421875 1.171875 -6.21875 L 1.171875 -3.0625 L 0.265625 -2.734375 C 0.09375 -2.671875 0 -2.53125 0 -2.375 Z M 3.5625 -1.890625 L 3.5625 1.296875 L 1.90625 1.890625 L 1.90625 -1.296875 Z M 3.5625 -1.890625 " />
</g>
<g id="glyph-0-6">
<path d="M 4.1875 10.203125 L 4.203125 9.34375 L 4.140625 9.34375 C 3.46875 9.34375 2.90625 9.03125 2.53125 8.5 C 2.609375 8.53125 2.65625 8.53125 2.734375 8.53125 C 3.5625 8.53125 4.25 7.84375 4.25 7.015625 C 4.25 6.109375 3.578125 5.359375 2.734375 5.359375 C 1.765625 5.359375 0.9375 6.09375 0.9375 7.015625 C 0.9375 8.765625 2.375 10.203125 4.109375 10.203125 Z M 6.515625 -2.328125 C 8.171875 -2.09375 9.046875 -0.734375 9.046875 0.59375 C 9.046875 1.609375 8.53125 2.65625 7.4375 3.09375 C 7.171875 0.796875 6.578125 -2.09375 6.515625 -2.328125 Z M 1.25 -0.375 C 1.25 -2.953125 2.84375 -4.953125 4.484375 -6.96875 C 4.765625 -6.015625 5.015625 -5.078125 5.234375 -4.125 C 3.609375 -3.71875 2.6875 -2.328125 2.6875 -0.921875 C 2.6875 1.09375 4.46875 2.109375 4.765625 2.109375 C 5 2.109375 5.171875 1.890625 5.171875 1.671875 C 5.171875 1.578125 5.15625 1.46875 5.0625 1.375 C 4.203125 0.875 3.78125 0.15625 3.78125 -0.515625 C 3.78125 -1.390625 4.46875 -2.21875 5.640625 -2.34375 C 6.15625 0.125 6.46875 2.265625 6.59375 3.28125 C 6.234375 3.34375 5.921875 3.359375 5.59375 3.359375 C 2.828125 3.359375 1.25 1.421875 1.25 -0.375 Z M 5.484375 -19.65625 C 5.203125 -19.65625 3.015625 -17.875 3.015625 -14.84375 C 3.015625 -11.8125 3.3125 -10.8125 3.84375 -9.109375 C 2.046875 -6.859375 0.046875 -4.65625 0.046875 -1.796875 C 0.046875 0.625 1.578125 4.21875 5.484375 4.21875 C 5.859375 4.21875 6.25 4.1875 6.671875 4.109375 C 6.71875 4.5625 6.734375 5.015625 6.734375 5.484375 C 6.734375 8.90625 4.953125 9.328125 4.203125 9.34375 L 4.1875 10.203125 C 6.0625 10.15625 7.4375 8.453125 7.546875 6.5 C 7.5625 6.171875 7.5625 5.84375 7.5625 5.515625 C 7.5625 4.984375 7.546875 4.4375 7.515625 3.90625 C 9.421875 3.265625 10.296875 1.640625 10.296875 0 C 10.296875 -2.109375 8.828125 -4.25 6.21875 -4.25 C 6.171875 -4.25 6.140625 -4.21875 6.09375 -4.21875 L 6.078125 -4.21875 C 5.796875 -5.421875 5.484375 -6.609375 5.140625 -7.796875 C 6.578125 -9.578125 7.828125 -11.421875 7.828125 -13.703125 C 7.828125 -16.21875 6 -19.65625 5.484375 -19.65625 Z M 6.359375 -17.125 C 6.53125 -16.4375 6.640625 -15.78125 6.640625 -15.15625 C 6.640625 -13.328125 5.84375 -11.734375 4.484375 -9.921875 C 4.265625 -10.640625 3.9375 -11.75 3.9375 -12.953125 C 3.9375 -14.4375 4.46875 -16.0625 6.359375 -17.125 Z M 6.359375 -17.125 " />
</g>
<g id="glyph-0-7">
<path d="M 3.3125 -3.859375 C 3.3125 -4.1875 3.546875 -4.4375 3.859375 -4.4375 C 4.1875 -4.4375 4.4375 -4.1875 4.4375 -3.859375 C 4.4375 -3.546875 4.1875 -3.3125 3.859375 -3.3125 C 3.546875 -3.3125 3.3125 -3.546875 3.3125 -3.859375 Z M 3.109375 -5.015625 C 2.34375 -5.015625 3.140625 -6.90625 1.828125 -6.90625 C 1.3125 -6.90625 0.84375 -6.4375 0.84375 -5.921875 C 0.84375 -5.78125 0.875 -5.0625 1.734375 -5.0625 C 1.8125 -5.0625 1.890625 -5.078125 1.96875 -5.078125 C 2.59375 -5.078125 2.703125 -4.78125 2.703125 -4.578125 C 2.703125 -4.328125 2.515625 -4.0625 2.234375 -4.0625 C 1.6875 -4.0625 1.5 -4.84375 0.953125 -4.84375 C 0.3125 -4.84375 0 -4.34375 0 -3.859375 C 0 -3.390625 0.3125 -2.90625 0.953125 -2.90625 C 1.5 -2.90625 1.6875 -3.671875 2.234375 -3.671875 C 2.5625 -3.671875 2.734375 -3.328125 2.734375 -3.109375 C 2.734375 -2.34375 0.84375 -3.140625 0.84375 -1.828125 C 0.84375 -1.3125 1.3125 -0.84375 1.828125 -0.84375 C 1.96875 -0.84375 2.671875 -0.875 2.671875 -1.734375 L 2.671875 -1.96875 C 2.671875 -2.59375 2.96875 -2.703125 3.171875 -2.703125 C 3.421875 -2.703125 3.671875 -2.515625 3.671875 -2.234375 C 3.671875 -1.6875 2.90625 -1.5 2.90625 -0.953125 C 2.90625 -0.3125 3.390625 0 3.859375 0 C 4.34375 0 4.84375 -0.3125 4.84375 -0.953125 C 4.84375 -1.5 4.0625 -1.6875 4.0625 -2.234375 C 4.0625 -2.5625 4.40625 -2.734375 4.625 -2.734375 C 5.375 -2.734375 4.609375 -0.84375 5.921875 -0.84375 C 6.4375 -0.84375 6.90625 -1.3125 6.90625 -1.828125 C 6.90625 -1.96875 6.875 -2.671875 6.015625 -2.671875 L 5.78125 -2.671875 C 5.15625 -2.671875 5.046875 -2.96875 5.046875 -3.171875 C 5.046875 -3.421875 5.234375 -3.671875 5.515625 -3.671875 C 6.0625 -3.671875 6.25 -2.90625 6.796875 -2.90625 C 7.4375 -2.90625 7.75 -3.390625 7.75 -3.859375 C 7.75 -4.34375 7.4375 -4.84375 6.796875 -4.84375 C 6.25 -4.84375 6.0625 -4.0625 5.515625 -4.0625 C 5.171875 -4.0625 5.015625 -4.40625 5.015625 -4.625 C 5.015625 -5.375 6.90625 -4.609375 6.90625 -5.921875 C 6.90625 -6.4375 6.4375 -6.90625 5.921875 -6.90625 C 5.78125 -6.90625 5.0625 -6.859375 5.0625 -6 C 5.0625 -5.921875 5.078125 -5.859375 5.078125 -5.78125 C 5.078125 -5.15625 4.78125 -5.046875 4.578125 -5.046875 C 4.328125 -5.046875 4.0625 -5.234375 4.0625 -5.515625 C 4.0625 -6.0625 4.84375 -6.25 4.84375 -6.796875 C 4.84375 -7.4375 4.34375 -7.75 3.859375 -7.75 C 3.390625 -7.75 2.90625 -7.4375 2.90625 -6.796875 C 2.90625 -6.25 3.671875 -6.0625 3.671875 -5.515625 C 3.671875 -5.171875 3.328125 -5.015625 3.109375 -5.015625 Z M 3.109375 -5.015625 " />
</g>
<g id="glyph-0-8">
<path d="M 0 -0.703125 C 0 -0.3125 0.3125 0 0.703125 0 C 1.078125 0 1.390625 -0.3125 1.390625 -0.703125 C 1.390625 -1.078125 1.078125 -1.390625 0.703125 -1.390625 C 0.3125 -1.390625 0 -1.078125 0 -0.703125 Z M 0 -0.703125 " />
</g>
<g id="glyph-0-9">
<path d="M 8.1875 -1.71875 C 8.53125 -0.5 8.859375 0 9.359375 0 C 9.921875 0 10.640625 -0.640625 11.71875 -1.640625 C 12.078125 -0.734375 12.828125 0 13.6875 0 C 14.9375 0 15.9375 -1.4375 15.9375 -2.828125 C 15.9375 -6.3125 10.671875 -8.71875 9.296875 -8.71875 C 9.21875 -8.71875 9.15625 -8.609375 9.15625 -8.5 C 9.15625 -8.453125 9.203125 -8.390625 9.265625 -8.359375 C 10.84375 -8.09375 12.390625 -7 13.40625 -5.578125 C 12.375 -5.078125 11.46875 -3.9375 11.46875 -2.84375 C 11.46875 -2.5625 11.515625 -2.296875 11.59375 -2.015625 C 11.578125 -1.984375 10.421875 -1.03125 10.203125 -1.03125 C 9.796875 -1.03125 9.359375 -1.859375 9.046875 -2.453125 L 9.265625 -2.625 C 9.984375 -3.234375 10.84375 -4.078125 10.84375 -4.828125 C 10.84375 -5.28125 10.453125 -5.734375 9.859375 -5.734375 C 9 -5.734375 7.953125 -4.796875 7.953125 -3.140625 C 7.953125 -2.828125 7.984375 -2.484375 8.0625 -2.125 C 7.390625 -1.609375 7.171875 -1.453125 7.046875 -1.453125 C 7.046875 -1.453125 5.8125 -2.296875 4.90625 -2.390625 C 5.4375 -3.0625 6.0625 -3.8125 6.0625 -4.1875 C 6.0625 -5.171875 4.0625 -6.53125 4.0625 -7.453125 C 4.0625 -7.75 4.703125 -9.328125 4.84375 -9.609375 L 4.984375 -9.609375 C 6.515625 -9.609375 7.390625 -8.546875 7.390625 -7.765625 C 7.390625 -7.296875 7.046875 -7.046875 6.75 -7.046875 C 6.109375 -7.046875 5.859375 -7.75 5.734375 -7.75 C 5.640625 -7.75 5.515625 -7.671875 5.515625 -7.59375 C 5.515625 -7.5625 6.296875 -5.75 7.25 -5.75 C 7.671875 -5.75 8.28125 -6.171875 8.28125 -7.09375 C 8.28125 -8.328125 7.125 -9.953125 4.984375 -9.953125 C 1.765625 -9.953125 -0.015625 -7.671875 -0.015625 -6.03125 C -0.015625 -4.953125 0.75 -4.484375 1.1875 -4.484375 C 2.03125 -4.484375 2.84375 -5.71875 2.84375 -6.96875 C 2.84375 -7.046875 2.75 -7.09375 2.671875 -7.09375 C 2.59375 -7.09375 2.484375 -7.046875 2.484375 -6.96875 C 2.484375 -6.359375 2.078125 -5.796875 1.640625 -5.796875 C 1.390625 -5.796875 0.859375 -6.078125 0.859375 -6.75 C 0.859375 -7.828125 2.21875 -9.390625 4.46875 -9.578125 C 4.140625 -9.046875 3.265625 -6.765625 3.265625 -6.359375 C 3.265625 -5.578125 5.015625 -4.296875 5.015625 -3.359375 C 5.015625 -3.140625 4.984375 -3.046875 4.421875 -2.390625 C 3.578125 -2.296875 1.9375 -0.75 1.9375 -0.203125 C 1.9375 -0.078125 2.015625 0 2.21875 0 C 2.953125 0 3.921875 -1.21875 4.609375 -2.03125 C 5.28125 -1.828125 5.359375 -0.046875 5.921875 -0.046875 C 6.234375 -0.046875 7.921875 -1.515625 8.1875 -1.71875 Z M 10.140625 -4.421875 C 10.140625 -3.828125 9.34375 -3.140625 8.890625 -2.765625 C 8.6875 -3.203125 8.609375 -3.578125 8.609375 -3.90625 C 8.609375 -4.65625 9.0625 -5.078125 9.5 -5.078125 C 9.859375 -5.078125 10.140625 -4.765625 10.140625 -4.421875 Z M 13.609375 -5.28125 C 14.296875 -4.21875 14.578125 -3.125 14.578125 -2.296875 C 14.578125 -1.359375 14.21875 -0.703125 13.6875 -0.703125 C 12.875 -0.703125 12.515625 -1.890625 12.515625 -2.84375 C 12.515625 -3.75 12.875 -4.859375 13.609375 -5.28125 Z M 13.609375 -5.28125 " />
</g>
<g id="glyph-0-10">
<path d="M 3.03125 0 C 3.484375 -0.453125 4.140625 -0.5625 4.796875 -0.5625 C 4.921875 -0.5625 5 -0.640625 5 -0.75 L 5.171875 -2.484375 L 5.171875 -2.515625 C 5.171875 -2.609375 5.09375 -2.6875 5 -2.6875 L 4.984375 -2.6875 L 3.25 -2.515625 C 3.140625 -2.484375 3.046875 -2.40625 3.046875 -2.3125 C 3.046875 -1.65625 2.953125 -1 2.484375 -0.53125 C 2.03125 -1 1.9375 -1.65625 1.9375 -2.3125 C 1.9375 -2.40625 1.859375 -2.484375 1.75 -2.515625 L 0 -2.6875 L -0.015625 -2.6875 C -0.125 -2.6875 -0.203125 -2.609375 -0.203125 -2.515625 L -0.203125 -2.484375 L -0.015625 -0.75 C -0.015625 -0.640625 0.0625 -0.5625 0.171875 -0.5625 C 0.84375 -0.5625 1.5 -0.453125 1.953125 0 C 1.5 0.453125 0.84375 0.5625 0.171875 0.5625 C 0.0625 0.5625 -0.015625 0.640625 -0.015625 0.75 L -0.203125 2.484375 L -0.203125 2.515625 C -0.203125 2.609375 -0.125 2.6875 -0.015625 2.6875 L 0 2.6875 L 1.75 2.515625 C 1.859375 2.484375 1.953125 2.40625 1.953125 2.3125 C 1.953125 1.65625 2.03125 1 2.484375 0.53125 C 2.953125 1 3.046875 1.65625 3.046875 2.3125 C 3.046875 2.40625 3.140625 2.484375 3.25 2.515625 L 4.984375 2.6875 L 5 2.6875 C 5.09375 2.6875 5.171875 2.609375 5.171875 2.515625 L 5.171875 2.484375 L 5 0.75 C 5 0.640625 4.921875 0.5625 4.796875 0.5625 C 4.140625 0.5625 3.484375 0.453125 3.03125 0 Z M 3.03125 0 " />
</g>
<g id="glyph-0-11">
<path d="M 0 0 L 0 -7.46875 L -0.3125 -7.46875 L -0.3125 0 Z M 4.46875 -10.140625 C 4.46875 -7.921875 1.9375 -6.15625 0 -4.984375 L 0 0 C 0 -4.046875 5.3125 -6.09375 5.3125 -10.140625 C 5.3125 -11.375 5.015625 -12.59375 4.515625 -13.703125 C 4.421875 -13.859375 4.265625 -13.921875 4.125 -13.921875 C 3.890625 -13.921875 3.671875 -13.765625 3.671875 -13.484375 C 3.671875 -13.28125 4.46875 -12.015625 4.46875 -10.140625 Z M 4.46875 -10.140625 " />
</g>
<g id="glyph-0-12">
<path d="M 0 0 L -0.3125 0 L -0.3125 7.46875 L 0 7.46875 Z M 2.453125 14.515625 C 2.453125 14.796875 2.671875 14.984375 2.90625 14.984375 C 3.046875 14.984375 3.203125 14.90625 3.3125 14.734375 C 3.828125 13.421875 4.125 12.03125 4.125 10.625 C 4.125 6.6875 0 3.921875 0 0 L 0 4.984375 C 1.421875 6.46875 3.28125 8.5625 3.28125 10.625 C 3.28125 12.796875 2.453125 14.328125 2.453125 14.515625 Z M 2.453125 14.515625 " />
</g>
<g id="glyph-0-13">
<path d="M 0 0 C 0 0.625 0.5 1.109375 1.109375 1.109375 C 1.734375 1.109375 2.234375 0.625 2.234375 0 C 2.234375 -0.625 1.734375 -1.109375 1.109375 -1.109375 C 0.5 -1.109375 0 -0.625 0 0 Z M 0 0 " />
</g>
<g id="glyph-0-14">
<path d="M 1.4375 2.109375 C 0.953125 2.109375 0.625 1.734375 0.625 1.296875 C 0.625 1.109375 0.671875 0.921875 0.8125 0.734375 C 1.359375 0.078125 4.625 -2.109375 5.421875 -2.109375 C 5.890625 -2.109375 6.25 -1.734375 6.25 -1.296875 C 6.25 -1.109375 6.171875 -0.921875 6.03125 -0.734375 C 5.5 -0.078125 2.234375 2.109375 1.4375 2.109375 Z M 0 1.328125 C 0 2.515625 0.890625 2.703125 1.71875 2.703125 C 5.9375 2.703125 6.859375 0.078125 6.859375 -1.328125 C 6.859375 -2.515625 5.953125 -2.703125 5.140625 -2.703125 C 0.921875 -2.703125 0 -0.078125 0 1.328125 Z M 0 1.328125 " />
</g>
<g id="glyph-0-15">
<path d="M 6.90625 0.515625 C 6.90625 2.078125 5.9375 2.234375 5.5 2.234375 C 4.375 2.234375 2.875 1.328125 2.875 -0.484375 C 2.875 -2.046875 3.8125 -2.25 4.265625 -2.25 C 5.140625 -2.25 6.90625 -1.515625 6.90625 0.515625 Z M 4.875 -2.703125 C 2.015625 -2.703125 0 -1.421875 0 0 C 0 1.421875 2.015625 2.703125 4.875 2.703125 C 7.75 2.703125 9.78125 1.421875 9.78125 0 C 9.78125 -1.421875 7.75 -2.703125 4.875 -2.703125 Z M 4.875 -2.703125 " />
</g>
<g id="glyph-0-16">
<path d="M 7.265625 3.109375 C 7.390625 3.109375 7.46875 3.03125 7.46875 2.90625 L 7.46875 0.203125 C 7.46875 0.078125 7.390625 0 7.265625 0 L 0.203125 0 C 0.078125 0 0 0.078125 0 0.203125 L 0 2.90625 C 0 3.03125 0.078125 3.109375 0.203125 3.109375 Z M 7.265625 3.109375 " />
</g>
<g id="glyph-0-17">
<path d="M -1.328125 -0.953125 C -1.328125 -0.21875 -0.734375 0.375 0 0.375 C 0.734375 0.375 1.328125 -0.21875 1.328125 -0.953125 C 1.328125 -1.6875 0.734375 -2.296875 0 -2.296875 C -0.734375 -2.296875 -1.328125 -1.6875 -1.328125 -0.953125 Z M -6.609375 0.0625 C -6.609375 0.234375 -6.421875 0.359375 -6.234375 0.359375 C -6.0625 0.359375 -5.890625 0.265625 -5.859375 0 C -5.34375 -2.953125 -2.953125 -5.21875 0 -5.21875 C 2.953125 -5.21875 5.34375 -2.953125 5.859375 0 C 5.890625 0.265625 6.0625 0.359375 6.234375 0.359375 C 6.421875 0.359375 6.609375 0.234375 6.609375 0.0625 C 6.609375 -0.640625 5.078125 -7.234375 0 -7.234375 C -5.078125 -7.234375 -6.609375 -0.640625 -6.609375 0.0625 Z M -6.609375 0.0625 " />
</g>
<g id="glyph-0-18">
<path d="M -4.625 -5.53125 C -4.125 -5.53125 -3.53125 -5.359375 -2.984375 -4.953125 L -3.09375 -4.484375 C -3.8125 -4.15625 -4.5625 -3.921875 -5.125 -3.921875 C -5.59375 -3.921875 -5.921875 -4.078125 -5.921875 -4.5 C -5.921875 -5.078125 -5.4375 -5.53125 -4.625 -5.53125 Z M 5.515625 -5.234375 C 5.515625 -6.171875 4.859375 -6.609375 4.140625 -6.609375 C 3.640625 -6.609375 3.125 -6.421875 2.765625 -6.015625 C 2.546875 -6.375 2.078125 -6.578125 1.5 -6.578125 C 1.03125 -6.578125 0.53125 -6.453125 0.015625 -6.171875 L -1.25 -5.453125 L -0.203125 -10.75 C -0.59375 -10.375 -1.109375 -10.0625 -1.546875 -10.0625 C -1.6875 -10.0625 -1.828125 -10.09375 -1.953125 -10.15625 L -2.875 -5.53125 C -3.453125 -5.890625 -3.984375 -6.0625 -4.46875 -6.0625 C -5.65625 -6.0625 -6.4375 -5.140625 -6.4375 -4.375 C -6.4375 -3.859375 -6.078125 -3.421875 -5.203125 -3.421875 C -4.703125 -3.421875 -4.046875 -3.5625 -3.203125 -3.921875 L -3.5 -2.40625 C -3.5625 -2.15625 -3.578125 -1.875 -3.578125 -1.59375 C -3.578125 -0.65625 -3.25 0.21875 -2.46875 0.21875 C -1.75 0.21875 -0.5 -0.625 -0.5 -1.984375 C -0.5 -2.625 -0.78125 -3.390625 -1.515625 -4.25 L -1.375 -4.859375 L 0.203125 -5.734375 C 0.359375 -5.8125 0.53125 -5.875 0.671875 -5.875 C 1.015625 -5.875 1.25 -5.671875 1.25 -5.359375 L 1.25 -5.21875 L 0.171875 0.15625 C 0.453125 0.015625 0.75 -0.0625 1.03125 -0.0625 C 1.3125 -0.0625 1.578125 0.015625 1.796875 0.15625 L 2.875 -5.21875 C 2.96875 -5.75 3.484375 -6.078125 3.96875 -6.078125 C 4.265625 -6.078125 4.5625 -5.953125 4.71875 -5.671875 L 4.640625 -5.671875 C 3.84375 -5.671875 3.453125 -5 3.453125 -4.375 C 3.453125 -3.890625 3.71875 -3.453125 4.21875 -3.453125 C 4.90625 -3.453125 5.515625 -4.265625 5.515625 -5.234375 Z M -1.65625 -3.546875 C -1.1875 -2.921875 -1.015625 -2.375 -1.015625 -1.9375 C -1.015625 -1.21875 -1.4375 -0.78125 -1.71875 -0.78125 C -1.9375 -0.78125 -2.015625 -1.015625 -2.015625 -1.359375 C -2.015625 -1.890625 -1.828125 -2.65625 -1.75 -3.015625 Z M -1.65625 -3.546875 " />
</g>
<g id="glyph-0-19">
<path d="M -0.125 -1.546875 C -0.125 -1.390625 -0.0625 -1.234375 0.078125 -1.0625 L 2.703125 2.09375 C 1.890625 1.734375 1 1.46875 0.34375 1.46875 C 0.078125 1.46875 -0.453125 1.5 -0.453125 2.3125 C -0.453125 3.78125 1.234375 6.375 1.5 6.375 C 1.578125 6.375 1.65625 6.3125 1.65625 6.234375 C 1.65625 6.171875 1.0625 5.484375 1.0625 4.25 C 1.0625 2.90625 1.796875 2.90625 2.109375 2.90625 C 3.390625 2.90625 4.125 3.78125 4.28125 3.78125 C 4.4375 3.78125 4.609375 3.640625 4.609375 3.46875 C 4.609375 3.40625 4.578125 3.328125 4.515625 3.265625 L 2.84375 1.296875 C 2.515625 0.890625 2.375 0.390625 2.375 -0.078125 C 2.375 -2.046875 4.84375 -2.53125 4.84375 -3.703125 C 4.84375 -3.859375 4.78125 -4.03125 4.640625 -4.203125 L 1.640625 -7.796875 C 1.578125 -7.875 1.5 -7.890625 1.421875 -7.890625 C 1.25 -7.890625 1.078125 -7.765625 1.078125 -7.59375 C 1.078125 -7.53125 1.09375 -7.453125 1.15625 -7.390625 L 1.859375 -6.546875 C 2.1875 -6.15625 2.34375 -5.65625 2.34375 -5.171875 C 2.34375 -3.203125 -0.125 -2.734375 -0.125 -1.546875 Z M -0.125 -1.546875 " />
</g>
<g id="glyph-0-20">
<path d="M 1.390625 -4.078125 C 0.453125 -4.078125 -0.015625 -3.390625 -0.015625 -2.671875 C -0.015625 -1.890625 0.515625 -1.078125 1.671875 -1.078125 C 2.390625 -1.078125 3.09375 -1.28125 3.765625 -1.515625 L 1.4375 4.984375 C 1.59375 5.125 1.796875 5.171875 1.984375 5.171875 C 2.1875 5.171875 2.375 5.125 2.53125 4.984375 L 4.984375 -3.390625 C 4.9375 -3.5 4.828125 -3.5625 4.703125 -3.5625 C 4.578125 -3.5625 4.484375 -3.5 4.421875 -3.390625 C 4.28125 -3.09375 3.53125 -2.125 3.203125 -2.125 C 2.3125 -2.125 2.96875 -4.078125 1.390625 -4.078125 Z M 1.390625 -4.078125 " />
</g>
<g id="glyph-0-21">
<path d="M 7.265625 0 C 7.390625 0 7.46875 -0.078125 7.46875 -0.203125 L 7.46875 -2.90625 C 7.46875 -3.03125 7.390625 -3.109375 7.265625 -3.109375 L 0.203125 -3.109375 C 0.078125 -3.109375 0 -3.03125 0 -2.90625 L 0 -0.203125 C 0 -0.078125 0.078125 0 0.203125 0 Z M 7.265625 0 " />
</g>
<g id="glyph-0-22">
<path d="M 11.09375 2.484375 C 11.09375 3.046875 11.546875 3.5 12.109375 3.5 C 12.671875 3.5 13.125 3.046875 13.125 2.484375 C 13.125 1.9375 12.671875 1.46875 12.109375 1.46875 C 11.546875 1.46875 11.09375 1.9375 11.09375 2.484375 Z M 11.09375 -2.484375 C 11.09375 -1.9375 11.546875 -1.46875 12.109375 -1.46875 C 12.671875 -1.46875 13.125 -1.9375 13.125 -2.484375 C 13.125 -3.046875 12.671875 -3.5 12.109375 -3.5 C 11.546875 -3.5 11.09375 -3.046875 11.09375 -2.484375 Z M 4.625 -5.234375 C 2.03125 -5.234375 0 -3.03125 0 -0.375 C 0 0.796875 1.03125 1.734375 2.234375 1.734375 C 3.34375 1.734375 4.21875 0.78125 4.21875 -0.375 C 4.21875 -1.46875 3.328125 -2.375 2.234375 -2.375 C 1.984375 -2.375 1.765625 -2.3125 1.546875 -2.21875 C 2.046875 -3.640625 3.140625 -4.71875 4.625 -4.71875 C 6.765625 -4.71875 8.03125 -2.4375 8.03125 -0.046875 C 8.03125 4.5 3.84375 7.4375 -0.171875 9.78125 C -0.234375 9.84375 -0.265625 9.90625 -0.265625 9.953125 C -0.265625 10.09375 -0.140625 10.21875 0 10.21875 C 0.0625 10.21875 0.125 10.203125 0.171875 10.140625 C 5.21875 8.015625 10.453125 5 10.453125 -0.234375 C 10.453125 -3.484375 8.046875 -5.234375 4.625 -5.234375 Z M 4.625 -5.234375 " />
</g>
<g id="glyph-0-23">
<path d="M 2.453125 17.015625 C 2.453125 17.296875 2.671875 17.46875 2.90625 17.46875 C 3.046875 17.46875 3.203125 17.390625 3.3125 17.234375 C 3.828125 16.078125 4.125 14.84375 4.125 13.59375 C 4.125 12.75 3.90625 12 3.546875 11.25 C 3.828125 10.65625 4 10.015625 4 9.359375 C 4 5.84375 0 3.53125 0 0 L -0.3125 0 L -0.3125 10.953125 L 0 10.953125 L 0 8.46875 C 1.421875 9.796875 3.28125 11.65625 3.28125 13.59375 C 3.28125 15.5 2.453125 16.8125 2.453125 17.015625 Z M 3.015625 10.296875 C 1.796875 8.34375 0 6.59375 0 4.25 C 1.359375 5.578125 3.171875 7.453125 3.171875 9.359375 C 3.171875 9.6875 3.109375 10 3.015625 10.296875 Z M 3.015625 10.296875 " />
</g>
<g id="glyph-0-24">
<path d="M 0 4.21875 C 1.28125 5.578125 2.96875 7.453125 2.96875 9.296875 C 2.96875 9.546875 2.921875 9.78125 2.875 10 C 1.6875 8.1875 0 6.515625 0 4.328125 Z M 2.453125 20.765625 C 2.453125 21.03125 2.671875 21.203125 2.90625 21.203125 C 3.046875 21.203125 3.203125 21.140625 3.3125 20.984375 C 3.828125 19.90625 4.125 18.71875 4.125 17.53125 C 4.125 16.71875 3.90625 15.984375 3.546875 15.28125 C 3.84375 14.625 4 13.90625 4 13.1875 C 4 12.390625 3.765625 11.671875 3.421875 10.984375 C 3.640625 10.4375 3.8125 9.875 3.8125 9.296875 C 3.8125 5.8125 0 3.484375 0 0 L -0.3125 0 L -0.3125 15.375 L 0 15.375 L 0 12.890625 C 1.421875 14.046875 3.28125 15.71875 3.28125 17.53125 C 3.28125 19.34375 2.453125 20.5625 2.453125 20.765625 Z M 0 8.5625 C 1.359375 9.734375 3.171875 11.390625 3.171875 13.1875 C 3.171875 13.59375 3.09375 13.96875 2.96875 14.34375 C 1.75 12.53125 0 10.890625 0 8.671875 Z M 0 8.5625 " />
</g>
<g id="glyph-0-25">
<path d="M 8.625 1.765625 C 8.625 1.609375 8.484375 1.53125 8.359375 1.53125 C 8.265625 1.53125 8.171875 1.59375 8.125 1.734375 C 7.75 3.34375 6.578125 4.734375 4.984375 4.734375 C 2.875 4.734375 2.734375 3.265625 2.734375 1.015625 L 2.734375 -1.015625 C 2.734375 -3.265625 2.875 -4.71875 4.984375 -4.71875 C 5.9375 -4.71875 6.8125 -4.28125 7.375 -3.546875 C 7.265625 -3.5625 7.171875 -3.5625 7.09375 -3.5625 C 6.203125 -3.5625 5.65625 -2.78125 5.65625 -2.03125 C 5.65625 -1.03125 6.53125 -0.53125 7.15625 -0.53125 C 7.890625 -0.53125 8.484375 -1.171875 8.484375 -1.96875 C 8.484375 -3.109375 7.296875 -5.21875 4.984375 -5.21875 C 0.359375 -5.21875 0 -1.234375 0 0 C 0 4.859375 3.8125 5.234375 4.984375 5.234375 C 7.625 5.234375 8.625 2.21875 8.625 1.765625 Z M 8.625 1.765625 " />
</g>
<g id="glyph-1-0">
<path d="M 3.578125 -4.296875 C 3.578125 -4.078125 3.84375 -3.859375 4.203125 -3.859375 C 4.578125 -3.859375 4.796875 -4.203125 4.796875 -4.578125 C 4.796875 -5.140625 4.34375 -5.8125 3.234375 -5.8125 C 2.15625 -5.8125 1.25 -4.953125 1.25 -3.890625 C 1.25 -2.8125 3.25 -2.703125 3.25 -1.546875 C 3.25 -0.9375 2.625 -0.53125 1.96875 -0.53125 C 1.640625 -0.53125 1.28125 -0.671875 1.28125 -0.96875 C 1.28125 -1.234375 1.6875 -1.296875 1.6875 -1.546875 C 1.6875 -1.90625 1.421875 -2.1875 1.0625 -2.1875 C 0.671875 -2.1875 0.4375 -1.765625 0.4375 -1.359375 C 0.4375 -0.5625 1.1875 0 2.046875 0 C 3.328125 0 4.4375 -0.890625 4.4375 -2.109375 C 4.4375 -3.453125 2.46875 -3.625 2.46875 -4.4375 C 2.46875 -4.9375 2.890625 -5.34375 3.40625 -5.34375 C 3.640625 -5.34375 3.765625 -5.140625 3.765625 -4.875 C 3.765625 -4.5625 3.578125 -4.46875 3.578125 -4.296875 Z M 3.578125 -4.296875 " />
</g>
<g id="glyph-1-1">
<path d="M 5.046875 -4.875 L 6.359375 -4.875 C 6.578125 -4.875 6.734375 -5.046875 6.734375 -5.265625 C 6.734375 -5.484375 6.578125 -5.640625 6.359375 -5.640625 L 5.265625 -5.640625 C 5.578125 -6.953125 5.734375 -8.703125 6.96875 -8.703125 L 7.109375 -8.703125 C 7.34375 -8.703125 7.546875 -8.6875 7.546875 -8.484375 C 7.546875 -7.890625 6.796875 -7.984375 6.796875 -7.390625 C 6.796875 -6.90625 7.1875 -6.53125 7.671875 -6.53125 C 8.359375 -6.53125 8.703125 -7.296875 8.703125 -8.0625 C 8.703125 -8.90625 7.875 -9.4375 6.96875 -9.4375 C 5.078125 -9.4375 3.359375 -7.546875 2.734375 -5.640625 L 1.53125 -5.640625 C 1.3125 -5.640625 1.15625 -5.484375 1.15625 -5.265625 C 1.15625 -5.046875 1.3125 -4.875 1.53125 -4.875 L 2.515625 -4.875 L 1.15625 0.5625 C 0.921875 1.546875 0.65625 2.703125 -0.296875 2.703125 L -0.421875 2.703125 C -0.65625 2.703125 -0.875 2.6875 -0.875 2.484375 C -0.875 1.890625 -0.125 2.015625 -0.125 1.421875 C -0.125 0.9375 -0.515625 0.53125 -1 0.53125 C -1.6875 0.53125 -2.03125 1.296875 -2.03125 2.078125 C -2.03125 2.90625 -1.1875 3.453125 -0.296875 3.453125 C 1.640625 3.453125 3.453125 0.34375 4.046875 -1.640625 Z M 5.046875 -4.875 " />
</g>
<g id="glyph-1-2">
<path d="M 3.203125 -0.640625 C 2.78125 -0.640625 2.609375 -1 2.609375 -1.515625 C 2.609375 -2.75 3.609375 -4.84375 4.640625 -4.84375 C 5 -4.84375 5.140625 -4.546875 5.140625 -4.1875 C 5.140625 -3.859375 4.65625 -0.640625 3.203125 -0.640625 Z M -1.0625 -2.8125 C -1.0625 -2.65625 -0.9375 -2.5625 -0.78125 -2.5625 C -0.59375 -2.5625 -0.390625 -2.671875 -0.296875 -2.90625 C 0.015625 -3.640625 0.625 -4.84375 1.28125 -4.84375 C 1.453125 -4.84375 1.5 -4.71875 1.5 -4.5625 C 1.5 -4.4375 1.453125 -4.296875 1.421875 -4.15625 L -0.625 1.8125 C -0.921875 2.6875 -2.65625 1.96875 -2.65625 2.625 C -2.65625 2.765625 -2.546875 2.90625 -2.375 2.90625 C -2.3125 2.90625 -1.375 2.8125 -0.0625 2.8125 C 1.21875 2.8125 2.21875 2.90625 2.234375 2.90625 C 2.40625 2.90625 2.484375 2.765625 2.484375 2.625 C 2.484375 2.15625 1.328125 2.484375 1.328125 1.8125 C 1.328125 1.75 1.359375 1.6875 1.375 1.65625 L 1.953125 -0.0625 C 1.984375 -0.203125 2.078125 -0.265625 2.171875 -0.265625 C 2.453125 -0.265625 2.96875 0.15625 3.9375 0.15625 C 5.015625 0.15625 7.109375 -1.1875 7.109375 -3.546875 C 7.109375 -4.84375 6.359375 -5.8125 4.984375 -5.8125 C 4.265625 -5.8125 3.5 -5.40625 2.921875 -4.78125 C 2.78125 -5.40625 2.3125 -5.8125 1.609375 -5.8125 C -0.046875 -5.8125 -1.0625 -2.84375 -1.0625 -2.8125 Z M -1.0625 -2.8125 " />
</g>
<g id="glyph-2-0">
<path d="M 2.953125 -3.171875 C 3.375 -3.296875 3.53125 -3.375 3.75 -3.5 C 4.15625 -3.78125 4.40625 -4.25 4.40625 -4.75 C 4.40625 -5.5625 3.75 -6.125 2.765625 -6.125 C 1.8125 -6.125 1.015625 -5.53125 1.015625 -4.828125 C 1.015625 -4.46875 1.234375 -4.21875 1.5625 -4.21875 C 1.859375 -4.21875 2.0625 -4.4375 2.0625 -4.71875 C 2.0625 -4.859375 2.015625 -4.96875 1.875 -5.109375 C 1.796875 -5.1875 1.765625 -5.25 1.765625 -5.3125 C 1.765625 -5.515625 2.1875 -5.734375 2.609375 -5.734375 C 3.1875 -5.734375 3.53125 -5.40625 3.53125 -4.875 C 3.53125 -4.09375 2.984375 -3.375 2.40625 -3.375 C 2.375 -3.375 2.296875 -3.375 2.203125 -3.390625 C 1.953125 -3.40625 1.953125 -3.40625 1.890625 -3.40625 C 1.703125 -3.40625 1.59375 -3.3125 1.59375 -3.15625 C 1.59375 -3.015625 1.703125 -2.9375 1.859375 -2.9375 C 1.890625 -2.9375 1.953125 -2.9375 2.03125 -2.953125 C 2.15625 -2.96875 2.28125 -2.984375 2.359375 -2.984375 C 2.765625 -2.984375 3.046875 -2.625 3.046875 -2.078125 C 3.046875 -1.65625 2.953125 -1.265625 2.765625 -0.9375 C 2.5 -0.46875 2.09375 -0.234375 1.53125 -0.234375 C 1.046875 -0.234375 0.625 -0.484375 0.625 -0.75 C 0.625 -0.859375 0.65625 -0.890625 0.796875 -0.953125 C 1.046875 -1.0625 1.15625 -1.21875 1.15625 -1.453125 C 1.15625 -1.765625 0.90625 -2 0.59375 -2 C 0.21875 -2 -0.015625 -1.703125 -0.015625 -1.25 C -0.015625 -0.40625 0.625 0.125 1.671875 0.125 C 2.984375 0.125 3.984375 -0.75 3.984375 -1.921875 C 3.984375 -2.234375 3.890625 -2.5 3.703125 -2.71875 C 3.515625 -2.9375 3.34375 -3.046875 2.953125 -3.171875 Z M 2.953125 -3.171875 " />
</g>
<g id="glyph-2-1">
<path d="M 0.96875 -3.328125 C 0.703125 -3.171875 0.625 -3.0625 0.625 -2.890625 C 0.625 -2.71875 0.765625 -2.609375 0.9375 -2.609375 C 1.171875 -2.609375 1.296875 -2.765625 1.328125 -3.09375 C 1.59375 -3.3125 1.875 -3.40625 2.234375 -3.40625 C 2.875 -3.40625 3.234375 -3 3.234375 -2.28125 C 3.234375 -1.15625 2.5 -0.21875 1.59375 -0.21875 C 1.09375 -0.21875 0.671875 -0.46875 0.671875 -0.75 C 0.671875 -0.8125 0.671875 -0.828125 0.71875 -0.859375 C 0.953125 -0.953125 0.953125 -0.953125 1.015625 -1 C 1.15625 -1.109375 1.234375 -1.265625 1.234375 -1.4375 C 1.234375 -1.71875 1.015625 -1.9375 0.703125 -1.9375 C 0.328125 -1.9375 0.03125 -1.609375 0.03125 -1.1875 C 0.03125 -0.421875 0.703125 0.125 1.625 0.125 C 3.03125 0.125 4.171875 -0.984375 4.171875 -2.390625 C 4.171875 -3.265625 3.5 -3.875 2.5625 -3.875 C 2.1875 -3.875 1.875 -3.796875 1.46875 -3.59375 L 1.953125 -5.234375 C 2.40625 -5.140625 2.78125 -5.09375 3.09375 -5.09375 C 3.65625 -5.09375 4.171875 -5.28125 4.46875 -5.59375 C 4.609375 -5.765625 4.703125 -5.90625 4.703125 -6.015625 C 4.703125 -6.078125 4.671875 -6.125 4.640625 -6.125 C 4.609375 -6.125 4.59375 -6.125 4.546875 -6.09375 C 4.25 -5.953125 3.890625 -5.875 3.546875 -5.875 C 3.03125 -5.875 2.40625 -5.96875 1.765625 -6.125 Z M 0.96875 -3.328125 " />
</g>
<g id="glyph-2-2">
<path d="M 1.375 -2.921875 C 1.515625 -3.6875 1.703125 -4.15625 2.03125 -4.75 C 2.421875 -5.4375 2.890625 -5.78125 3.40625 -5.78125 C 3.6875 -5.78125 3.84375 -5.671875 3.84375 -5.515625 C 3.84375 -5.453125 3.828125 -5.40625 3.765625 -5.296875 C 3.6875 -5.15625 3.65625 -5.046875 3.65625 -4.921875 C 3.65625 -4.640625 3.859375 -4.453125 4.15625 -4.453125 C 4.515625 -4.453125 4.765625 -4.703125 4.765625 -5.09375 C 4.765625 -5.6875 4.203125 -6.125 3.421875 -6.125 C 2.609375 -6.125 1.875 -5.6875 1.28125 -4.859375 C 0.671875 -4 0.3125 -2.890625 0.3125 -1.921875 C 0.3125 -0.640625 0.953125 0.125 2.015625 0.125 C 2.65625 0.125 3.25 -0.125 3.65625 -0.59375 C 4.046875 -1.03125 4.28125 -1.65625 4.28125 -2.234375 C 4.28125 -3.109375 3.6875 -3.734375 2.8125 -3.734375 C 2.203125 -3.734375 1.734375 -3.46875 1.375 -2.921875 Z M 2.53125 -3.234375 C 3.078125 -3.234375 3.375 -2.859375 3.375 -2.171875 C 3.375 -1.078125 2.78125 -0.21875 2.015625 -0.21875 C 1.453125 -0.21875 1.125 -0.640625 1.125 -1.328125 C 1.125 -2.421875 1.71875 -3.234375 2.53125 -3.234375 Z M 2.53125 -3.234375 " />
</g>
<g id="glyph-3-0">
<path d="M 0 0.5625 C 0 1.359375 0.609375 1.953125 1.609375 1.953125 C 3.125 1.953125 4.578125 0.671875 4.578125 -0.5625 C 4.578125 -1.390625 3.875 -1.953125 2.9375 -1.953125 C 1.53125 -1.953125 0 -0.734375 0 0.5625 Z M 0 0.5625 " />
</g>
<g id="glyph-3-1">
<path d="M -0.703125 0 C -0.703125 0.390625 -0.390625 0.703125 0 0.703125 C 0.390625 0.703125 0.703125 0.390625 0.703125 0 C 0.703125 -0.390625 0.390625 -0.703125 0 -0.703125 C -0.390625 -0.703125 -0.703125 -0.390625 -0.703125 0 Z M -0.703125 0 " />
</g>
<g id="glyph-4-0">
<path d="M 1.984375 0 C 2.265625 -0.28125 2.640625 -0.328125 3.03125 -0.328125 C 3.15625 -0.328125 3.234375 -0.40625 3.234375 -0.53125 L 3.34375 -1.5625 L 3.34375 -1.578125 C 3.34375 -1.6875 3.25 -1.765625 3.15625 -1.765625 L 3.140625 -1.765625 L 2.09375 -1.671875 C 1.984375 -1.65625 1.890625 -1.5625 1.890625 -1.46875 C 1.890625 -1.078125 1.84375 -0.6875 1.5625 -0.40625 C 1.296875 -0.6875 1.234375 -1.078125 1.234375 -1.46875 C 1.234375 -1.5625 1.15625 -1.65625 1.046875 -1.671875 L 0 -1.765625 L -0.015625 -1.765625 C -0.109375 -1.765625 -0.203125 -1.6875 -0.203125 -1.578125 L -0.203125 -1.5625 L -0.09375 -0.53125 C -0.09375 -0.40625 -0.015625 -0.328125 0.09375 -0.328125 C 0.484375 -0.328125 0.875 -0.28125 1.15625 0 C 0.875 0.28125 0.484375 0.328125 0.09375 0.328125 C -0.015625 0.328125 -0.09375 0.40625 -0.09375 0.53125 L -0.203125 1.5625 L -0.203125 1.578125 C -0.203125 1.6875 -0.109375 1.765625 -0.015625 1.765625 L 0 1.765625 L 1.046875 1.671875 C 1.15625 1.65625 1.234375 1.5625 1.234375 1.46875 C 1.234375 1.078125 1.296875 0.6875 1.5625 0.40625 C 1.84375 0.6875 1.890625 1.078125 1.890625 1.46875 C 1.890625 1.5625 1.984375 1.65625 2.09375 1.671875 L 3.140625 1.765625 L 3.15625 1.765625 C 3.25 1.765625 3.34375 1.6875 3.34375 1.578125 L 3.34375 1.5625 L 3.234375 0.53125 C 3.234375 0.40625 3.15625 0.328125 3.03125 0.328125 C 2.640625 0.328125 2.265625 0.28125 1.984375 0 Z M 1.984375 0 " />
</g>
<g id="glyph-4-1">
<path d="M 0 -1.40625 L 0 -0.828125 C 0 -0.609375 0.1875 -0.421875 0.40625 -0.421875 C 0.453125 -0.421875 0.5 -0.4375 0.546875 -0.46875 L 0.671875 -0.515625 L 0.671875 1.34375 L 0.25 1.515625 C 0.09375 1.578125 0 1.71875 0 1.875 L 0 2.453125 C 0 2.6875 0.1875 2.859375 0.40625 2.859375 C 0.453125 2.859375 0.5 2.859375 0.546875 2.828125 L 0.671875 2.78125 L 0.671875 4.40625 C 0.671875 4.5625 0.796875 4.703125 0.96875 4.703125 C 1.125 4.703125 1.265625 4.5625 1.265625 4.40625 L 1.265625 2.546875 L 2.1875 2.1875 L 2.1875 3.796875 C 2.1875 3.96875 2.328125 4.109375 2.484375 4.109375 C 2.640625 4.109375 2.765625 3.96875 2.765625 3.796875 L 2.765625 1.9375 L 3.203125 1.78125 C 3.34375 1.71875 3.453125 1.5625 3.453125 1.40625 L 3.453125 0.828125 C 3.453125 0.609375 3.265625 0.421875 3.046875 0.421875 C 3 0.421875 2.953125 0.4375 2.890625 0.46875 L 2.765625 0.515625 L 2.765625 -1.34375 L 3.203125 -1.515625 C 3.34375 -1.578125 3.453125 -1.71875 3.453125 -1.875 L 3.453125 -2.453125 C 3.453125 -2.6875 3.265625 -2.859375 3.046875 -2.859375 C 3 -2.859375 2.953125 -2.859375 2.890625 -2.828125 L 2.765625 -2.78125 L 2.765625 -4.40625 C 2.765625 -4.5625 2.640625 -4.703125 2.484375 -4.703125 C 2.328125 -4.703125 2.1875 -4.5625 2.1875 -4.40625 L 2.1875 -2.546875 L 1.265625 -2.1875 L 1.265625 -3.796875 C 1.265625 -3.96875 1.125 -4.109375 0.96875 -4.109375 C 0.796875 -4.109375 0.671875 -3.96875 0.671875 -3.796875 L 0.671875 -1.9375 L 0.25 -1.78125 C 0.09375 -1.71875 0 -1.5625 0 -1.40625 Z M 2.1875 -1.109375 L 2.1875 0.734375 L 1.265625 1.109375 L 1.265625 -0.734375 Z M 2.1875 -1.109375 " />
</g>
<g id="glyph-5-0">
<path d="M -1.828125 10.125 C -1.828125 17.125 -4.625 25.1875 -4.625 32.828125 C -4.625 42.234375 0 46.0625 0 46.0625 C 0.15625 46.0625 0.390625 45.90625 0.390625 45.65625 C 0.390625 45.578125 -2.953125 42.390625 -2.953125 35.375 C -2.953125 28.53125 -0.234375 20.484375 -0.234375 12.984375 C -0.234375 8.359375 -1.28125 3.90625 -4.546875 0 C -1.28125 -3.90625 -0.234375 -8.359375 -0.234375 -12.984375 C -0.234375 -20.484375 -2.953125 -28.53125 -2.953125 -35.375 C -2.953125 -42.875 0.390625 -45.109375 0.390625 -45.65625 C 0.390625 -45.90625 0.15625 -46.0625 0 -46.0625 C -0.15625 -46.0625 -4.625 -42 -4.625 -32.828125 C -4.625 -25.1875 -1.828125 -17.125 -1.828125 -10.125 C -1.828125 -2.78125 -5.09375 -0.484375 -5.09375 0 C -5.09375 0.078125 -1.828125 3.109375 -1.828125 10.125 Z M -1.828125 10.125 " />
</g>
</g>
</defs>
<path fill="none" stroke-width="0.1" stroke-linecap="round" stroke-linejoin="miter" stroke="#ffffff" stroke-opacity="1" stroke-miterlimit="10" d="M 1.757347 -13.423588 L 10734.53772 -13.423588 " transform="matrix(4.98132, 0, 0, -4.98132, 0, 0)" />
<path fill="none" stroke-width="0.1" stroke-linecap="round" stroke-linejoin="miter" stroke="#ffffff" stroke-opacity="1" stroke-miterlimit="10" d="M 1.757347 -12.422975 L 10734.53772 -12.422975 " transform="matrix(4.98132, 0, 0, -4.98132, 0, 0)" />
<path fill="none" stroke-width="0.1" stroke-linecap="round" stroke-linejoin="miter" stroke="#ffffff" stroke-opacity="1" stroke-miterlimit="10" d="M 1.757347 -11.423146 L 10734.53772 -11.423146 " transform="matrix(4.98132, 0, 0, -4.98132, 0, 0)" />
<path fill="none" stroke-width="0.1" stroke-linecap="round" stroke-linejoin="miter" stroke="#ffffff" stroke-opacity="1" stroke-miterlimit="10" d="M 1.757347 -10.423316 L 10734.53772 -10.423316 " transform="matrix(4.98132, 0, 0, -4.98132, 0, 0)" />
<path fill="none" stroke-width="0.1" stroke-linecap="round" stroke-linejoin="miter" stroke="#ffffff" stroke-opacity="1" stroke-miterlimit="10" d="M 1.757347 -9.423487 L 10734.53772 -9.423487 " transform="matrix(4.98132, 0, 0, -4.98132, 0, 0)" />
<path fill-rule="nonzero" fill="#ffffff" fill-opacity="1" d="M 50323.613281 114.140625 C 50323.886719 114.140625 50324.109375 113.914062 50324.109375 113.640625 C 50324.109375 113.367188 50323.886719 113.140625 50323.613281 113.140625 L 50314.863281 113.140625 C 50314.589844 113.140625 50314.363281 113.367188 50314.363281 113.640625 C 50314.363281 113.914062 50314.589844 114.140625 50314.863281 114.140625 Z M 50323.613281 114.140625 " />
<path fill-rule="nonzero" fill="#ffffff" fill-opacity="1" d="M 50287.4375 114.140625 C 50287.710938 114.140625 50287.933594 113.914062 50287.933594 113.640625 C 50287.933594 113.367188 50287.710938 113.140625 50287.4375 113.140625 L 50278.6875 113.140625 C 50278.414062 113.140625 50278.1875 113.367188 50278.1875 113.640625 C 50278.1875 113.914062 50278.414062 114.140625 50278.6875 114.140625 Z M 50287.4375 114.140625 " />
<path fill-rule="nonzero" fill="#ffffff" fill-opacity="1" d="M 50276.207031 109.160156 C 50276.480469 109.160156 50276.703125 108.933594 50276.703125 108.660156 C 50276.703125 108.386719 50276.480469 108.160156 50276.207031 108.160156 L 50267.457031 108.160156 C 50267.183594 108.160156 50266.957031 108.386719 50266.957031 108.660156 C 50266.957031 108.933594 50267.183594 109.160156 50267.457031 109.160156 Z M 50276.207031 109.160156 " />
<path fill-rule="nonzero" fill="#ffffff" fill-opacity="1" d="M 50276.207031 114.140625 C 50276.480469 114.140625 50276.703125 113.914062 50276.703125 113.640625 C 50276.703125 113.367188 50276.480469 113.140625 50276.207031 113.140625 L 50267.457031 113.140625 C 50267.183594 113.140625 50266.957031 113.367188 50266.957031 113.640625 C 50266.957031 113.914062 50267.183594 114.140625 50267.457031 114.140625 Z M 50276.207031 114.140625 " />
<path fill-rule="nonzero" fill="#ffffff" fill-opacity="1" d="M 50216.683594 144.027344 C 50216.957031 144.027344 50217.179688 143.800781 50217.179688 143.527344 C 50217.179688 143.253906 50216.957031 143.027344 50216.683594 143.027344 L 50203.019531 143.027344 C 50202.746094 143.027344 50202.519531 143.253906 50202.519531 143.527344 C 50202.519531 143.800781 50202.746094 144.027344 50203.019531 144.027344 Z M 50216.683594 144.027344 " />
<path fill-rule="nonzero" fill="#ffffff" fill-opacity="1" d="M 50216.683594 149.011719 C 50216.957031 149.011719 50217.179688 148.785156 50217.179688 148.511719 C 50217.179688 148.238281 50216.957031 148.011719 50216.683594 148.011719 L 50203.019531 148.011719 C 50202.746094 148.011719 50202.519531 148.238281 50202.519531 148.511719 C 50202.519531 148.785156 50202.746094 149.011719 50203.019531 149.011719 Z M 50216.683594 149.011719 " />
<path fill-rule="nonzero" fill="#ffffff" fill-opacity="1" d="M 50216.683594 153.992188 C 50216.957031 153.992188 50217.179688 153.765625 50217.179688 153.492188 C 50217.179688 153.21875 50216.957031 152.992188 50216.683594 152.992188 L 50203.019531 152.992188 C 50202.746094 152.992188 50202.519531 153.21875 50202.519531 153.492188 C 50202.519531 153.765625 50202.746094 153.992188 50203.019531 153.992188 Z M 50216.683594 153.992188 " />
<path fill="none" stroke-width="0.1" stroke-linecap="round" stroke-linejoin="miter" stroke="#ffffff" stroke-opacity="1" stroke-miterlimit="10" d="M 1.757347 -27.813285 L 10734.53772 -27.813285 " transform="matrix(4.98132, 0, 0, -4.98132, 0, 0)" />
<path fill="none" stroke-width="0.1" stroke-linecap="round" stroke-linejoin="miter" stroke="#ffffff" stroke-opacity="1" stroke-miterlimit="10" d="M 1.757347 -26.813456 L 10734.53772 -26.813456 " transform="matrix(4.98132, 0, 0, -4.98132, 0, 0)" />
<path fill="none" stroke-width="0.1" stroke-linecap="round" stroke-linejoin="miter" stroke="#ffffff" stroke-opacity="1" stroke-miterlimit="10" d="M 1.757347 -25.813627 L 10734.53772 -25.813627 " transform="matrix(4.98132, 0, 0, -4.98132, 0, 0)" />
<path fill="none" stroke-width="0.1" stroke-linecap="round" stroke-linejoin="miter" stroke="#ffffff" stroke-opacity="1" stroke-miterlimit="10" d="M 1.757347 -24.813798 L 10734.53772 -24.813798 " transform="matrix(4.98132, 0, 0, -4.98132, 0, 0)" />
<path fill="none" stroke-width="0.1" stroke-linecap="round" stroke-linejoin="miter" stroke="#ffffff" stroke-opacity="1" stroke-miterlimit="10" d="M 1.757347 -23.813185 L 10734.53772 -23.813185 " transform="matrix(4.98132, 0, 0, -4.98132, 0, 0)" />
<path fill-rule="nonzero" fill="#ffffff" fill-opacity="1" d="M 50630.636719 118.621094 L 50630.636719 67.113281 L 50631.582031 67.113281 L 50631.582031 118.621094 Z M 50630.636719 118.621094 " />
<path fill-rule="nonzero" fill="#ffffff" fill-opacity="1" d="M 50630.636719 138.546875 L 50630.636719 118.371094 L 50631.582031 118.371094 L 50631.582031 138.546875 Z M 50630.636719 138.546875 " />
<path fill-rule="nonzero" fill="#ffffff" fill-opacity="1" d="M 50630.636719 67.113281 L 50630.636719 46.9375 L 50631.582031 46.9375 L 50631.582031 67.113281 Z M 50630.636719 67.113281 " />
<path fill-rule="nonzero" fill="#ffffff" fill-opacity="1" d="M 50399.167969 118.621094 L 50399.167969 67.113281 L 50400.113281 67.113281 L 50400.113281 118.621094 Z M 50399.167969 118.621094 " />
<path fill-rule="nonzero" fill="#ffffff" fill-opacity="1" d="M 50399.167969 138.546875 L 50399.167969 118.371094 L 50400.113281 118.371094 L 50400.113281 138.546875 Z M 50399.167969 138.546875 " />
<path fill-rule="nonzero" fill="#ffffff" fill-opacity="1" d="M 50399.167969 67.113281 L 50399.167969 46.9375 L 50400.113281 46.9375 L 50400.113281 67.113281 Z M 50399.167969 67.113281 " />
<path fill-rule="nonzero" fill="#ffffff" fill-opacity="1" d="M 50199.535156 118.621094 L 50199.535156 67.113281 L 50200.480469 67.113281 L 50200.480469 118.621094 Z M 50199.535156 118.621094 " />
<path fill-rule="nonzero" fill="#ffffff" fill-opacity="1" d="M 50199.535156 138.546875 L 50199.535156 118.371094 L 50200.480469 118.371094 L 50200.480469 138.546875 Z M 50199.535156 138.546875 " />
<path fill-rule="nonzero" fill="#ffffff" fill-opacity="1" d="M 50199.535156 67.113281 L 50199.535156 46.9375 L 50200.480469 46.9375 L 50200.480469 67.113281 Z M 50199.535156 67.113281 " />
<path fill-rule="nonzero" fill="#ffffff" fill-opacity="1" d="M 50678.304688 72.347656 C 50678.578125 72.347656 50678.800781 72.121094 50678.800781 71.847656 C 50678.800781 71.574219 50678.578125 71.347656 50678.304688 71.347656 L 50670.207031 71.347656 C 50669.933594 71.347656 50669.707031 71.574219 50669.707031 71.847656 C 50669.707031 72.121094 50669.933594 72.347656 50670.207031 72.347656 Z M 50678.304688 72.347656 " />
<path fill-rule="nonzero" fill="#ffffff" fill-opacity="1" d="M 50661.894531 72.347656 C 50662.167969 72.347656 50662.390625 72.121094 50662.390625 71.847656 C 50662.390625 71.574219 50662.167969 71.347656 50661.894531 71.347656 L 50653.144531 71.347656 C 50652.871094 71.347656 50652.644531 71.574219 50652.644531 71.847656 C 50652.644531 72.121094 50652.871094 72.347656 50653.144531 72.347656 Z M 50661.894531 72.347656 " />
<path fill-rule="nonzero" fill="#ffffff" fill-opacity="1" d="M 50649.417969 72.347656 C 50649.691406 72.347656 50649.917969 72.121094 50649.917969 71.847656 C 50649.917969 71.574219 50649.691406 71.347656 50649.417969 71.347656 L 50641.421875 71.347656 C 50641.148438 71.347656 50640.921875 71.574219 50640.921875 71.847656 C 50640.921875 72.121094 50641.148438 72.347656 50641.421875 72.347656 Z M 50649.417969 72.347656 " />
<path fill-rule="nonzero" fill="#ffffff" fill-opacity="1" d="M 50248.769531 72.347656 C 50249.042969 72.347656 50249.265625 72.121094 50249.265625 71.847656 C 50249.265625 71.574219 50249.042969 71.347656 50248.769531 71.347656 L 50240.019531 71.347656 C 50239.746094 71.347656 50239.519531 71.574219 50239.519531 71.847656 C 50239.519531 72.121094 50239.746094 72.347656 50240.019531 72.347656 Z M 50248.769531 72.347656 " />
<path fill-rule="nonzero" fill="#ffffff" fill-opacity="1" d="M 50212.589844 72.347656 C 50212.863281 72.347656 50213.085938 72.121094 50213.085938 71.847656 C 50213.085938 71.574219 50212.863281 71.347656 50212.589844 71.347656 L 50203.839844 71.347656 C 50203.566406 71.347656 50203.339844 71.574219 50203.339844 71.847656 C 50203.339844 72.121094 50203.566406 72.347656 50203.839844 72.347656 Z M 50212.589844 72.347656 " />
<path fill="none" stroke-width="0.08" stroke-linecap="butt" stroke-linejoin="round" stroke="#ffffff" stroke-opacity="1" stroke-miterlimit="10" d="M 10175.906931 -10.223351 L 10175.906931 -10.623282 L 10167.554633 -10.813054 L 10167.554633 -10.413122 Z M 10175.906931 -10.223351 " transform="matrix(4.98132, 0, 0, -4.98132, 0, 0)" />
<path fill-rule="nonzero" fill="#ffffff" fill-opacity="1" d="M 50689.449219 50.925781 L 50689.449219 52.917969 L 50647.84375 53.863281 L 50647.84375 51.871094 Z M 50689.449219 50.925781 " />
<path fill="none" stroke-width="0.08" stroke-linecap="butt" stroke-linejoin="round" stroke="#ffffff" stroke-opacity="1" stroke-miterlimit="10" d="M 10175.906931 -11.033408 L 10175.906931 -11.43334 L 10167.554633 -11.623111 L 10167.554633 -11.22318 Z M 10175.906931 -11.033408 " transform="matrix(4.98132, 0, 0, -4.98132, 0, 0)" />
<path fill-rule="nonzero" fill="#ffffff" fill-opacity="1" d="M 50689.449219 54.960938 L 50689.449219 56.953125 L 50647.84375 57.898438 L 50647.84375 55.90625 Z M 50689.449219 54.960938 " />
<path fill="none" stroke-width="0.08" stroke-linecap="butt" stroke-linejoin="round" stroke="#ffffff" stroke-opacity="1" stroke-miterlimit="10" d="M 10162.964829 -20.113425 L 10162.964829 -20.513356 L 10154.117714 -21.013663 L 10154.117714 -20.613731 Z M 10162.964829 -20.113425 " transform="matrix(4.98132, 0, 0, -4.98132, 0, 0)" />
<path fill-rule="nonzero" fill="#ffffff" fill-opacity="1" d="M 50624.980469 100.191406 L 50624.980469 102.183594 L 50580.910156 104.675781 L 50580.910156 102.683594 Z M 50624.980469 100.191406 " />
<path fill="none" stroke-width="0.08" stroke-linecap="butt" stroke-linejoin="round" stroke="#ffffff" stroke-opacity="1" stroke-miterlimit="10" d="M 10162.964829 -20.923482 L 10162.964829 -21.323414 L 10154.117714 -21.823721 L 10154.117714 -21.423789 Z M 10162.964829 -20.923482 " transform="matrix(4.98132, 0, 0, -4.98132, 0, 0)" />
<path fill-rule="nonzero" fill="#ffffff" fill-opacity="1" d="M 50624.980469 104.226562 L 50624.980469 106.21875 L 50580.910156 108.710938 L 50580.910156 106.71875 Z M 50624.980469 104.226562 " />
<path fill="none" stroke-width="0.08" stroke-linecap="butt" stroke-linejoin="round" stroke="#ffffff" stroke-opacity="1" stroke-miterlimit="10" d="M 10151.663231 -21.804116 L 10151.663231 -22.204048 L 10142.460883 -22.513799 L 10142.460883 -22.113867 Z M 10151.663231 -21.804116 " transform="matrix(4.98132, 0, 0, -4.98132, 0, 0)" />
<path fill-rule="nonzero" fill="#ffffff" fill-opacity="1" d="M 50568.683594 108.613281 L 50568.683594 110.605469 L 50522.84375 112.148438 L 50522.84375 110.15625 Z M 50568.683594 108.613281 " />
<path fill="none" stroke-width="0.08" stroke-linecap="butt" stroke-linejoin="round" stroke="#ffffff" stroke-opacity="1" stroke-miterlimit="10" d="M 10151.663231 -22.61339 L 10151.663231 -23.013321 L 10142.460883 -23.323072 L 10142.460883 -22.923141 Z M 10151.663231 -22.61339 " transform="matrix(4.98132, 0, 0, -4.98132, 0, 0)" />
<path fill-rule="nonzero" fill="#ffffff" fill-opacity="1" d="M 50568.683594 112.644531 L 50568.683594 114.636719 L 50522.84375 116.179688 L 50522.84375 114.1875 Z M 50568.683594 112.644531 " />
<path fill="none" stroke-width="0.08" stroke-linecap="butt" stroke-linejoin="round" stroke="#ffffff" stroke-opacity="1" stroke-miterlimit="10" d="M 10140.0064 -22.113083 L 10140.0064 -22.513015 L 10131.654103 -23.013321 L 10131.654103 -22.61339 Z M 10140.0064 -22.113083 " transform="matrix(4.98132, 0, 0, -4.98132, 0, 0)" />
<path fill-rule="nonzero" fill="#ffffff" fill-opacity="1" d="M 50510.617188 110.152344 L 50510.617188 112.144531 L 50469.011719 114.636719 L 50469.011719 112.644531 Z M 50510.617188 110.152344 " />
<path fill="none" stroke-width="0.08" stroke-linecap="butt" stroke-linejoin="round" stroke="#ffffff" stroke-opacity="1" stroke-miterlimit="10" d="M 10140.0064 -22.923141 L 10140.0064 -23.323072 L 10131.654103 -23.823379 L 10131.654103 -23.423447 Z M 10140.0064 -22.923141 " transform="matrix(4.98132, 0, 0, -4.98132, 0, 0)" />
<path fill-rule="nonzero" fill="#ffffff" fill-opacity="1" d="M 50510.617188 114.1875 L 50510.617188 116.179688 L 50469.011719 118.671875 L 50469.011719 116.679688 Z M 50510.617188 114.1875 " />
<path fill="none" stroke-width="0.08" stroke-linecap="butt" stroke-linejoin="round" stroke="#ffffff" stroke-opacity="1" stroke-miterlimit="10" d="M 10128.349569 -23.614003 L 10128.349569 -24.013935 L 10119.93689 -24.203706 L 10119.93689 -23.803774 Z M 10128.349569 -23.614003 " transform="matrix(4.98132, 0, 0, -4.98132, 0, 0)" />
<path fill-rule="nonzero" fill="#ffffff" fill-opacity="1" d="M 50452.550781 117.628906 L 50452.550781 119.621094 L 50410.644531 120.566406 L 50410.644531 118.574219 Z M 50452.550781 117.628906 " />
<path fill="none" stroke-width="0.08" stroke-linecap="butt" stroke-linejoin="round" stroke="#ffffff" stroke-opacity="1" stroke-miterlimit="10" d="M 10128.349569 -24.424061 L 10128.349569 -24.823992 L 10119.93689 -25.013764 L 10119.93689 -24.613832 Z M 10128.349569 -24.424061 " transform="matrix(4.98132, 0, 0, -4.98132, 0, 0)" />
<path fill-rule="nonzero" fill="#ffffff" fill-opacity="1" d="M 50452.550781 121.664062 L 50452.550781 123.65625 L 50410.644531 124.601562 L 50410.644531 122.609375 Z M 50452.550781 121.664062 " />
<path fill="none" stroke-width="0.08" stroke-linecap="butt" stroke-linejoin="round" stroke="#ffffff" stroke-opacity="1" stroke-miterlimit="10" d="M 10116.223799 -21.803332 L 10116.223799 -22.203264 L 10108.911323 -22.203264 L 10108.911323 -21.803332 Z M 10116.223799 -21.803332 " transform="matrix(4.98132, 0, 0, -4.98132, 0, 0)" />
<path fill-rule="nonzero" fill="#ffffff" fill-opacity="1" d="M 50392.148438 108.609375 L 50392.148438 110.601562 L 50355.722656 110.601562 L 50355.722656 108.609375 Z M 50392.148438 108.609375 " />
<path fill="none" stroke-width="0.08" stroke-linecap="butt" stroke-linejoin="round" stroke="#ffffff" stroke-opacity="1" stroke-miterlimit="10" d="M 10116.223799 -22.61339 L 10116.223799 -23.013321 L 10108.911323 -23.013321 L 10108.911323 -22.61339 Z M 10116.223799 -22.61339 " transform="matrix(4.98132, 0, 0, -4.98132, 0, 0)" />
<path fill-rule="nonzero" fill="#ffffff" fill-opacity="1" d="M 50392.148438 112.644531 L 50392.148438 114.636719 L 50355.722656 114.636719 L 50355.722656 112.644531 Z M 50392.148438 112.644531 " />
<path fill="none" stroke-width="0.08" stroke-linecap="round" stroke-linejoin="round" stroke="#ffffff" stroke-opacity="1" stroke-miterlimit="10" d="M 1.500136 2.499965 C 27.989726 12.059115 63.989847 21.059146 95.499755 18.749736 C 64.010235 20.940734 28.010114 11.940704 1.500136 2.499965 Z M 1.500136 2.499965 " transform="matrix(4.98132, 0, 0, -4.98132, 50404.597656, 128.585938)" />
<path fill-rule="nonzero" fill="#ffffff" fill-opacity="1" d="M 50412.070312 116.132812 C 50544.023438 68.515625 50723.351562 23.683594 50880.3125 35.1875 C 50723.453125 24.273438 50544.125 69.105469 50412.070312 116.132812 Z M 50412.070312 116.132812 " />
<path fill="none" stroke-width="0.08" stroke-linecap="butt" stroke-linejoin="round" stroke="#ffffff" stroke-opacity="1" stroke-miterlimit="10" d="M 10106.706994 -20.113425 L 10106.706994 -20.513356 L 10099.394519 -20.513356 L 10099.394519 -20.113425 Z M 10106.706994 -20.113425 " transform="matrix(4.98132, 0, 0, -4.98132, 0, 0)" />
<path fill-rule="nonzero" fill="#ffffff" fill-opacity="1" d="M 50344.742188 100.191406 L 50344.742188 102.183594 L 50308.316406 102.183594 L 50308.316406 100.191406 Z M 50344.742188 100.191406 " />
<path fill="none" stroke-width="0.08" stroke-linecap="butt" stroke-linejoin="round" stroke="#ffffff" stroke-opacity="1" stroke-miterlimit="10" d="M 10106.706994 -20.923482 L 10106.706994 -21.323414 L 10099.394519 -21.323414 L 10099.394519 -20.923482 Z M 10106.706994 -20.923482 " transform="matrix(4.98132, 0, 0, -4.98132, 0, 0)" />
<path fill-rule="nonzero" fill="#ffffff" fill-opacity="1" d="M 50344.742188 104.226562 L 50344.742188 106.21875 L 50308.316406 106.21875 L 50308.316406 104.226562 Z M 50344.742188 104.226562 " />
<path fill="none" stroke-width="0.08" stroke-linecap="butt" stroke-linejoin="round" stroke="#ffffff" stroke-opacity="1" stroke-miterlimit="10" d="M 10097.190189 -19.113596 L 10097.190189 -19.513527 L 10089.877714 -19.513527 L 10089.877714 -19.113596 Z M 10097.190189 -19.113596 " transform="matrix(4.98132, 0, 0, -4.98132, 0, 0)" />
<path fill-rule="nonzero" fill="#ffffff" fill-opacity="1" d="M 50297.335938 95.210938 L 50297.335938 97.203125 L 50260.910156 97.203125 L 50260.910156 95.210938 Z M 50297.335938 95.210938 " />
<path fill="none" stroke-width="0.08" stroke-linecap="butt" stroke-linejoin="round" stroke="#ffffff" stroke-opacity="1" stroke-miterlimit="10" d="M 10097.190189 -19.923653 L 10097.190189 -20.323585 L 10089.877714 -20.323585 L 10089.877714 -19.923653 Z M 10097.190189 -19.923653 " transform="matrix(4.98132, 0, 0, -4.98132, 0, 0)" />
<path fill-rule="nonzero" fill="#ffffff" fill-opacity="1" d="M 50297.335938 99.246094 L 50297.335938 101.238281 L 50260.910156 101.238281 L 50260.910156 99.246094 Z M 50297.335938 99.246094 " />
<path fill="none" stroke-width="0.08" stroke-linecap="butt" stroke-linejoin="round" stroke="#ffffff" stroke-opacity="1" stroke-miterlimit="10" d="M 10087.173862 -9.413293 L 10087.173862 -9.813225 L 10079.861387 -9.813225 L 10079.861387 -9.413293 Z M 10087.173862 -9.413293 " transform="matrix(4.98132, 0, 0, -4.98132, 0, 0)" />
<path fill-rule="nonzero" fill="#ffffff" fill-opacity="1" d="M 50247.441406 46.890625 L 50247.441406 48.882812 L 50211.015625 48.882812 L 50211.015625 46.890625 Z M 50247.441406 46.890625 " />
<path fill="none" stroke-width="0.08" stroke-linecap="butt" stroke-linejoin="round" stroke="#ffffff" stroke-opacity="1" stroke-miterlimit="10" d="M 10087.173862 -10.223351 L 10087.173862 -10.623282 L 10079.861387 -10.623282 L 10079.861387 -10.223351 Z M 10087.173862 -10.223351 " transform="matrix(4.98132, 0, 0, -4.98132, 0, 0)" />
<path fill-rule="nonzero" fill="#ffffff" fill-opacity="1" d="M 50247.441406 50.925781 L 50247.441406 52.917969 L 50211.015625 52.917969 L 50211.015625 50.925781 Z M 50247.441406 50.925781 " />
<path fill="none" stroke-width="0.08" stroke-linecap="butt" stroke-linejoin="round" stroke="#ffffff" stroke-opacity="1" stroke-miterlimit="10" d="M 10076.066741 -8.413464 L 10076.066741 -8.813396 L 10068.754266 -8.813396 L 10068.754266 -8.413464 Z M 10076.066741 -8.413464 " transform="matrix(4.98132, 0, 0, -4.98132, 0, 0)" />
<path fill-rule="nonzero" fill="#ffffff" fill-opacity="1" d="M 50192.113281 41.910156 L 50192.113281 43.902344 L 50155.6875 43.902344 L 50155.6875 41.910156 Z M 50192.113281 41.910156 " />
<path fill="none" stroke-width="0.08" stroke-linecap="butt" stroke-linejoin="round" stroke="#ffffff" stroke-opacity="1" stroke-miterlimit="10" d="M 10076.066741 -9.223521 L 10076.066741 -9.623453 L 10068.754266 -9.623453 L 10068.754266 -9.223521 Z M 10076.066741 -9.223521 " transform="matrix(4.98132, 0, 0, -4.98132, 0, 0)" />
<path fill-rule="nonzero" fill="#ffffff" fill-opacity="1" d="M 50192.113281 45.945312 L 50192.113281 47.9375 L 50155.6875 47.9375 L 50155.6875 45.945312 Z M 50192.113281 45.945312 " />
<path fill="none" stroke-width="0.08" stroke-linecap="round" stroke-linejoin="round" stroke="#ffffff" stroke-opacity="1" stroke-miterlimit="10" d="M 2.161983 -5.999759 C 3.855027 -7.024682 34.644274 -7.024682 36.337318 -5.999759 C 34.644274 -6.904702 3.855027 -6.904702 2.161983 -5.999759 Z M 2.161983 -5.999759 " transform="matrix(4.98132, 0, 0, -4.98132, 50022.960938, 128.585938)" />
<path fill-rule="nonzero" fill="#ffffff" fill-opacity="1" d="M 50033.730469 158.472656 C 50042.164062 163.578125 50195.535156 163.578125 50203.96875 158.472656 C 50195.535156 162.980469 50042.164062 162.980469 50033.730469 158.472656 Z M 50033.730469 158.472656 " />
<path fill="none" stroke-width="0.08" stroke-linecap="round" stroke-linejoin="round" stroke="#ffffff" stroke-opacity="1" stroke-miterlimit="10" d="M 2.161983 -4.499623 C 3.855027 -5.524546 34.644274 -5.524546 36.337318 -4.499623 C 34.644274 -5.404566 3.855027 -5.404566 2.161983 -4.499623 Z M 2.161983 -4.499623 " transform="matrix(4.98132, 0, 0, -4.98132, 50022.960938, 128.585938)" />
<path fill-rule="nonzero" fill="#ffffff" fill-opacity="1" d="M 50033.730469 151 C 50042.164062 156.105469 50195.535156 156.105469 50203.96875 151 C 50195.535156 155.507812 50042.164062 155.507812 50033.730469 151 Z M 50033.730469 151 " />
<path fill="none" stroke-width="0.08" stroke-linecap="round" stroke-linejoin="round" stroke="#ffffff" stroke-opacity="1" stroke-miterlimit="10" d="M 2.161983 -2.499965 C 3.855027 -3.524104 34.644274 -3.524104 36.337318 -2.499965 C 34.644274 -3.404124 3.855027 -3.404124 2.161983 -2.499965 Z M 2.161983 -2.499965 " transform="matrix(4.98132, 0, 0, -4.98132, 50022.960938, 128.585938)" />
<path fill-rule="nonzero" fill="#ffffff" fill-opacity="1" d="M 50033.730469 141.039062 C 50042.164062 146.140625 50195.535156 146.140625 50203.96875 141.039062 C 50195.535156 145.542969 50042.164062 145.542969 50033.730469 141.039062 Z M 50033.730469 141.039062 " />
<path fill="none" stroke-width="0.08" stroke-linecap="round" stroke-linejoin="round" stroke="#ffffff" stroke-opacity="1" stroke-miterlimit="10" d="M 1.999658 5.500236 C 30.008204 11.059286 80.008285 4.059698 94.499926 -7.499895 C 79.991817 3.940503 29.991736 10.940875 1.999658 5.500236 Z M 1.999658 5.500236 " transform="matrix(4.98132, 0, 0, -4.98132, 50022.960938, 56.902344)" />
<path fill-rule="nonzero" fill="#ffffff" fill-opacity="1" d="M 50032.921875 29.503906 C 50172.441406 1.8125 50421.507812 36.679688 50493.695312 94.261719 C 50421.425781 37.273438 50172.359375 2.402344 50032.921875 29.503906 Z M 50032.921875 29.503906 " />
<g fill="#ffffff" fill-opacity="1">
<use xlink:href="#glyph-0-2" x="50149.640625" y="66.867188" />
</g>
<g fill="#ffffff" fill-opacity="1">
<use xlink:href="#glyph-0-2" x="50163.359375" y="54.414062" />
</g>
<g fill="#ffffff" fill-opacity="1">
<use xlink:href="#glyph-0-2" x="50174.589844" y="61.882812" />
</g>
<path fill-rule="nonzero" fill="#ffffff" fill-opacity="1" d="M 50180.886719 60.957031 C 50180.996094 60.957031 50181.085938 60.867188 50181.085938 60.757812 L 50181.085938 43.105469 C 50181.085938 42.996094 50180.996094 42.90625 50180.886719 42.90625 L 50180.636719 42.90625 C 50180.527344 42.90625 50180.4375 42.996094 50180.4375 43.105469 L 50180.4375 60.757812 C 50180.4375 60.867188 50180.527344 60.957031 50180.636719 60.957031 Z M 50180.886719 60.957031 " />
<g fill="#ffffff" fill-opacity="1">
<use xlink:href="#glyph-0-2" x="50185.816406" y="66.867188" />
</g>
<path fill-rule="nonzero" fill="#ffffff" fill-opacity="1" d="M 50192.113281 65.9375 C 50192.222656 65.9375 50192.3125 65.847656 50192.3125 65.738281 L 50192.3125 43.105469 C 50192.3125 42.992188 50192.222656 42.90625 50192.113281 42.90625 L 50191.863281 42.90625 C 50191.753906 42.90625 50191.664062 42.992188 50191.664062 43.105469 L 50191.664062 65.738281 C 50191.664062 65.847656 50191.753906 65.9375 50191.863281 65.9375 Z M 50192.113281 65.9375 " />
<g fill="#ffffff" fill-opacity="1">
<use xlink:href="#glyph-0-2" x="50204.964844" y="71.847656" />
</g>
<g fill="#ffffff" fill-opacity="1">
<use xlink:href="#glyph-0-15" x="50204.964844" y="138.546875" />
</g>
<g fill="#ffffff" fill-opacity="1">
<use xlink:href="#glyph-0-15" x="50204.964844" y="148.511719" />
</g>
<g fill="#ffffff" fill-opacity="1">
<use xlink:href="#glyph-0-15" x="50204.964844" y="155.984375" />
</g>
<path fill-rule="nonzero" fill="#ffffff" fill-opacity="1" d="M 50211.265625 70.917969 C 50211.375 70.917969 50211.464844 70.828125 50211.464844 70.71875 L 50211.464844 48.085938 C 50211.464844 47.972656 50211.375 47.886719 50211.265625 47.886719 L 50211.015625 47.886719 C 50210.90625 47.886719 50210.816406 47.972656 50210.816406 48.085938 L 50210.816406 70.71875 C 50210.816406 70.828125 50210.90625 70.917969 50211.015625 70.917969 Z M 50211.265625 70.917969 " />
<g fill="#ffffff" fill-opacity="1">
<use xlink:href="#glyph-0-2" x="50218.6875" y="61.882812" />
</g>
<path fill-rule="nonzero" fill="#ffffff" fill-opacity="1" d="M 50224.984375 60.957031 C 50225.09375 60.957031 50225.183594 60.867188 50225.183594 60.757812 L 50225.183594 48.085938 C 50225.183594 47.976562 50225.09375 47.886719 50224.984375 47.886719 L 50224.734375 47.886719 C 50224.625 47.886719 50224.535156 47.976562 50224.535156 48.085938 L 50224.535156 60.757812 C 50224.535156 60.867188 50224.625 60.957031 50224.734375 60.957031 Z M 50224.984375 60.957031 " />
<g fill="#ffffff" fill-opacity="1">
<use xlink:href="#glyph-0-2" x="50229.914062" y="66.867188" />
</g>
<path fill-rule="nonzero" fill="#ffffff" fill-opacity="1" d="M 50236.210938 65.9375 C 50236.320312 65.9375 50236.410156 65.847656 50236.410156 65.738281 L 50236.410156 48.085938 C 50236.410156 47.976562 50236.320312 47.886719 50236.210938 47.886719 L 50235.960938 47.886719 C 50235.851562 47.886719 50235.761719 47.976562 50235.761719 48.085938 L 50235.761719 65.738281 C 50235.761719 65.847656 50235.851562 65.9375 50235.960938 65.9375 Z M 50236.210938 65.9375 " />
<g fill="#ffffff" fill-opacity="1">
<use xlink:href="#glyph-0-2" x="50241.144531" y="71.847656" />
</g>
<path fill-rule="nonzero" fill="#ffffff" fill-opacity="1" d="M 50247.441406 70.917969 C 50247.550781 70.917969 50247.640625 70.828125 50247.640625 70.71875 L 50247.640625 48.085938 C 50247.640625 47.972656 50247.550781 47.886719 50247.441406 47.886719 L 50247.191406 47.886719 C 50247.082031 47.886719 50246.992188 47.972656 50246.992188 48.085938 L 50246.992188 70.71875 C 50246.992188 70.828125 50247.082031 70.917969 50247.191406 70.917969 Z M 50247.441406 70.917969 " />
<g fill="#ffffff" fill-opacity="1">
<use xlink:href="#glyph-0-2" x="50254.863281" y="121.113281" />
</g>
<path fill-rule="nonzero" fill="#ffffff" fill-opacity="1" d="M 50261.160156 120.1875 C 50261.269531 120.1875 50261.359375 120.097656 50261.359375 119.988281 L 50261.359375 96.40625 C 50261.359375 96.296875 50261.269531 96.207031 50261.160156 96.207031 L 50260.910156 96.207031 C 50260.800781 96.207031 50260.710938 96.296875 50260.710938 96.40625 L 50260.710938 119.988281 C 50260.710938 120.097656 50260.800781 120.1875 50260.910156 120.1875 Z M 50261.160156 120.1875 " />
<g fill="#ffffff" fill-opacity="1">
<use xlink:href="#glyph-0-2" x="50268.582031" y="108.660156" />
</g>
<path fill-rule="nonzero" fill="#ffffff" fill-opacity="1" d="M 50274.878906 107.734375 C 50274.988281 107.734375 50275.078125 107.644531 50275.078125 107.535156 L 50275.078125 96.40625 C 50275.078125 96.296875 50274.988281 96.207031 50274.878906 96.207031 L 50274.628906 96.207031 C 50274.519531 96.207031 50274.429688 96.296875 50274.429688 96.40625 L 50274.429688 107.535156 C 50274.429688 107.644531 50274.519531 107.734375 50274.628906 107.734375 Z M 50274.878906 107.734375 " />
<g fill="#ffffff" fill-opacity="1">
<use xlink:href="#glyph-0-2" x="50279.8125" y="113.640625" />
</g>
<path fill-rule="nonzero" fill="#ffffff" fill-opacity="1" d="M 50286.109375 112.714844 C 50286.21875 112.714844 50286.308594 112.625 50286.308594 112.515625 L 50286.308594 96.40625 C 50286.308594 96.296875 50286.21875 96.207031 50286.109375 96.207031 L 50285.859375 96.207031 C 50285.75 96.207031 50285.660156 96.296875 50285.660156 96.40625 L 50285.660156 112.515625 C 50285.660156 112.625 50285.75 112.714844 50285.859375 112.714844 Z M 50286.109375 112.714844 " />
<g fill="#ffffff" fill-opacity="1">
<use xlink:href="#glyph-0-2" x="50291.039062" y="121.113281" />
</g>
<path fill-rule="nonzero" fill="#ffffff" fill-opacity="1" d="M 50297.339844 120.1875 C 50297.449219 120.1875 50297.539062 120.097656 50297.539062 119.988281 L 50297.539062 96.40625 C 50297.539062 96.296875 50297.449219 96.207031 50297.339844 96.207031 L 50297.089844 96.207031 C 50296.980469 96.207031 50296.890625 96.296875 50296.890625 96.40625 L 50296.890625 119.988281 C 50296.890625 120.097656 50296.980469 120.1875 50297.089844 120.1875 Z M 50297.339844 120.1875 " />
<g fill="#ffffff" fill-opacity="1">
<use xlink:href="#glyph-0-2" x="50302.269531" y="126.09375" />
</g>
<path fill-rule="nonzero" fill="#ffffff" fill-opacity="1" d="M 50308.566406 125.167969 C 50308.675781 125.167969 50308.765625 125.078125 50308.765625 124.96875 L 50308.765625 101.386719 C 50308.765625 101.277344 50308.675781 101.1875 50308.566406 101.1875 L 50308.316406 101.1875 C 50308.207031 101.1875 50308.117188 101.277344 50308.117188 101.386719 L 50308.117188 124.96875 C 50308.117188 125.078125 50308.207031 125.167969 50308.316406 125.167969 Z M 50308.566406 125.167969 " />
<g fill="#ffffff" fill-opacity="1">
<use xlink:href="#glyph-0-2" x="50315.988281" y="113.640625" />
</g>
<path fill-rule="nonzero" fill="#ffffff" fill-opacity="1" d="M 50322.285156 112.714844 C 50322.394531 112.714844 50322.484375 112.625 50322.484375 112.515625 L 50322.484375 101.386719 C 50322.484375 101.277344 50322.394531 101.1875 50322.285156 101.1875 L 50322.035156 101.1875 C 50321.925781 101.1875 50321.835938 101.277344 50321.835938 101.386719 L 50321.835938 112.515625 C 50321.835938 112.625 50321.925781 112.714844 50322.035156 112.714844 Z M 50322.285156 112.714844 " />
<g fill="#ffffff" fill-opacity="1">
<use xlink:href="#glyph-0-2" x="50327.21875" y="121.113281" />
</g>
<path fill-rule="nonzero" fill="#ffffff" fill-opacity="1" d="M 50333.515625 120.1875 C 50333.625 120.1875 50333.714844 120.097656 50333.714844 119.988281 L 50333.714844 101.390625 C 50333.714844 101.277344 50333.625 101.191406 50333.515625 101.191406 L 50333.265625 101.191406 C 50333.15625 101.191406 50333.066406 101.277344 50333.066406 101.390625 L 50333.066406 119.988281 C 50333.066406 120.097656 50333.15625 120.1875 50333.265625 120.1875 Z M 50333.515625 120.1875 " />
<g fill="#ffffff" fill-opacity="1">
<use xlink:href="#glyph-0-2" x="50338.445313" y="126.09375" />
</g>
<path fill-rule="nonzero" fill="#ffffff" fill-opacity="1" d="M 50344.746094 125.167969 C 50344.855469 125.167969 50344.945312 125.078125 50344.945312 124.96875 L 50344.945312 101.386719 C 50344.945312 101.277344 50344.855469 101.1875 50344.746094 101.1875 L 50344.496094 101.1875 C 50344.386719 101.1875 50344.296875 101.277344 50344.296875 101.386719 L 50344.296875 124.96875 C 50344.296875 125.078125 50344.386719 125.167969 50344.496094 125.167969 Z M 50344.746094 125.167969 " />
<g fill="#ffffff" fill-opacity="1">
<use xlink:href="#glyph-0-2" x="50349.675781" y="131.074219" />
</g>
<path fill-rule="nonzero" fill="#ffffff" fill-opacity="1" d="M 50355.972656 130.148438 C 50356.082031 130.148438 50356.171875 130.058594 50356.171875 129.949219 L 50356.171875 109.804688 C 50356.171875 109.695312 50356.082031 109.605469 50355.972656 109.605469 L 50355.722656 109.605469 C 50355.613281 109.605469 50355.523438 109.695312 50355.523438 109.804688 L 50355.523438 129.949219 C 50355.523438 130.058594 50355.613281 130.148438 50355.722656 130.148438 Z M 50355.972656 130.148438 " />
<g fill="#ffffff" fill-opacity="1">
<use xlink:href="#glyph-0-2" x="50363.394531" y="121.113281" />
</g>
<path fill-rule="nonzero" fill="#ffffff" fill-opacity="1" d="M 50369.691406 120.1875 C 50369.800781 120.1875 50369.890625 120.097656 50369.890625 119.988281 L 50369.890625 109.808594 C 50369.890625 109.699219 50369.800781 109.609375 50369.691406 109.609375 L 50369.441406 109.609375 C 50369.332031 109.609375 50369.242188 109.699219 50369.242188 109.808594 L 50369.242188 119.988281 C 50369.242188 120.097656 50369.332031 120.1875 50369.441406 120.1875 Z M 50369.691406 120.1875 " />
<g fill="#ffffff" fill-opacity="1">
<use xlink:href="#glyph-0-2" x="50374.625" y="126.09375" />
</g>
<path fill-rule="nonzero" fill="#ffffff" fill-opacity="1" d="M 50380.921875 125.167969 C 50381.03125 125.167969 50381.121094 125.078125 50381.121094 124.96875 L 50381.121094 109.804688 C 50381.121094 109.695312 50381.03125 109.605469 50380.921875 109.605469 L 50380.671875 109.605469 C 50380.5625 109.605469 50380.472656 109.695312 50380.472656 109.804688 L 50380.472656 124.96875 C 50380.472656 125.078125 50380.5625 125.167969 50380.671875 125.167969 Z M 50380.921875 125.167969 " />
<g fill="#ffffff" fill-opacity="1">
<use xlink:href="#glyph-0-2" x="50385.851562" y="131.074219" />
</g>
<path fill-rule="nonzero" fill="#ffffff" fill-opacity="1" d="M 50392.152344 130.148438 C 50392.261719 130.148438 50392.351562 130.058594 50392.351562 129.949219 L 50392.351562 109.804688 C 50392.351562 109.695312 50392.261719 109.605469 50392.152344 109.605469 L 50391.902344 109.605469 C 50391.792969 109.605469 50391.703125 109.695312 50391.703125 109.804688 L 50391.703125 129.949219 C 50391.703125 130.058594 50391.792969 130.148438 50391.902344 130.148438 Z M 50392.152344 130.148438 " />
<g fill="#ffffff" fill-opacity="1">
<use xlink:href="#glyph-0-2" x="50404.597656" y="138.546875" />
</g>
<path fill-rule="nonzero" fill="#ffffff" fill-opacity="1" d="M 50410.894531 137.621094 C 50411.003906 137.621094 50411.09375 137.53125 50411.09375 137.421875 L 50411.09375 119.761719 C 50411.09375 119.652344 50411.003906 119.5625 50410.894531 119.5625 L 50410.644531 119.5625 C 50410.535156 119.5625 50410.445312 119.652344 50410.445312 119.761719 L 50410.445312 137.421875 C 50410.445312 137.53125 50410.535156 137.621094 50410.644531 137.621094 Z M 50410.894531 137.621094 " />
<g fill="#ffffff" fill-opacity="1">
<use xlink:href="#glyph-0-2" x="50417.070313" y="136.058594" />
</g>
<path fill-rule="nonzero" fill="#ffffff" fill-opacity="1" d="M 50423.371094 135.128906 C 50423.480469 135.128906 50423.570312 135.039062 50423.570312 134.929688 L 50423.570312 119.480469 C 50423.570312 119.371094 50423.480469 119.28125 50423.371094 119.28125 L 50423.121094 119.28125 C 50423.011719 119.28125 50422.921875 119.371094 50422.921875 119.480469 L 50422.921875 134.929688 C 50422.921875 135.039062 50423.011719 135.128906 50423.121094 135.128906 Z M 50423.371094 135.128906 " />
<g fill="#ffffff" fill-opacity="1">
<use xlink:href="#glyph-0-2" x="50433.78125" y="136.058594" />
</g>
<path fill-rule="nonzero" fill="#ffffff" fill-opacity="1" d="M 50440.078125 135.128906 C 50440.1875 135.128906 50440.277344 135.039062 50440.277344 134.929688 L 50440.277344 119.105469 C 50440.277344 118.996094 50440.1875 118.90625 50440.078125 118.90625 L 50439.828125 118.90625 C 50439.71875 118.90625 50439.628906 118.996094 50439.628906 119.105469 L 50439.628906 134.929688 C 50439.628906 135.039062 50439.71875 135.128906 50439.828125 135.128906 Z M 50440.078125 135.128906 " />
<g fill="#ffffff" fill-opacity="1">
<use xlink:href="#glyph-0-5" x="50426.558594" y="136.058594" />
</g>
<g fill="#ffffff" fill-opacity="1">
<use xlink:href="#glyph-0-2" x="50446.253906" y="133.566406" />
</g>
<path fill-rule="nonzero" fill="#ffffff" fill-opacity="1" d="M 50452.550781 132.640625 C 50452.660156 132.640625 50452.75 132.550781 50452.75 132.441406 L 50452.75 118.832031 C 50452.75 118.71875 50452.660156 118.632812 50452.550781 118.632812 L 50452.300781 118.632812 C 50452.191406 118.632812 50452.101562 118.71875 50452.101562 118.832031 L 50452.101562 132.441406 C 50452.101562 132.550781 50452.191406 132.640625 50452.300781 132.640625 Z M 50452.550781 132.640625 " />
<g fill="#ffffff" fill-opacity="1">
<use xlink:href="#glyph-0-2" x="50462.964844" y="133.566406" />
</g>
<path fill-rule="nonzero" fill="#ffffff" fill-opacity="1" d="M 50469.261719 132.640625 C 50469.371094 132.640625 50469.460938 132.550781 50469.460938 132.441406 L 50469.460938 113.824219 C 50469.460938 113.714844 50469.371094 113.625 50469.261719 113.625 L 50469.011719 113.625 C 50468.902344 113.625 50468.8125 113.714844 50468.8125 113.824219 L 50468.8125 132.441406 C 50468.8125 132.550781 50468.902344 132.640625 50469.011719 132.640625 Z M 50469.261719 132.640625 " />
<g fill="#ffffff" fill-opacity="1">
<use xlink:href="#glyph-0-5" x="50455.738281" y="133.566406" />
</g>
<g fill="#ffffff" fill-opacity="1">
<use xlink:href="#glyph-0-2" x="50475.4375" y="131.074219" />
</g>
<path fill-rule="nonzero" fill="#ffffff" fill-opacity="1" d="M 50481.734375 130.148438 C 50481.84375 130.148438 50481.933594 130.058594 50481.933594 129.949219 L 50481.933594 113.082031 C 50481.933594 112.972656 50481.84375 112.882812 50481.734375 112.882812 L 50481.484375 112.882812 C 50481.375 112.882812 50481.285156 112.972656 50481.285156 113.082031 L 50481.285156 129.949219 C 50481.285156 130.058594 50481.375 130.148438 50481.484375 130.148438 Z M 50481.734375 130.148438 " />
<g fill="#ffffff" fill-opacity="1">
<use xlink:href="#glyph-0-2" x="50491.847656" y="131.074219" />
</g>
<path fill-rule="nonzero" fill="#ffffff" fill-opacity="1" d="M 50498.144531 130.148438 C 50498.253906 130.148438 50498.34375 130.058594 50498.34375 129.949219 L 50498.34375 112.109375 C 50498.34375 112 50498.253906 111.910156 50498.144531 111.910156 L 50497.894531 111.910156 C 50497.785156 111.910156 50497.695312 112 50497.695312 112.109375 L 50497.695312 129.949219 C 50497.695312 130.058594 50497.785156 130.148438 50497.894531 130.148438 Z M 50498.144531 130.148438 " />
<g fill="#ffffff" fill-opacity="1">
<use xlink:href="#glyph-0-10" x="50484.921875" y="131.074219" />
</g>
<g fill="#ffffff" fill-opacity="1">
<use xlink:href="#glyph-0-2" x="50504.320312" y="128.585938" />
</g>
<path fill-rule="nonzero" fill="#ffffff" fill-opacity="1" d="M 50510.617188 127.660156 C 50510.726562 127.660156 50510.816406 127.570312 50510.816406 127.460938 L 50510.816406 111.371094 C 50510.816406 111.261719 50510.726562 111.171875 50510.617188 111.171875 L 50510.367188 111.171875 C 50510.257812 111.171875 50510.167969 111.261719 50510.167969 111.371094 L 50510.167969 127.460938 C 50510.167969 127.570312 50510.257812 127.660156 50510.367188 127.660156 Z M 50510.617188 127.660156 " />
<g fill="#ffffff" fill-opacity="1">
<use xlink:href="#glyph-0-2" x="50516.796875" y="126.09375" />
</g>
<path fill-rule="nonzero" fill="#ffffff" fill-opacity="1" d="M 50523.09375 125.167969 C 50523.203125 125.167969 50523.292969 125.078125 50523.292969 124.96875 L 50523.292969 111.339844 C 50523.292969 111.230469 50523.203125 111.140625 50523.09375 111.140625 L 50522.84375 111.140625 C 50522.734375 111.140625 50522.644531 111.230469 50522.644531 111.339844 L 50522.644531 124.96875 C 50522.644531 125.078125 50522.734375 125.167969 50522.84375 125.167969 Z M 50523.09375 125.167969 " />
<g fill="#ffffff" fill-opacity="1">
<use xlink:href="#glyph-0-2" x="50533.503906" y="126.09375" />
</g>
<path fill-rule="nonzero" fill="#ffffff" fill-opacity="1" d="M 50539.800781 125.167969 C 50539.910156 125.167969 50540 125.078125 50540 124.96875 L 50540 110.78125 C 50540 110.671875 50539.910156 110.582031 50539.800781 110.582031 L 50539.550781 110.582031 C 50539.441406 110.582031 50539.351562 110.671875 50539.351562 110.78125 L 50539.351562 124.96875 C 50539.351562 125.078125 50539.441406 125.167969 50539.550781 125.167969 Z M 50539.800781 125.167969 " />
<g fill="#ffffff" fill-opacity="1">
<use xlink:href="#glyph-0-5" x="50526.28125" y="126.09375" />
</g>
<g fill="#ffffff" fill-opacity="1">
<use xlink:href="#glyph-0-2" x="50545.976563" y="123.605469" />
</g>
<path fill-rule="nonzero" fill="#ffffff" fill-opacity="1" d="M 50552.277344 122.675781 C 50552.386719 122.675781 50552.476562 122.585938 50552.476562 122.476562 L 50552.476562 110.363281 C 50552.476562 110.253906 50552.386719 110.164062 50552.277344 110.164062 L 50552.027344 110.164062 C 50551.917969 110.164062 50551.828125 110.253906 50551.828125 110.363281 L 50551.828125 122.476562 C 50551.828125 122.585938 50551.917969 122.675781 50552.027344 122.675781 Z M 50552.277344 122.675781 " />
<g fill="#ffffff" fill-opacity="1">
<use xlink:href="#glyph-0-2" x="50562.386719" y="123.605469" />
</g>
<path fill-rule="nonzero" fill="#ffffff" fill-opacity="1" d="M 50568.683594 122.675781 C 50568.792969 122.675781 50568.882812 122.585938 50568.882812 122.476562 L 50568.882812 109.816406 C 50568.882812 109.707031 50568.792969 109.617188 50568.683594 109.617188 L 50568.433594 109.617188 C 50568.324219 109.617188 50568.234375 109.707031 50568.234375 109.816406 L 50568.234375 122.476562 C 50568.234375 122.585938 50568.324219 122.675781 50568.433594 122.675781 Z M 50568.683594 122.675781 " />
<g fill="#ffffff" fill-opacity="1">
<use xlink:href="#glyph-0-10" x="50555.464844" y="123.605469" />
</g>
<g fill="#ffffff" fill-opacity="1">
<use xlink:href="#glyph-0-2" x="50574.863281" y="121.113281" />
</g>
<path fill-rule="nonzero" fill="#ffffff" fill-opacity="1" d="M 50581.160156 120.1875 C 50581.269531 120.1875 50581.359375 120.097656 50581.359375 119.988281 L 50581.359375 103.863281 C 50581.359375 103.75 50581.269531 103.664062 50581.160156 103.664062 L 50580.910156 103.664062 C 50580.800781 103.664062 50580.710938 103.75 50580.710938 103.863281 L 50580.710938 119.988281 C 50580.710938 120.097656 50580.800781 120.1875 50580.910156 120.1875 Z M 50581.160156 120.1875 " />
<g fill="#ffffff" fill-opacity="1">
<use xlink:href="#glyph-0-2" x="50589.5" y="118.621094" />
</g>
<path fill-rule="nonzero" fill="#ffffff" fill-opacity="1" d="M 50595.796875 117.695312 C 50595.90625 117.695312 50595.996094 117.605469 50595.996094 117.496094 L 50595.996094 103.039062 C 50595.996094 102.929688 50595.90625 102.839844 50595.796875 102.839844 L 50595.546875 102.839844 C 50595.4375 102.839844 50595.347656 102.929688 50595.347656 103.039062 L 50595.347656 117.496094 C 50595.347656 117.605469 50595.4375 117.695312 50595.546875 117.695312 Z M 50595.796875 117.695312 " />
<g fill="#ffffff" fill-opacity="1">
<use xlink:href="#glyph-0-4" x="50584.347656" y="118.621094" />
</g>
<g fill="#ffffff" fill-opacity="1">
<use xlink:href="#glyph-0-2" x="50606.207031" y="118.621094" />
</g>
<path fill-rule="nonzero" fill="#ffffff" fill-opacity="1" d="M 50612.503906 117.695312 C 50612.613281 117.695312 50612.703125 117.605469 50612.703125 117.496094 L 50612.703125 102.105469 C 50612.703125 101.996094 50612.613281 101.90625 50612.503906 101.90625 L 50612.253906 101.90625 C 50612.144531 101.90625 50612.054688 101.996094 50612.054688 102.105469 L 50612.054688 117.496094 C 50612.054688 117.605469 50612.144531 117.695312 50612.253906 117.695312 Z M 50612.503906 117.695312 " />
<g fill="#ffffff" fill-opacity="1">
<use xlink:href="#glyph-0-5" x="50598.984375" y="118.621094" />
</g>
<g fill="#ffffff" fill-opacity="1">
<use xlink:href="#glyph-0-2" x="50618.679688" y="116.132812" />
</g>
<path fill-rule="nonzero" fill="#ffffff" fill-opacity="1" d="M 50624.980469 115.207031 C 50625.089844 115.207031 50625.179688 115.117188 50625.179688 115.007812 L 50625.179688 101.40625 C 50625.179688 101.296875 50625.089844 101.207031 50624.980469 101.207031 L 50624.730469 101.207031 C 50624.621094 101.207031 50624.53125 101.296875 50624.53125 101.40625 L 50624.53125 115.007812 C 50624.53125 115.117188 50624.621094 115.207031 50624.730469 115.207031 Z M 50624.980469 115.207031 " />
<g fill="#ffffff" fill-opacity="1">
<use xlink:href="#glyph-0-2" x="50641.792969" y="74.335938" />
</g>
<path fill-rule="nonzero" fill="#ffffff" fill-opacity="1" d="M 50648.09375 73.410156 C 50648.203125 73.410156 50648.292969 73.320312 50648.292969 73.210938 L 50648.292969 53.058594 C 50648.292969 52.949219 50648.203125 52.859375 50648.09375 52.859375 L 50647.84375 52.859375 C 50647.734375 52.859375 50647.644531 52.949219 50647.644531 53.058594 L 50647.644531 73.210938 C 50647.644531 73.320312 50647.734375 73.410156 50647.84375 73.410156 Z M 50648.09375 73.410156 " />
<g fill="#ffffff" fill-opacity="1">
<use xlink:href="#glyph-0-5" x="50634.570312" y="74.335938" />
</g>
<g fill="#ffffff" fill-opacity="1">
<use xlink:href="#glyph-0-2" x="50654.269531" y="71.847656" />
</g>
<path fill-rule="nonzero" fill="#ffffff" fill-opacity="1" d="M 50660.566406 70.917969 C 50660.675781 70.917969 50660.765625 70.828125 50660.765625 70.71875 L 50660.765625 52.777344 C 50660.765625 52.667969 50660.675781 52.578125 50660.566406 52.578125 L 50660.316406 52.578125 C 50660.207031 52.578125 50660.117188 52.667969 50660.117188 52.777344 L 50660.117188 70.71875 C 50660.117188 70.828125 50660.207031 70.917969 50660.316406 70.917969 Z M 50660.566406 70.917969 " />
<g fill="#ffffff" fill-opacity="1">
<use xlink:href="#glyph-0-2" x="50670.679688" y="71.847656" />
</g>
<path fill-rule="nonzero" fill="#ffffff" fill-opacity="1" d="M 50676.976562 70.917969 C 50677.085938 70.917969 50677.175781 70.828125 50677.175781 70.71875 L 50677.175781 52.40625 C 50677.175781 52.296875 50677.085938 52.207031 50676.976562 52.207031 L 50676.726562 52.207031 C 50676.617188 52.207031 50676.527344 52.296875 50676.527344 52.40625 L 50676.527344 70.71875 C 50676.527344 70.828125 50676.617188 70.917969 50676.726562 70.917969 Z M 50676.976562 70.917969 " />
<g fill="#ffffff" fill-opacity="1">
<use xlink:href="#glyph-0-10" x="50663.753906" y="71.847656" />
</g>
<g fill="#ffffff" fill-opacity="1">
<use xlink:href="#glyph-0-2" x="50683.152344" y="69.355469" />
</g>
<path fill-rule="nonzero" fill="#ffffff" fill-opacity="1" d="M 50689.449219 68.429688 C 50689.558594 68.429688 50689.648438 68.339844 50689.648438 68.230469 L 50689.648438 52.128906 C 50689.648438 52.019531 50689.558594 51.929688 50689.449219 51.929688 L 50689.199219 51.929688 C 50689.089844 51.929688 50689 52.019531 50689 52.128906 L 50689 68.230469 C 50689 68.339844 50689.089844 68.429688 50689.199219 68.429688 Z M 50689.449219 68.429688 " />
<g fill="#ffffff" fill-opacity="1">
<use xlink:href="#glyph-0-2" x="50695.625" y="66.867188" />
</g>
<g fill="#ffffff" fill-opacity="1">
<use xlink:href="#glyph-0-5" x="50705.113281" y="66.867188" />
</g>
</svg>