<?xml version='1.0' encoding='utf-8'?>
<svg xmlns="http://www.w3.org/2000/svg" xmlns:xlink="http://www.w3.org/1999/xlink" width="2048" height="668" viewBox="6144.0 0 512.0 167.0"><defs>
<g>
<g id="glyph-0-0">
<path d="M 0 0.921875 C 0 1.9375 0.78125 2.703125 2.109375 2.703125 C 4.296875 2.703125 6.5 0.8125 6.5 -0.921875 C 6.5 -2.015625 5.578125 -2.703125 4.328125 -2.703125 C 2.3125 -2.703125 0 -0.890625 0 0.921875 Z M 0 0.921875 " />
</g>
<g id="glyph-0-1">
<path d="M 1.4375 2.109375 C 0.953125 2.109375 0.625 1.734375 0.625 1.296875 C 0.625 1.109375 0.671875 0.921875 0.8125 0.734375 C 1.359375 0.078125 4.625 -2.109375 5.421875 -2.109375 C 5.890625 -2.109375 6.25 -1.734375 6.25 -1.296875 C 6.25 -1.109375 6.171875 -0.921875 6.03125 -0.734375 C 5.5 -0.078125 2.234375 2.109375 1.4375 2.109375 Z M 0 1.328125 C 0 2.515625 0.890625 2.703125 1.71875 2.703125 C 5.9375 2.703125 6.859375 0.078125 6.859375 -1.328125 C 6.859375 -2.515625 5.953125 -2.703125 5.140625 -2.703125 C 0.921875 -2.703125 0 -0.078125 0 1.328125 Z M 0 1.328125 " />
</g>
<g id="glyph-0-2">
<path d="M -0.140625 -7.46875 L 0 3.890625 C 0 4.078125 0.15625 4.21875 0.359375 4.21875 L 0.421875 4.21875 L 2.53125 3.828125 L 2.484375 7.46875 C 2.65625 7.546875 2.8125 7.609375 2.96875 7.609375 C 3.125 7.609375 3.3125 7.546875 3.46875 7.46875 L 3.328125 -3.890625 C 3.328125 -4.078125 3.171875 -4.21875 2.96875 -4.21875 L 2.90625 -4.21875 L 0.796875 -3.828125 L 0.84375 -7.46875 C 0.671875 -7.546875 0.515625 -7.609375 0.359375 -7.609375 C 0.203125 -7.609375 0.015625 -7.546875 -0.140625 -7.46875 Z M 2.609375 -2.234375 L 2.546875 1.890625 L 0.71875 2.234375 L 0.78125 -1.890625 Z M 2.609375 -2.234375 " />
</g>
<g id="glyph-0-3">
<path d="M 0 -2.375 L 0 -1.171875 C 0 -0.953125 0.171875 -0.78125 0.390625 -0.78125 C 0.4375 -0.78125 0.5 -0.78125 0.53125 -0.796875 L 1.171875 -1.015625 L 1.171875 2.171875 L 0.265625 2.484375 C 0.09375 2.546875 0 2.703125 0 2.875 L 0 4.0625 C 0 4.28125 0.171875 4.46875 0.390625 4.46875 C 0.4375 4.46875 0.5 4.46875 0.53125 4.4375 L 1.171875 4.203125 L 1.171875 7.09375 C 1.171875 7.296875 1.328125 7.46875 1.53125 7.46875 C 1.734375 7.46875 1.90625 7.296875 1.90625 7.09375 L 1.90625 3.9375 L 3.5625 3.328125 L 3.5625 6.21875 C 3.5625 6.421875 3.75 6.59375 3.9375 6.59375 C 4.140625 6.59375 4.296875 6.421875 4.296875 6.21875 L 4.296875 3.0625 L 5.21875 2.734375 C 5.375 2.671875 5.484375 2.53125 5.484375 2.375 L 5.484375 1.171875 C 5.484375 0.953125 5.296875 0.78125 5.078125 0.78125 C 5.046875 0.78125 4.984375 0.78125 4.9375 0.796875 L 4.296875 1.015625 L 4.296875 -2.171875 L 5.21875 -2.484375 C 5.375 -2.546875 5.484375 -2.703125 5.484375 -2.875 L 5.484375 -4.0625 C 5.484375 -4.28125 5.296875 -4.46875 5.078125 -4.46875 C 5.046875 -4.46875 4.984375 -4.46875 4.9375 -4.4375 L 4.296875 -4.203125 L 4.296875 -7.09375 C 4.296875 -7.296875 4.140625 -7.46875 3.9375 -7.46875 C 3.75 -7.46875 3.5625 -7.296875 3.5625 -7.09375 L 3.5625 -3.9375 L 1.90625 -3.328125 L 1.90625 -6.21875 C 1.90625 -6.421875 1.734375 -6.59375 1.53125 -6.59375 C 1.328125 -6.59375 1.171875 -6.421875 1.171875 -6.21875 L 1.171875 -3.0625 L 0.265625 -2.734375 C 0.09375 -2.671875 0 -2.53125 0 -2.375 Z M 3.5625 -1.890625 L 3.5625 1.296875 L 1.90625 1.890625 L 1.90625 -1.296875 Z M 3.5625 -1.890625 " />
</g>
<g id="glyph-0-4">
<path d="M 6.90625 0.515625 C 6.90625 2.078125 5.9375 2.234375 5.5 2.234375 C 4.375 2.234375 2.875 1.328125 2.875 -0.484375 C 2.875 -2.046875 3.8125 -2.25 4.265625 -2.25 C 5.140625 -2.25 6.90625 -1.515625 6.90625 0.515625 Z M 4.875 -2.703125 C 2.015625 -2.703125 0 -1.421875 0 0 C 0 1.421875 2.015625 2.703125 4.875 2.703125 C 7.75 2.703125 9.78125 1.421875 9.78125 0 C 9.78125 -1.421875 7.75 -2.703125 4.875 -2.703125 Z M 4.875 -2.703125 " />
</g>
<g id="glyph-0-5">
<path d="M -0.125 -1.546875 C -0.125 -1.390625 -0.0625 -1.234375 0.078125 -1.0625 L 2.703125 2.09375 C 1.890625 1.734375 1 1.46875 0.34375 1.46875 C 0.078125 1.46875 -0.453125 1.5 -0.453125 2.3125 C -0.453125 3.78125 1.234375 6.375 1.5 6.375 C 1.578125 6.375 1.65625 6.3125 1.65625 6.234375 C 1.65625 6.171875 1.0625 5.484375 1.0625 4.25 C 1.0625 2.90625 1.796875 2.90625 2.109375 2.90625 C 3.390625 2.90625 4.125 3.78125 4.28125 3.78125 C 4.4375 3.78125 4.609375 3.640625 4.609375 3.46875 C 4.609375 3.40625 4.578125 3.328125 4.515625 3.265625 L 2.84375 1.296875 C 2.515625 0.890625 2.375 0.390625 2.375 -0.078125 C 2.375 -2.046875 4.84375 -2.53125 4.84375 -3.703125 C 4.84375 -3.859375 4.78125 -4.03125 4.640625 -4.203125 L 1.640625 -7.796875 C 1.578125 -7.875 1.5 -7.890625 1.421875 -7.890625 C 1.25 -7.890625 1.078125 -7.765625 1.078125 -7.59375 C 1.078125 -7.53125 1.09375 -7.453125 1.15625 -7.390625 L 1.859375 -6.546875 C 2.1875 -6.15625 2.34375 -5.65625 2.34375 -5.171875 C 2.34375 -3.203125 -0.125 -2.734375 -0.125 -1.546875 Z M -0.125 -1.546875 " />
</g>
<g id="glyph-0-6">
<path d="M 0 0 C 0 0.625 0.5 1.109375 1.109375 1.109375 C 1.734375 1.109375 2.234375 0.625 2.234375 0 C 2.234375 -0.625 1.734375 -1.109375 1.109375 -1.109375 C 0.5 -1.109375 0 -0.625 0 0 Z M 0 0 " />
</g>
<g id="glyph-0-7">
<path d="M 7.265625 0 C 7.390625 0 7.46875 -0.078125 7.46875 -0.203125 L 7.46875 -2.90625 C 7.46875 -3.03125 7.390625 -3.109375 7.265625 -3.109375 L 0.203125 -3.109375 C 0.078125 -3.109375 0 -3.03125 0 -2.90625 L 0 -0.203125 C 0 -0.078125 0.078125 0 0.203125 0 Z M 7.265625 0 " />
</g>
<g id="glyph-0-8">
<path d="M 3.03125 0 C 3.484375 -0.453125 4.140625 -0.5625 4.796875 -0.5625 C 4.921875 -0.5625 5 -0.640625 5 -0.75 L 5.171875 -2.484375 L 5.171875 -2.515625 C 5.171875 -2.609375 5.09375 -2.6875 5 -2.6875 L 4.984375 -2.6875 L 3.25 -2.515625 C 3.140625 -2.484375 3.046875 -2.40625 3.046875 -2.3125 C 3.046875 -1.65625 2.953125 -1 2.484375 -0.53125 C 2.03125 -1 1.9375 -1.65625 1.9375 -2.3125 C 1.9375 -2.40625 1.859375 -2.484375 1.75 -2.515625 L 0 -2.6875 L -0.015625 -2.6875 C -0.125 -2.6875 -0.203125 -2.609375 -0.203125 -2.515625 L -0.203125 -2.484375 L -0.015625 -0.75 C -0.015625 -0.640625 0.0625 -0.5625 0.171875 -0.5625 C 0.84375 -0.5625 1.5 -0.453125 1.953125 0 C 1.5 0.453125 0.84375 0.5625 0.171875 0.5625 C 0.0625 0.5625 -0.015625 0.640625 -0.015625 0.75 L -0.203125 2.484375 L -0.203125 2.515625 C -0.203125 2.609375 -0.125 2.6875 -0.015625 2.6875 L 0 2.6875 L 1.75 2.515625 C 1.859375 2.484375 1.953125 2.40625 1.953125 2.3125 C 1.953125 1.65625 2.03125 1 2.484375 0.53125 C 2.953125 1 3.046875 1.65625 3.046875 2.3125 C 3.046875 2.40625 3.140625 2.484375 3.25 2.515625 L 4.984375 2.6875 L 5 2.6875 C 5.09375 2.6875 5.171875 2.609375 5.171875 2.515625 L 5.171875 2.484375 L 5 0.75 C 5 0.640625 4.921875 0.5625 4.796875 0.5625 C 4.140625 0.5625 3.484375 0.453125 3.03125 0 Z M 3.03125 0 " />
</g>
<g id="glyph-0-9">
<path d="M 1.390625 -4.078125 C 0.453125 -4.078125 -0.015625 -3.390625 -0.015625 -2.671875 C -0.015625 -1.890625 0.515625 -1.078125 1.671875 -1.078125 C 2.390625 -1.078125 3.09375 -1.28125 3.765625 -1.515625 L 1.4375 4.984375 C 1.59375 5.125 1.796875 5.171875 1.984375 5.171875 C 2.1875 5.171875 2.375 5.125 2.53125 4.984375 L 4.984375 -3.390625 C 4.9375 -3.5 4.828125 -3.5625 4.703125 -3.5625 C 4.578125 -3.5625 4.484375 -3.5 4.421875 -3.390625 C 4.28125 -3.09375 3.53125 -2.125 3.203125 -2.125 C 2.3125 -2.125 2.96875 -4.078125 1.390625 -4.078125 Z M 1.390625 -4.078125 " />
</g>
<g id="glyph-0-10">
<path d="M 8.890625 1.984375 C 8.890625 2.453125 9.25 2.8125 9.703125 2.8125 C 10.15625 2.8125 10.515625 2.453125 10.515625 1.984375 C 10.515625 1.53125 10.15625 1.171875 9.703125 1.171875 C 9.25 1.171875 8.890625 1.53125 8.890625 1.984375 Z M 8.890625 -1.984375 C 8.890625 -1.53125 9.25 -1.171875 9.703125 -1.171875 C 10.15625 -1.171875 10.515625 -1.53125 10.515625 -1.984375 C 10.515625 -2.453125 10.15625 -2.8125 9.703125 -2.8125 C 9.25 -2.8125 8.890625 -2.453125 8.890625 -1.984375 Z M 3.5625 -4.25 C 1.53125 -4.25 0 -2.453125 0 -0.375 C 0 0.5625 0.84375 1.3125 1.796875 1.3125 C 2.6875 1.3125 3.390625 0.53125 3.390625 -0.375 C 3.390625 -1.25 2.671875 -1.96875 1.796875 -1.96875 C 1.6875 -1.96875 1.59375 -1.953125 1.5 -1.9375 C 1.828125 -2.96875 2.53125 -3.71875 3.5625 -3.71875 C 5.171875 -3.71875 5.9375 -1.875 5.9375 -0.046875 C 5.9375 3.46875 2.8125 5.84375 -0.171875 7.796875 C -0.234375 7.84375 -0.265625 7.90625 -0.265625 7.96875 C -0.265625 8.109375 -0.140625 8.234375 0 8.234375 C 0.0625 8.234375 0.125 8.203125 0.171875 8.140625 C 4.1875 6.390625 8.359375 3.96875 8.359375 -0.234375 C 8.359375 -2.875 6.359375 -4.25 3.5625 -4.25 Z M 3.5625 -4.25 " />
</g>
<g id="glyph-0-11">
<path d="M 0 0 L 0 -7.46875 L -0.3125 -7.46875 L -0.3125 0 Z M 4.46875 -10.140625 C 4.46875 -7.921875 1.9375 -6.15625 0 -4.984375 L 0 0 C 0 -4.046875 5.3125 -6.09375 5.3125 -10.140625 C 5.3125 -11.375 5.015625 -12.59375 4.515625 -13.703125 C 4.421875 -13.859375 4.265625 -13.921875 4.125 -13.921875 C 3.890625 -13.921875 3.671875 -13.765625 3.671875 -13.484375 C 3.671875 -13.28125 4.46875 -12.015625 4.46875 -10.140625 Z M 4.46875 -10.140625 " />
</g>
<g id="glyph-0-12">
<path d="M 4.1875 10.203125 L 4.203125 9.34375 L 4.140625 9.34375 C 3.46875 9.34375 2.90625 9.03125 2.53125 8.5 C 2.609375 8.53125 2.65625 8.53125 2.734375 8.53125 C 3.5625 8.53125 4.25 7.84375 4.25 7.015625 C 4.25 6.109375 3.578125 5.359375 2.734375 5.359375 C 1.765625 5.359375 0.9375 6.09375 0.9375 7.015625 C 0.9375 8.765625 2.375 10.203125 4.109375 10.203125 Z M 6.515625 -2.328125 C 8.171875 -2.09375 9.046875 -0.734375 9.046875 0.59375 C 9.046875 1.609375 8.53125 2.65625 7.4375 3.09375 C 7.171875 0.796875 6.578125 -2.09375 6.515625 -2.328125 Z M 1.25 -0.375 C 1.25 -2.953125 2.84375 -4.953125 4.484375 -6.96875 C 4.765625 -6.015625 5.015625 -5.078125 5.234375 -4.125 C 3.609375 -3.71875 2.6875 -2.328125 2.6875 -0.921875 C 2.6875 1.09375 4.46875 2.109375 4.765625 2.109375 C 5 2.109375 5.171875 1.890625 5.171875 1.671875 C 5.171875 1.578125 5.15625 1.46875 5.0625 1.375 C 4.203125 0.875 3.78125 0.15625 3.78125 -0.515625 C 3.78125 -1.390625 4.46875 -2.21875 5.640625 -2.34375 C 6.15625 0.125 6.46875 2.265625 6.59375 3.28125 C 6.234375 3.34375 5.921875 3.359375 5.59375 3.359375 C 2.828125 3.359375 1.25 1.421875 1.25 -0.375 Z M 5.484375 -19.65625 C 5.203125 -19.65625 3.015625 -17.875 3.015625 -14.84375 C 3.015625 -11.8125 3.3125 -10.8125 3.84375 -9.109375 C 2.046875 -6.859375 0.046875 -4.65625 0.046875 -1.796875 C 0.046875 0.625 1.578125 4.21875 5.484375 4.21875 C 5.859375 4.21875 6.25 4.1875 6.671875 4.109375 C 6.71875 4.5625 6.734375 5.015625 6.734375 5.484375 C 6.734375 8.90625 4.953125 9.328125 4.203125 9.34375 L 4.1875 10.203125 C 6.0625 10.15625 7.4375 8.453125 7.546875 6.5 C 7.5625 6.171875 7.5625 5.84375 7.5625 5.515625 C 7.5625 4.984375 7.546875 4.4375 7.515625 3.90625 C 9.421875 3.265625 10.296875 1.640625 10.296875 0 C 10.296875 -2.109375 8.828125 -4.25 6.21875 -4.25 C 6.171875 -4.25 6.140625 -4.21875 6.09375 -4.21875 L 6.078125 -4.21875 C 5.796875 -5.421875 5.484375 -6.609375 5.140625 -7.796875 C 6.578125 -9.578125 7.828125 -11.421875 7.828125 -13.703125 C 7.828125 -16.21875 6 -19.65625 5.484375 -19.65625 Z M 6.359375 -17.125 C 6.53125 -16.4375 6.640625 -15.78125 6.640625 -15.15625 C 6.640625 -13.328125 5.84375 -11.734375 4.484375 -9.921875 C 4.265625 -10.640625 3.9375 -11.75 3.9375 -12.953125 C 3.9375 -14.4375 4.46875 -16.0625 6.359375 -17.125 Z M 6.359375 -17.125 " />
</g>
<g id="glyph-0-13">
<path d="M -1.328125 -0.953125 C -1.328125 -0.21875 -0.734375 0.375 0 0.375 C 0.734375 0.375 1.328125 -0.21875 1.328125 -0.953125 C 1.328125 -1.6875 0.734375 -2.296875 0 -2.296875 C -0.734375 -2.296875 -1.328125 -1.6875 -1.328125 -0.953125 Z M -6.609375 0.0625 C -6.609375 0.234375 -6.421875 0.359375 -6.234375 0.359375 C -6.0625 0.359375 -5.890625 0.265625 -5.859375 0 C -5.34375 -2.953125 -2.953125 -5.21875 0 -5.21875 C 2.953125 -5.21875 5.34375 -2.953125 5.859375 0 C 5.890625 0.265625 6.0625 0.359375 6.234375 0.359375 C 6.421875 0.359375 6.609375 0.234375 6.609375 0.0625 C 6.609375 -0.640625 5.078125 -7.234375 0 -7.234375 C -5.078125 -7.234375 -6.609375 -0.640625 -6.609375 0.0625 Z M -6.609375 0.0625 " />
</g>
<g id="glyph-0-14">
<path d="M 8.625 1.765625 C 8.625 1.609375 8.484375 1.53125 8.359375 1.53125 C 8.265625 1.53125 8.171875 1.59375 8.125 1.734375 C 7.75 3.34375 6.578125 4.734375 4.984375 4.734375 C 4.90625 4.734375 4.796875 4.71875 4.71875 4.71875 L 4.71875 -4.71875 L 4.984375 -4.71875 C 5.9375 -4.71875 6.8125 -4.28125 7.375 -3.546875 C 7.265625 -3.5625 7.171875 -3.5625 7.09375 -3.5625 C 6.203125 -3.5625 5.65625 -2.78125 5.65625 -2.03125 C 5.65625 -1.03125 6.53125 -0.53125 7.15625 -0.53125 C 7.890625 -0.53125 8.484375 -1.171875 8.484375 -1.96875 C 8.484375 -3.109375 7.296875 -5.21875 4.984375 -5.21875 L 4.71875 -5.21875 L 4.71875 -6.765625 C 4.71875 -6.890625 4.640625 -6.96875 4.515625 -6.96875 L 4.1875 -6.96875 C 4.0625 -6.96875 3.984375 -6.890625 3.984375 -6.765625 L 3.984375 -5.15625 C 0.4375 -4.609375 0 -1.46875 0 0 C 0 4.046875 2.6875 4.953125 3.984375 5.15625 L 3.984375 6.765625 C 3.984375 6.890625 4.0625 6.96875 4.1875 6.96875 L 4.515625 6.96875 C 4.640625 6.96875 4.71875 6.890625 4.71875 6.765625 L 4.71875 5.21875 C 4.796875 5.21875 4.90625 5.234375 4.984375 5.234375 C 7.625 5.234375 8.625 2.21875 8.625 1.765625 Z M 3.984375 4.578125 C 2.828125 4.140625 2.734375 2.84375 2.734375 1.015625 L 2.734375 -1.015625 C 2.734375 -2.84375 2.828125 -4.140625 3.984375 -4.578125 Z M 3.984375 4.578125 " />
</g>
<g id="glyph-0-15">
<path d="M 11.09375 2.484375 C 11.09375 3.046875 11.546875 3.5 12.109375 3.5 C 12.671875 3.5 13.125 3.046875 13.125 2.484375 C 13.125 1.9375 12.671875 1.46875 12.109375 1.46875 C 11.546875 1.46875 11.09375 1.9375 11.09375 2.484375 Z M 11.09375 -2.484375 C 11.09375 -1.9375 11.546875 -1.46875 12.109375 -1.46875 C 12.671875 -1.46875 13.125 -1.9375 13.125 -2.484375 C 13.125 -3.046875 12.671875 -3.5 12.109375 -3.5 C 11.546875 -3.5 11.09375 -3.046875 11.09375 -2.484375 Z M 4.625 -5.234375 C 2.03125 -5.234375 0 -3.03125 0 -0.375 C 0 0.796875 1.03125 1.734375 2.234375 1.734375 C 3.34375 1.734375 4.21875 0.78125 4.21875 -0.375 C 4.21875 -1.46875 3.328125 -2.375 2.234375 -2.375 C 1.984375 -2.375 1.765625 -2.3125 1.546875 -2.21875 C 2.046875 -3.640625 3.140625 -4.71875 4.625 -4.71875 C 6.765625 -4.71875 8.03125 -2.4375 8.03125 -0.046875 C 8.03125 4.5 3.84375 7.4375 -0.171875 9.78125 C -0.234375 9.84375 -0.265625 9.90625 -0.265625 9.953125 C -0.265625 10.09375 -0.140625 10.21875 0 10.21875 C 0.0625 10.21875 0.125 10.203125 0.171875 10.140625 C 5.21875 8.015625 10.453125 5 10.453125 -0.234375 C 10.453125 -3.484375 8.046875 -5.234375 4.625 -5.234375 Z M 4.625 -5.234375 " />
</g>
<g id="glyph-0-16">
<path d="M 5.296875 12.65625 L 5.3125 11.796875 L 5.234375 11.796875 C 4.265625 11.796875 3.421875 11.28125 2.90625 10.5 C 3.109375 10.578125 3.3125 10.625 3.53125 10.625 C 4.5625 10.625 5.421875 9.765625 5.421875 8.71875 C 5.421875 7.609375 4.609375 6.671875 3.53125 6.671875 C 2.34375 6.671875 1.296875 7.5625 1.296875 8.71875 C 1.296875 10.890625 3.03125 12.65625 5.171875 12.65625 Z M 7.984375 -3.015625 C 10.21875 -2.765625 11.421875 -0.96875 11.421875 0.796875 C 11.421875 2.171875 10.703125 3.5 9.1875 4.046875 C 8.9375 1.8125 8.359375 -1.234375 7.984375 -3.015625 Z M 1.46875 -0.5625 C 1.46875 -3.75 3.578125 -6.171875 5.71875 -8.59375 C 6.0625 -7.4375 6.359375 -6.25 6.640625 -5.09375 C 4.609375 -4.640625 3.453125 -2.921875 3.453125 -1.171875 C 3.453125 1.3125 5.65625 2.546875 5.953125 2.546875 C 6.203125 2.546875 6.390625 2.328125 6.390625 2.109375 C 6.390625 2.015625 6.359375 1.90625 6.25 1.8125 C 5.140625 1.171875 4.640625 0.234375 4.640625 -0.640625 C 4.640625 -1.796875 5.53125 -2.84375 7.109375 -3.015625 C 7.796875 0.203125 8.234375 2.96875 8.359375 4.25 C 7.890625 4.328125 7.4375 4.359375 7.015625 4.359375 C 3.421875 4.359375 1.46875 1.671875 1.46875 -0.5625 Z M 7.109375 -23.78125 C 6.8125 -23.78125 3.9375 -21.671875 3.9375 -17.90625 C 3.9375 -14.40625 4.40625 -12.921875 4.984375 -11.015625 C 2.65625 -8.328125 0.046875 -5.75 0.046875 -2.234375 C 0.046875 0.890625 2.09375 5.21875 6.859375 5.21875 C 7.34375 5.21875 7.890625 5.15625 8.453125 5.0625 C 8.5 5.671875 8.53125 6.28125 8.53125 6.890625 C 8.53125 7.25 8.5 7.625 8.484375 7.984375 C 8.359375 9.953125 7.171875 11.75 5.3125 11.796875 L 5.296875 12.65625 C 7.5625 12.59375 9.1875 10.484375 9.328125 8.109375 C 9.34375 7.734375 9.359375 7.328125 9.359375 6.953125 C 9.359375 6.25 9.328125 5.5625 9.265625 4.859375 C 11.375 4.203125 12.84375 2.234375 12.84375 -0.015625 C 12.84375 -2.671875 10.859375 -5.234375 7.765625 -5.234375 C 7.6875 -5.234375 7.59375 -5.21875 7.484375 -5.21875 C 7.15625 -6.59375 6.796875 -7.984375 6.375 -9.34375 C 8.25 -11.515625 9.953125 -13.75 9.953125 -16.59375 C 9.953125 -19.6875 7.671875 -23.78125 7.109375 -23.78125 Z M 4.921875 -15.578125 C 4.921875 -18.890625 7.15625 -20.34375 8.125 -20.8125 C 8.421875 -19.921875 8.546875 -19.078125 8.546875 -18.28125 C 8.546875 -15.8125 7.25 -13.78125 5.625 -11.796875 C 5.15625 -13.28125 4.921875 -14.484375 4.921875 -15.578125 Z M 4.921875 -15.578125 " />
</g>
<g id="glyph-1-0">
<path d="M 3.203125 -0.640625 C 2.78125 -0.640625 2.609375 -1 2.609375 -1.515625 C 2.609375 -2.75 3.609375 -4.84375 4.640625 -4.84375 C 5 -4.84375 5.140625 -4.546875 5.140625 -4.1875 C 5.140625 -3.859375 4.65625 -0.640625 3.203125 -0.640625 Z M -1.0625 -2.8125 C -1.0625 -2.65625 -0.9375 -2.5625 -0.78125 -2.5625 C -0.59375 -2.5625 -0.390625 -2.671875 -0.296875 -2.90625 C 0.015625 -3.640625 0.625 -4.84375 1.28125 -4.84375 C 1.453125 -4.84375 1.5 -4.71875 1.5 -4.5625 C 1.5 -4.4375 1.453125 -4.296875 1.421875 -4.15625 L -0.625 1.8125 C -0.921875 2.6875 -2.65625 1.96875 -2.65625 2.625 C -2.65625 2.765625 -2.546875 2.90625 -2.375 2.90625 C -2.3125 2.90625 -1.375 2.8125 -0.0625 2.8125 C 1.21875 2.8125 2.21875 2.90625 2.234375 2.90625 C 2.40625 2.90625 2.484375 2.765625 2.484375 2.625 C 2.484375 2.15625 1.328125 2.484375 1.328125 1.8125 C 1.328125 1.75 1.359375 1.6875 1.375 1.65625 L 1.953125 -0.0625 C 1.984375 -0.203125 2.078125 -0.265625 2.171875 -0.265625 C 2.453125 -0.265625 2.96875 0.15625 3.9375 0.15625 C 5.015625 0.15625 7.109375 -1.1875 7.109375 -3.546875 C 7.109375 -4.84375 6.359375 -5.8125 4.984375 -5.8125 C 4.265625 -5.8125 3.5 -5.40625 2.921875 -4.78125 C 2.78125 -5.40625 2.3125 -5.8125 1.609375 -5.8125 C -0.046875 -5.8125 -1.0625 -2.84375 -1.0625 -2.8125 Z M -1.0625 -2.8125 " />
</g>
<g id="glyph-2-0">
<path d="M 2.953125 -3.171875 C 3.375 -3.296875 3.53125 -3.375 3.75 -3.5 C 4.15625 -3.78125 4.40625 -4.25 4.40625 -4.75 C 4.40625 -5.5625 3.75 -6.125 2.765625 -6.125 C 1.8125 -6.125 1.015625 -5.53125 1.015625 -4.828125 C 1.015625 -4.46875 1.234375 -4.21875 1.5625 -4.21875 C 1.859375 -4.21875 2.0625 -4.4375 2.0625 -4.71875 C 2.0625 -4.859375 2.015625 -4.96875 1.875 -5.109375 C 1.796875 -5.1875 1.765625 -5.25 1.765625 -5.3125 C 1.765625 -5.515625 2.1875 -5.734375 2.609375 -5.734375 C 3.1875 -5.734375 3.53125 -5.40625 3.53125 -4.875 C 3.53125 -4.09375 2.984375 -3.375 2.40625 -3.375 C 2.375 -3.375 2.296875 -3.375 2.203125 -3.390625 C 1.953125 -3.40625 1.953125 -3.40625 1.890625 -3.40625 C 1.703125 -3.40625 1.59375 -3.3125 1.59375 -3.15625 C 1.59375 -3.015625 1.703125 -2.9375 1.859375 -2.9375 C 1.890625 -2.9375 1.953125 -2.9375 2.03125 -2.953125 C 2.15625 -2.96875 2.28125 -2.984375 2.359375 -2.984375 C 2.765625 -2.984375 3.046875 -2.625 3.046875 -2.078125 C 3.046875 -1.65625 2.953125 -1.265625 2.765625 -0.9375 C 2.5 -0.46875 2.09375 -0.234375 1.53125 -0.234375 C 1.046875 -0.234375 0.625 -0.484375 0.625 -0.75 C 0.625 -0.859375 0.65625 -0.890625 0.796875 -0.953125 C 1.046875 -1.0625 1.15625 -1.21875 1.15625 -1.453125 C 1.15625 -1.765625 0.90625 -2 0.59375 -2 C 0.21875 -2 -0.015625 -1.703125 -0.015625 -1.25 C -0.015625 -0.40625 0.625 0.125 1.671875 0.125 C 2.984375 0.125 3.984375 -0.75 3.984375 -1.921875 C 3.984375 -2.234375 3.890625 -2.5 3.703125 -2.71875 C 3.515625 -2.9375 3.34375 -3.046875 2.953125 -3.171875 Z M 2.953125 -3.171875 " />
</g>
<g id="glyph-3-0">
<path d="M -1.828125 10.046875 C -1.828125 16.96875 -4.625 25.09375 -4.625 32.671875 C -4.625 42 0 45.8125 0 45.8125 C 0.15625 45.8125 0.390625 45.65625 0.390625 45.421875 C 0.390625 45.34375 -2.953125 42.15625 -2.953125 35.140625 C -2.953125 28.28125 -0.234375 20.40625 -0.234375 12.90625 C -0.234375 8.28125 -1.28125 3.90625 -4.546875 0 C -1.28125 -3.90625 -0.234375 -8.28125 -0.234375 -12.90625 C -0.234375 -20.40625 -2.953125 -28.28125 -2.953125 -35.140625 C -2.953125 -42.546875 0.390625 -44.859375 0.390625 -45.421875 C 0.390625 -45.65625 0.15625 -45.8125 0 -45.8125 C -0.15625 -45.8125 -4.625 -41.75 -4.625 -32.671875 C -4.625 -25.09375 -1.828125 -16.96875 -1.828125 -10.046875 C -1.828125 -2.703125 -5.09375 -0.484375 -5.09375 0 C -5.09375 0.078125 -1.828125 3.109375 -1.828125 10.046875 Z M -1.828125 10.046875 " />
</g>
</g>
</defs>
<path fill="none" stroke-width="0.1" stroke-linecap="round" stroke-linejoin="miter" stroke="#ffffff" stroke-opacity="1" stroke-miterlimit="10" d="M 1.757347 -11.34708 L 2281.864084 -11.34708 " transform="matrix(4.98132, 0, 0, -4.98132, 0, 0)" />
<path fill="none" stroke-width="0.1" stroke-linecap="round" stroke-linejoin="miter" stroke="#ffffff" stroke-opacity="1" stroke-miterlimit="10" d="M 1.757347 -10.347251 L 2281.864084 -10.347251 " transform="matrix(4.98132, 0, 0, -4.98132, 0, 0)" />
<path fill="none" stroke-width="0.1" stroke-linecap="round" stroke-linejoin="miter" stroke="#ffffff" stroke-opacity="1" stroke-miterlimit="10" d="M 1.757347 -9.347422 L 2281.864084 -9.347422 " transform="matrix(4.98132, 0, 0, -4.98132, 0, 0)" />
<path fill="none" stroke-width="0.1" stroke-linecap="round" stroke-linejoin="miter" stroke="#ffffff" stroke-opacity="1" stroke-miterlimit="10" d="M 1.757347 -8.346809 L 2281.864084 -8.346809 " transform="matrix(4.98132, 0, 0, -4.98132, 0, 0)" />
<path fill="none" stroke-width="0.1" stroke-linecap="round" stroke-linejoin="miter" stroke="#ffffff" stroke-opacity="1" stroke-miterlimit="10" d="M 1.757347 -7.346979 L 2281.864084 -7.346979 " transform="matrix(4.98132, 0, 0, -4.98132, 0, 0)" />
<path fill-rule="nonzero" fill="#ffffff" fill-opacity="1" d="M 6600.601562 133.1875 C 6600.875 133.1875 6601.097656 132.960938 6601.097656 132.6875 C 6601.097656 132.414062 6600.875 132.1875 6600.601562 132.1875 L 6591.304688 132.1875 C 6591.03125 132.1875 6590.804688 132.414062 6590.804688 132.6875 C 6590.804688 132.960938 6591.03125 133.1875 6591.304688 133.1875 Z M 6600.601562 133.1875 " />
<path fill-rule="nonzero" fill="#ffffff" fill-opacity="1" d="M 6600.601562 138.167969 C 6600.875 138.167969 6601.097656 137.941406 6601.097656 137.667969 C 6601.097656 137.394531 6600.875 137.167969 6600.601562 137.167969 L 6591.304688 137.167969 C 6591.03125 137.167969 6590.804688 137.394531 6590.804688 137.667969 C 6590.804688 137.941406 6591.03125 138.167969 6591.304688 138.167969 Z M 6600.601562 138.167969 " />
<path fill-rule="nonzero" fill="#ffffff" fill-opacity="1" d="M 6600.601562 143.152344 C 6600.875 143.152344 6601.097656 142.925781 6601.097656 142.652344 C 6601.097656 142.378906 6600.875 142.152344 6600.601562 142.152344 L 6591.304688 142.152344 C 6591.03125 142.152344 6590.804688 142.378906 6590.804688 142.652344 C 6590.804688 142.925781 6591.03125 143.152344 6591.304688 143.152344 Z M 6600.601562 143.152344 " />
<path fill-rule="nonzero" fill="#ffffff" fill-opacity="1" d="M 6436.1875 133.1875 C 6436.460938 133.1875 6436.683594 132.960938 6436.683594 132.6875 C 6436.683594 132.414062 6436.460938 132.1875 6436.1875 132.1875 L 6422.523438 132.1875 C 6422.25 132.1875 6422.023438 132.414062 6422.023438 132.6875 C 6422.023438 132.960938 6422.25 133.1875 6422.523438 133.1875 Z M 6436.1875 133.1875 " />
<path fill-rule="nonzero" fill="#ffffff" fill-opacity="1" d="M 6436.1875 138.167969 C 6436.460938 138.167969 6436.683594 137.941406 6436.683594 137.667969 C 6436.683594 137.394531 6436.460938 137.167969 6436.1875 137.167969 L 6422.523438 137.167969 C 6422.25 137.167969 6422.023438 137.394531 6422.023438 137.667969 C 6422.023438 137.941406 6422.25 138.167969 6422.523438 138.167969 Z M 6436.1875 138.167969 " />
<path fill-rule="nonzero" fill="#ffffff" fill-opacity="1" d="M 6436.1875 143.152344 C 6436.460938 143.152344 6436.683594 142.925781 6436.683594 142.652344 C 6436.683594 142.378906 6436.460938 142.152344 6436.1875 142.152344 L 6422.523438 142.152344 C 6422.25 142.152344 6422.023438 142.378906 6422.023438 142.652344 C 6422.023438 142.925781 6422.25 143.152344 6422.523438 143.152344 Z M 6436.1875 143.152344 " />
<path fill-rule="nonzero" fill="#ffffff" fill-opacity="1" d="M 6271.605469 133.1875 C 6271.878906 133.1875 6272.101562 132.960938 6272.101562 132.6875 C 6272.101562 132.414062 6271.878906 132.1875 6271.605469 132.1875 L 6257.941406 132.1875 C 6257.667969 132.1875 6257.441406 132.414062 6257.441406 132.6875 C 6257.441406 132.960938 6257.667969 133.1875 6257.941406 133.1875 Z M 6271.605469 133.1875 " />
<path fill-rule="nonzero" fill="#ffffff" fill-opacity="1" d="M 6271.605469 138.167969 C 6271.878906 138.167969 6272.101562 137.941406 6272.101562 137.667969 C 6272.101562 137.394531 6271.878906 137.167969 6271.605469 137.167969 L 6257.941406 137.167969 C 6257.667969 137.167969 6257.441406 137.394531 6257.441406 137.667969 C 6257.441406 137.941406 6257.667969 138.167969 6257.941406 138.167969 Z M 6271.605469 138.167969 " />
<path fill-rule="nonzero" fill="#ffffff" fill-opacity="1" d="M 6271.605469 143.152344 C 6271.878906 143.152344 6272.101562 142.925781 6272.101562 142.652344 C 6272.101562 142.378906 6271.878906 142.152344 6271.605469 142.152344 L 6257.941406 142.152344 C 6257.667969 142.152344 6257.441406 142.378906 6257.441406 142.652344 C 6257.441406 142.925781 6257.667969 143.152344 6257.941406 143.152344 Z M 6271.605469 143.152344 " />
<path fill="none" stroke-width="0.1" stroke-linecap="round" stroke-linejoin="miter" stroke="#ffffff" stroke-opacity="1" stroke-miterlimit="10" d="M 1.757347 -25.637187 L 2281.864084 -25.637187 " transform="matrix(4.98132, 0, 0, -4.98132, 0, 0)" />
<path fill="none" stroke-width="0.1" stroke-linecap="round" stroke-linejoin="miter" stroke="#ffffff" stroke-opacity="1" stroke-miterlimit="10" d="M 1.757347 -24.637357 L 2281.864084 -24.637357 " transform="matrix(4.98132, 0, 0, -4.98132, 0, 0)" />
<path fill="none" stroke-width="0.1" stroke-linecap="round" stroke-linejoin="miter" stroke="#ffffff" stroke-opacity="1" stroke-miterlimit="10" d="M 1.757347 -23.637528 L 2281.864084 -23.637528 " transform="matrix(4.98132, 0, 0, -4.98132, 0, 0)" />
<path fill="none" stroke-width="0.1" stroke-linecap="round" stroke-linejoin="miter" stroke="#ffffff" stroke-opacity="1" stroke-miterlimit="10" d="M 1.757347 -22.636915 L 2281.864084 -22.636915 " transform="matrix(4.98132, 0, 0, -4.98132, 0, 0)" />
<path fill="none" stroke-width="0.1" stroke-linecap="round" stroke-linejoin="miter" stroke="#ffffff" stroke-opacity="1" stroke-miterlimit="10" d="M 1.757347 -21.637086 L 2281.864084 -21.637086 " transform="matrix(4.98132, 0, 0, -4.98132, 0, 0)" />
<path fill-rule="nonzero" fill="#ffffff" fill-opacity="1" d="M 6581.363281 107.78125 L 6581.363281 56.773438 L 6582.308594 56.773438 L 6582.308594 107.78125 Z M 6581.363281 107.78125 " />
<path fill-rule="nonzero" fill="#ffffff" fill-opacity="1" d="M 6581.363281 127.707031 L 6581.363281 107.53125 L 6582.308594 107.53125 L 6582.308594 127.707031 Z M 6581.363281 127.707031 " />
<path fill-rule="nonzero" fill="#ffffff" fill-opacity="1" d="M 6581.363281 56.773438 L 6581.363281 36.597656 L 6582.308594 36.597656 L 6582.308594 56.773438 Z M 6581.363281 56.773438 " />
<path fill-rule="nonzero" fill="#ffffff" fill-opacity="1" d="M 6413.3125 107.78125 L 6413.3125 56.773438 L 6414.257812 56.773438 L 6414.257812 107.78125 Z M 6413.3125 107.78125 " />
<path fill-rule="nonzero" fill="#ffffff" fill-opacity="1" d="M 6413.3125 127.707031 L 6413.3125 107.53125 L 6414.257812 107.53125 L 6414.257812 127.707031 Z M 6413.3125 127.707031 " />
<path fill-rule="nonzero" fill="#ffffff" fill-opacity="1" d="M 6413.3125 56.773438 L 6413.3125 36.597656 L 6414.257812 36.597656 L 6414.257812 56.773438 Z M 6413.3125 56.773438 " />
<path fill-rule="nonzero" fill="#ffffff" fill-opacity="1" d="M 6248.726562 107.78125 L 6248.726562 56.773438 L 6249.671875 56.773438 L 6249.671875 107.78125 Z M 6248.726562 107.78125 " />
<path fill-rule="nonzero" fill="#ffffff" fill-opacity="1" d="M 6248.726562 127.707031 L 6248.726562 107.53125 L 6249.671875 107.53125 L 6249.671875 127.707031 Z M 6248.726562 127.707031 " />
<path fill-rule="nonzero" fill="#ffffff" fill-opacity="1" d="M 6248.726562 56.773438 L 6248.726562 36.597656 L 6249.671875 36.597656 L 6249.671875 56.773438 Z M 6248.726562 56.773438 " />
<path fill="none" stroke-width="0.08" stroke-linecap="butt" stroke-linejoin="round" stroke="#ffffff" stroke-opacity="1" stroke-miterlimit="10" d="M 1337.484328 -4.647049 L 1337.484328 -5.04698 L 1324.66299 -5.04698 L 1324.66299 -4.647049 Z M 1337.484328 -4.647049 " transform="matrix(4.98132, 0, 0, -4.98132, 0, 0)" />
<path fill-rule="nonzero" fill="#ffffff" fill-opacity="1" d="M 6662.4375 23.148438 L 6662.4375 25.140625 L 6598.570312 25.140625 L 6598.570312 23.148438 Z M 6662.4375 23.148438 " />
<path fill="none" stroke-width="0.08" stroke-linecap="butt" stroke-linejoin="round" stroke="#ffffff" stroke-opacity="1" stroke-miterlimit="10" d="M 1319.968891 -4.647049 L 1319.968891 -5.04698 L 1306.64803 -5.04698 L 1306.64803 -4.647049 Z M 1319.968891 -4.647049 " transform="matrix(4.98132, 0, 0, -4.98132, 0, 0)" />
<path fill-rule="nonzero" fill="#ffffff" fill-opacity="1" d="M 6575.1875 23.148438 L 6575.1875 25.140625 L 6508.832031 25.140625 L 6508.832031 23.148438 Z M 6575.1875 23.148438 " />
<path fill="none" stroke-width="0.08" stroke-linecap="butt" stroke-linejoin="round" stroke="#ffffff" stroke-opacity="1" stroke-miterlimit="10" d="M 1303.748134 -4.647049 L 1303.748134 -5.04698 L 1290.926796 -5.04698 L 1290.926796 -4.647049 Z M 1303.748134 -4.647049 " transform="matrix(4.98132, 0, 0, -4.98132, 0, 0)" />
<path fill-rule="nonzero" fill="#ffffff" fill-opacity="1" d="M 6494.386719 23.148438 L 6494.386719 25.140625 L 6430.519531 25.140625 L 6430.519531 23.148438 Z M 6494.386719 23.148438 " />
<path fill="none" stroke-width="0.08" stroke-linecap="round" stroke-linejoin="round" stroke="#ffffff" stroke-opacity="1" stroke-miterlimit="10" d="M 0.0650869 -3.695055 C 2.482713 -5.501805 16.601084 -5.501805 19.019494 -3.695055 C 16.601084 -5.381825 2.482713 -5.381825 0.0650869 -3.695055 Z M 0.0650869 -3.695055 " transform="matrix(4.98132, 0, 0, -4.98132, 6502.78125, 46.5625)" />
<path fill-rule="nonzero" fill="#ffffff" fill-opacity="1" d="M 6503.105469 64.96875 C 6515.148438 73.96875 6585.476562 73.96875 6597.523438 64.96875 C 6585.476562 73.371094 6515.148438 73.371094 6503.105469 64.96875 Z M 6503.105469 64.96875 " />
<path fill="none" stroke-width="0.08" stroke-linecap="butt" stroke-linejoin="round" stroke="#ffffff" stroke-opacity="1" stroke-miterlimit="10" d="M 1286.231912 -4.647049 L 1286.231912 -5.04698 L 1272.911052 -5.04698 L 1272.911052 -4.647049 Z M 1286.231912 -4.647049 " transform="matrix(4.98132, 0, 0, -4.98132, 0, 0)" />
<path fill-rule="nonzero" fill="#ffffff" fill-opacity="1" d="M 6407.132812 23.148438 L 6407.132812 25.140625 L 6340.777344 25.140625 L 6340.777344 23.148438 Z M 6407.132812 23.148438 " />
<path fill="none" stroke-width="0.08" stroke-linecap="butt" stroke-linejoin="round" stroke="#ffffff" stroke-opacity="1" stroke-miterlimit="10" d="M 1270.707507 -4.647049 L 1270.707507 -5.04698 L 1257.886169 -5.04698 L 1257.886169 -4.647049 Z M 1270.707507 -4.647049 " transform="matrix(4.98132, 0, 0, -4.98132, 0, 0)" />
<path fill-rule="nonzero" fill="#ffffff" fill-opacity="1" d="M 6329.800781 23.148438 L 6329.800781 25.140625 L 6265.933594 25.140625 L 6265.933594 23.148438 Z M 6329.800781 23.148438 " />
<path fill="none" stroke-width="0.08" stroke-linecap="round" stroke-linejoin="round" stroke="#ffffff" stroke-opacity="1" stroke-miterlimit="10" d="M 0.0650869 -3.695055 C 2.482713 -5.501805 16.601084 -5.501805 19.019494 -3.695055 C 16.601084 -5.381825 2.482713 -5.381825 0.0650869 -3.695055 Z M 0.0650869 -3.695055 " transform="matrix(4.98132, 0, 0, -4.98132, 6334.730469, 46.5625)" />
<path fill-rule="nonzero" fill="#ffffff" fill-opacity="1" d="M 6335.054688 64.96875 C 6347.097656 73.96875 6417.425781 73.96875 6429.472656 64.96875 C 6417.425781 73.371094 6347.097656 73.371094 6335.054688 64.96875 Z M 6335.054688 64.96875 " />
<path fill="none" stroke-width="0.08" stroke-linecap="butt" stroke-linejoin="round" stroke="#ffffff" stroke-opacity="1" stroke-miterlimit="10" d="M 1253.192069 -4.647049 L 1253.192069 -5.04698 L 1240.246047 -5.04698 L 1240.246047 -4.647049 Z M 1253.192069 -4.647049 " transform="matrix(4.98132, 0, 0, -4.98132, 0, 0)" />
<path fill-rule="nonzero" fill="#ffffff" fill-opacity="1" d="M 6242.550781 23.148438 L 6242.550781 25.140625 L 6178.0625 25.140625 L 6178.0625 23.148438 Z M 6242.550781 23.148438 " />
<path fill="none" stroke-width="0.08" stroke-linecap="round" stroke-linejoin="round" stroke="#ffffff" stroke-opacity="1" stroke-miterlimit="10" d="M 0.0650869 -3.695055 C 2.330582 -5.460243 13.999176 -5.460243 16.265455 -3.695055 C 13.999176 -5.340264 2.330582 -5.340264 0.0650869 -3.695055 Z M 0.0650869 -3.695055 " transform="matrix(4.98132, 0, 0, -4.98132, 6183.863281, 46.5625)" />
<path fill-rule="nonzero" fill="#ffffff" fill-opacity="1" d="M 6184.1875 64.96875 C 6195.472656 73.761719 6253.597656 73.761719 6264.886719 64.96875 C 6253.597656 73.164062 6195.472656 73.164062 6184.1875 64.96875 Z M 6184.1875 64.96875 " />
<path fill="none" stroke-width="0.08" stroke-linecap="butt" stroke-linejoin="round" stroke="#ffffff" stroke-opacity="1" stroke-miterlimit="10" d="M 1237.542195 -4.337298 L 1237.542195 -4.737229 L 1220.624303 -4.737229 L 1220.624303 -4.337298 Z M 1237.542195 -4.337298 " transform="matrix(4.98132, 0, 0, -4.98132, 0, 0)" />
<path fill-rule="nonzero" fill="#ffffff" fill-opacity="1" d="M 6164.59375 21.605469 L 6164.59375 23.597656 L 6080.320312 23.597656 L 6080.320312 21.605469 Z M 6164.59375 21.605469 " />
<path fill="none" stroke-width="0.08" stroke-linecap="round" stroke-linejoin="round" stroke="#ffffff" stroke-opacity="1" stroke-miterlimit="10" d="M 0.643027 4.545105 C 3.796998 6.571426 46.603799 7.445786 49.83854 5.54964 C 46.606151 7.325807 3.800135 6.451446 0.643027 4.545105 Z M 0.643027 4.545105 " transform="matrix(4.98132, 0, 0, -4.98132, 5916.160156, 46.5625)" />
<path fill-rule="nonzero" fill="#ffffff" fill-opacity="1" d="M 5919.363281 23.921875 C 5935.074219 13.828125 6148.308594 9.472656 6164.421875 18.917969 C 6148.320312 10.070312 5935.089844 14.425781 5919.363281 23.921875 Z M 5919.363281 23.921875 " />
<g fill="#ffffff" fill-opacity="1">
<use xlink:href="#glyph-0-0" x="6130.355469" y="36.597656" />
</g>
<g fill="#ffffff" fill-opacity="1">
<use xlink:href="#glyph-0-10" x="6114.683594" y="41.578125" />
</g>
<g fill="#ffffff" fill-opacity="1">
<use xlink:href="#glyph-0-0" x="6147.066406" y="34.109375" />
</g>
<path fill-rule="nonzero" fill="#ffffff" fill-opacity="1" d="M 6153.363281 33.183594 C 6153.472656 33.183594 6153.5625 33.09375 6153.5625 32.984375 L 6153.5625 22.804688 C 6153.5625 22.695312 6153.472656 22.605469 6153.363281 22.605469 L 6153.113281 22.605469 C 6153.003906 22.605469 6152.914062 22.695312 6152.914062 22.804688 L 6152.914062 32.984375 C 6152.914062 33.09375 6153.003906 33.183594 6153.113281 33.183594 Z M 6153.363281 33.183594 " />
<g fill="#ffffff" fill-opacity="1">
<use xlink:href="#glyph-0-3" x="6139.84375" y="34.109375" />
</g>
<g fill="#ffffff" fill-opacity="1">
<use xlink:href="#glyph-0-0" x="6158.292969" y="41.578125" />
</g>
<path fill-rule="nonzero" fill="#ffffff" fill-opacity="1" d="M 6164.589844 40.652344 C 6164.699219 40.652344 6164.789062 40.5625 6164.789062 40.453125 L 6164.789062 22.800781 C 6164.789062 22.691406 6164.699219 22.601562 6164.589844 22.601562 L 6164.339844 22.601562 C 6164.230469 22.601562 6164.140625 22.691406 6164.140625 22.800781 L 6164.140625 40.453125 C 6164.140625 40.5625 6164.230469 40.652344 6164.339844 40.652344 Z M 6164.589844 40.652344 " />
<g fill="#ffffff" fill-opacity="1">
<use xlink:href="#glyph-0-0" x="6172.011719" y="36.597656" />
</g>
<g fill="#ffffff" fill-opacity="1">
<use xlink:href="#glyph-0-0" x="6172.011719" y="36.597656" />
</g>
<path fill-rule="nonzero" fill="#ffffff" fill-opacity="1" d="M 6172.460938 54.035156 C 6172.570312 54.035156 6172.660156 53.945312 6172.660156 53.835938 L 6172.660156 37.726562 C 6172.660156 37.617188 6172.570312 37.527344 6172.460938 37.527344 L 6172.210938 37.527344 C 6172.101562 37.527344 6172.011719 37.617188 6172.011719 37.726562 L 6172.011719 53.835938 C 6172.011719 53.945312 6172.101562 54.035156 6172.210938 54.035156 Z M 6172.460938 54.035156 " />
<g fill="#ffffff" fill-opacity="1">
<use xlink:href="#glyph-0-11" x="6172.660156" y="53.832031" />
</g>
<path fill-rule="nonzero" fill="#ffffff" fill-opacity="1" d="M 6178.3125 35.671875 C 6178.421875 35.671875 6178.511719 35.582031 6178.511719 35.472656 L 6178.511719 24.34375 C 6178.511719 24.234375 6178.421875 24.144531 6178.3125 24.144531 L 6178.0625 24.144531 C 6177.953125 24.144531 6177.863281 24.234375 6177.863281 24.34375 L 6177.863281 35.472656 C 6177.863281 35.582031 6177.953125 35.671875 6178.0625 35.671875 Z M 6178.3125 35.671875 " />
<g fill="#ffffff" fill-opacity="1">
<use xlink:href="#glyph-0-0" x="6183.863281" y="46.5625" />
</g>
<g fill="#ffffff" fill-opacity="1">
<use xlink:href="#glyph-0-0" x="6183.863281" y="46.5625" />
</g>
<path fill-rule="nonzero" fill="#ffffff" fill-opacity="1" d="M 6184.3125 63.167969 C 6184.421875 63.167969 6184.511719 63.078125 6184.511719 62.96875 L 6184.511719 47.691406 C 6184.511719 47.582031 6184.421875 47.492188 6184.3125 47.492188 L 6184.0625 47.492188 C 6183.953125 47.492188 6183.863281 47.582031 6183.863281 47.691406 L 6183.863281 62.96875 C 6183.863281 63.078125 6183.953125 63.167969 6184.0625 63.167969 Z M 6184.3125 63.167969 " />
<path fill-rule="nonzero" fill="#ffffff" fill-opacity="1" d="M 6190.164062 45.636719 C 6190.273438 45.636719 6190.363281 45.546875 6190.363281 45.4375 L 6190.363281 24.347656 C 6190.363281 24.238281 6190.273438 24.148438 6190.164062 24.148438 L 6189.914062 24.148438 C 6189.804688 24.148438 6189.714844 24.238281 6189.714844 24.347656 L 6189.714844 45.4375 C 6189.714844 45.546875 6189.804688 45.636719 6189.914062 45.636719 Z M 6190.164062 45.636719 " />
<g fill="#ffffff" fill-opacity="1">
<use xlink:href="#glyph-0-0" x="6197.585938" y="41.578125" />
</g>
<path fill-rule="nonzero" fill="#ffffff" fill-opacity="1" d="M 6203.882812 40.652344 C 6203.992188 40.652344 6204.082031 40.5625 6204.082031 40.453125 L 6204.082031 24.34375 C 6204.082031 24.234375 6203.992188 24.144531 6203.882812 24.144531 L 6203.632812 24.144531 C 6203.523438 24.144531 6203.433594 24.234375 6203.433594 24.34375 L 6203.433594 40.453125 C 6203.433594 40.5625 6203.523438 40.652344 6203.632812 40.652344 Z M 6203.882812 40.652344 " />
<g fill="#ffffff" fill-opacity="1">
<use xlink:href="#glyph-0-0" x="6208.8125" y="49.050781" />
</g>
<g fill="#ffffff" fill-opacity="1">
<use xlink:href="#glyph-0-0" x="6208.8125" y="49.050781" />
</g>
<path fill-rule="nonzero" fill="#ffffff" fill-opacity="1" d="M 6209.261719 64.828125 C 6209.371094 64.828125 6209.460938 64.738281 6209.460938 64.628906 L 6209.460938 50.179688 C 6209.460938 50.070312 6209.371094 49.980469 6209.261719 49.980469 L 6209.011719 49.980469 C 6208.902344 49.980469 6208.8125 50.070312 6208.8125 50.179688 L 6208.8125 64.628906 C 6208.8125 64.738281 6208.902344 64.828125 6209.011719 64.828125 Z M 6209.261719 64.828125 " />
<path fill-rule="nonzero" fill="#ffffff" fill-opacity="1" d="M 6215.109375 48.125 C 6215.21875 48.125 6215.308594 48.035156 6215.308594 47.925781 L 6215.308594 24.34375 C 6215.308594 24.234375 6215.21875 24.144531 6215.109375 24.144531 L 6214.859375 24.144531 C 6214.75 24.144531 6214.660156 24.234375 6214.660156 24.34375 L 6214.660156 47.925781 C 6214.660156 48.035156 6214.75 48.125 6214.859375 48.125 Z M 6215.109375 48.125 " />
<g fill="#ffffff" fill-opacity="1">
<use xlink:href="#glyph-0-0" x="6222.53125" y="41.578125" />
</g>
<path fill-rule="nonzero" fill="#ffffff" fill-opacity="1" d="M 6228.832031 40.652344 C 6228.941406 40.652344 6229.03125 40.5625 6229.03125 40.453125 L 6229.03125 24.34375 C 6229.03125 24.234375 6228.941406 24.144531 6228.832031 24.144531 L 6228.582031 24.144531 C 6228.472656 24.144531 6228.382812 24.234375 6228.382812 24.34375 L 6228.382812 40.453125 C 6228.382812 40.5625 6228.472656 40.652344 6228.582031 40.652344 Z M 6228.832031 40.652344 " />
<g fill="#ffffff" fill-opacity="1">
<use xlink:href="#glyph-0-0" x="6236.253906" y="36.597656" />
</g>
<path fill-rule="nonzero" fill="#ffffff" fill-opacity="1" d="M 6242.550781 35.671875 C 6242.660156 35.671875 6242.75 35.582031 6242.75 35.472656 L 6242.75 24.34375 C 6242.75 24.234375 6242.660156 24.144531 6242.550781 24.144531 L 6242.300781 24.144531 C 6242.191406 24.144531 6242.101562 24.234375 6242.101562 24.34375 L 6242.101562 35.472656 C 6242.101562 35.582031 6242.191406 35.671875 6242.300781 35.671875 Z M 6242.550781 35.671875 " />
<g fill="#ffffff" fill-opacity="1">
<use xlink:href="#glyph-0-1" x="6266.382812" y="51.542969" />
</g>
<g fill="#ffffff" fill-opacity="1">
<use xlink:href="#glyph-0-0" x="6259.882812" y="51.542969" />
</g>
<g fill="#ffffff" fill-opacity="1">
<use xlink:href="#glyph-0-4" x="6259.882812" y="127.707031" />
</g>
<g fill="#ffffff" fill-opacity="1">
<use xlink:href="#glyph-0-4" x="6259.882812" y="145.140625" />
</g>
<path fill-rule="nonzero" fill="#ffffff" fill-opacity="1" d="M 6266.832031 66.488281 C 6266.941406 66.488281 6267.03125 66.398438 6267.03125 66.289062 L 6267.03125 53.035156 C 6267.03125 52.921875 6266.941406 52.835938 6266.832031 52.835938 L 6266.582031 52.835938 C 6266.472656 52.835938 6266.382812 52.921875 6266.382812 53.035156 L 6266.382812 66.289062 C 6266.382812 66.398438 6266.472656 66.488281 6266.582031 66.488281 Z M 6266.832031 66.488281 " />
<path fill-rule="nonzero" fill="#ffffff" fill-opacity="1" d="M 6266.183594 50.617188 C 6266.292969 50.617188 6266.382812 50.527344 6266.382812 50.417969 L 6266.382812 24.347656 C 6266.382812 24.238281 6266.292969 24.148438 6266.183594 24.148438 L 6265.933594 24.148438 C 6265.824219 24.148438 6265.734375 24.238281 6265.734375 24.347656 L 6265.734375 50.417969 C 6265.734375 50.527344 6265.824219 50.617188 6265.933594 50.617188 Z M 6266.183594 50.617188 " />
<g fill="#ffffff" fill-opacity="1">
<use xlink:href="#glyph-0-3" x="6252.660156" y="51.542969" />
</g>
<g fill="#ffffff" fill-opacity="1">
<use xlink:href="#glyph-0-3" x="6252.660156" y="51.542969" />
</g>
<g fill="#ffffff" fill-opacity="1">
<use xlink:href="#glyph-0-0" x="6273.605469" y="41.578125" />
</g>
<path fill-rule="nonzero" fill="#ffffff" fill-opacity="1" d="M 6279.902344 40.652344 C 6280.011719 40.652344 6280.101562 40.5625 6280.101562 40.453125 L 6280.101562 24.34375 C 6280.101562 24.234375 6280.011719 24.144531 6279.902344 24.144531 L 6279.652344 24.144531 C 6279.542969 24.144531 6279.453125 24.234375 6279.453125 24.34375 L 6279.453125 40.453125 C 6279.453125 40.5625 6279.542969 40.652344 6279.652344 40.652344 Z M 6279.902344 40.652344 " />
<g fill="#ffffff" fill-opacity="1">
<use xlink:href="#glyph-0-0" x="6286.078125" y="39.089844" />
</g>
<path fill-rule="nonzero" fill="#ffffff" fill-opacity="1" d="M 6292.375 38.164062 C 6292.484375 38.164062 6292.574219 38.074219 6292.574219 37.964844 L 6292.574219 24.347656 C 6292.574219 24.238281 6292.484375 24.148438 6292.375 24.148438 L 6292.125 24.148438 C 6292.015625 24.148438 6291.925781 24.238281 6291.925781 24.347656 L 6291.925781 37.964844 C 6291.925781 38.074219 6292.015625 38.164062 6292.125 38.164062 Z M 6292.375 38.164062 " />
<g fill="#ffffff" fill-opacity="1">
<use xlink:href="#glyph-0-0" x="6298.550781" y="36.597656" />
</g>
<path fill-rule="nonzero" fill="#ffffff" fill-opacity="1" d="M 6304.851562 35.671875 C 6304.960938 35.671875 6305.050781 35.582031 6305.050781 35.472656 L 6305.050781 24.34375 C 6305.050781 24.234375 6304.960938 24.144531 6304.851562 24.144531 L 6304.601562 24.144531 C 6304.492188 24.144531 6304.402344 24.234375 6304.402344 24.34375 L 6304.402344 35.472656 C 6304.402344 35.582031 6304.492188 35.671875 6304.601562 35.671875 Z M 6304.851562 35.671875 " />
<g fill="#ffffff" fill-opacity="1">
<use xlink:href="#glyph-0-0" x="6311.027344" y="39.089844" />
</g>
<path fill-rule="nonzero" fill="#ffffff" fill-opacity="1" d="M 6317.324219 38.164062 C 6317.433594 38.164062 6317.523438 38.074219 6317.523438 37.964844 L 6317.523438 24.347656 C 6317.523438 24.238281 6317.433594 24.148438 6317.324219 24.148438 L 6317.074219 24.148438 C 6316.964844 24.148438 6316.875 24.238281 6316.875 24.347656 L 6316.875 37.964844 C 6316.875 38.074219 6316.964844 38.164062 6317.074219 38.164062 Z M 6317.324219 38.164062 " />
<g fill="#ffffff" fill-opacity="1">
<use xlink:href="#glyph-0-0" x="6323.5" y="41.578125" />
</g>
<path fill-rule="nonzero" fill="#ffffff" fill-opacity="1" d="M 6329.800781 40.652344 C 6329.910156 40.652344 6330 40.5625 6330 40.453125 L 6330 24.34375 C 6330 24.234375 6329.910156 24.144531 6329.800781 24.144531 L 6329.550781 24.144531 C 6329.441406 24.144531 6329.351562 24.234375 6329.351562 24.34375 L 6329.351562 40.453125 C 6329.351562 40.5625 6329.441406 40.652344 6329.550781 40.652344 Z M 6329.800781 40.652344 " />
<g fill="#ffffff" fill-opacity="1">
<use xlink:href="#glyph-0-0" x="6334.730469" y="46.5625" />
</g>
<g fill="#ffffff" fill-opacity="1">
<use xlink:href="#glyph-0-0" x="6334.730469" y="46.5625" />
</g>
<path fill-rule="nonzero" fill="#ffffff" fill-opacity="1" d="M 6335.179688 63.167969 C 6335.289062 63.167969 6335.378906 63.078125 6335.378906 62.96875 L 6335.378906 47.691406 C 6335.378906 47.582031 6335.289062 47.492188 6335.179688 47.492188 L 6334.929688 47.492188 C 6334.820312 47.492188 6334.730469 47.582031 6334.730469 47.691406 L 6334.730469 62.96875 C 6334.730469 63.078125 6334.820312 63.167969 6334.929688 63.167969 Z M 6335.179688 63.167969 " />
<path fill-rule="nonzero" fill="#ffffff" fill-opacity="1" d="M 6341.027344 45.636719 C 6341.136719 45.636719 6341.226562 45.546875 6341.226562 45.4375 L 6341.226562 24.347656 C 6341.226562 24.238281 6341.136719 24.148438 6341.027344 24.148438 L 6340.777344 24.148438 C 6340.667969 24.148438 6340.578125 24.238281 6340.578125 24.347656 L 6340.578125 45.4375 C 6340.578125 45.546875 6340.667969 45.636719 6340.777344 45.636719 Z M 6341.027344 45.636719 " />
<g fill="#ffffff" fill-opacity="1">
<use xlink:href="#glyph-0-0" x="6348.449219" y="41.578125" />
</g>
<path fill-rule="nonzero" fill="#ffffff" fill-opacity="1" d="M 6354.746094 40.652344 C 6354.855469 40.652344 6354.945312 40.5625 6354.945312 40.453125 L 6354.945312 24.34375 C 6354.945312 24.234375 6354.855469 24.144531 6354.746094 24.144531 L 6354.496094 24.144531 C 6354.386719 24.144531 6354.296875 24.234375 6354.296875 24.34375 L 6354.296875 40.453125 C 6354.296875 40.5625 6354.386719 40.652344 6354.496094 40.652344 Z M 6354.746094 40.652344 " />
<g fill="#ffffff" fill-opacity="1">
<use xlink:href="#glyph-0-0" x="6362.167969" y="36.597656" />
</g>
<path fill-rule="nonzero" fill="#ffffff" fill-opacity="1" d="M 6368.46875 35.671875 C 6368.578125 35.671875 6368.667969 35.582031 6368.667969 35.472656 L 6368.667969 24.34375 C 6368.667969 24.234375 6368.578125 24.144531 6368.46875 24.144531 L 6368.21875 24.144531 C 6368.109375 24.144531 6368.019531 24.234375 6368.019531 24.34375 L 6368.019531 35.472656 C 6368.019531 35.582031 6368.109375 35.671875 6368.21875 35.671875 Z M 6368.46875 35.671875 " />
<g fill="#ffffff" fill-opacity="1">
<use xlink:href="#glyph-0-0" x="6373.398438" y="49.050781" />
</g>
<g fill="#ffffff" fill-opacity="1">
<use xlink:href="#glyph-0-0" x="6373.398438" y="49.050781" />
</g>
<path fill-rule="nonzero" fill="#ffffff" fill-opacity="1" d="M 6373.847656 64.828125 C 6373.957031 64.828125 6374.046875 64.738281 6374.046875 64.628906 L 6374.046875 50.179688 C 6374.046875 50.070312 6373.957031 49.980469 6373.847656 49.980469 L 6373.597656 49.980469 C 6373.488281 49.980469 6373.398438 50.070312 6373.398438 50.179688 L 6373.398438 64.628906 C 6373.398438 64.738281 6373.488281 64.828125 6373.597656 64.828125 Z M 6373.847656 64.828125 " />
<path fill-rule="nonzero" fill="#ffffff" fill-opacity="1" d="M 6379.695312 48.125 C 6379.804688 48.125 6379.894531 48.035156 6379.894531 47.925781 L 6379.894531 24.34375 C 6379.894531 24.234375 6379.804688 24.144531 6379.695312 24.144531 L 6379.445312 24.144531 C 6379.335938 24.144531 6379.246094 24.234375 6379.246094 24.34375 L 6379.246094 47.925781 C 6379.246094 48.035156 6379.335938 48.125 6379.445312 48.125 Z M 6379.695312 48.125 " />
<g fill="#ffffff" fill-opacity="1">
<use xlink:href="#glyph-0-0" x="6387.117188" y="41.578125" />
</g>
<path fill-rule="nonzero" fill="#ffffff" fill-opacity="1" d="M 6393.414062 40.652344 C 6393.523438 40.652344 6393.613281 40.5625 6393.613281 40.453125 L 6393.613281 24.34375 C 6393.613281 24.234375 6393.523438 24.144531 6393.414062 24.144531 L 6393.164062 24.144531 C 6393.054688 24.144531 6392.964844 24.234375 6392.964844 24.34375 L 6392.964844 40.453125 C 6392.964844 40.5625 6393.054688 40.652344 6393.164062 40.652344 Z M 6393.414062 40.652344 " />
<g fill="#ffffff" fill-opacity="1">
<use xlink:href="#glyph-0-0" x="6400.835938" y="36.597656" />
</g>
<path fill-rule="nonzero" fill="#ffffff" fill-opacity="1" d="M 6407.136719 35.671875 C 6407.246094 35.671875 6407.335938 35.582031 6407.335938 35.472656 L 6407.335938 24.34375 C 6407.335938 24.234375 6407.246094 24.144531 6407.136719 24.144531 L 6406.886719 24.144531 C 6406.777344 24.144531 6406.6875 24.234375 6406.6875 24.34375 L 6406.6875 35.472656 C 6406.6875 35.582031 6406.777344 35.671875 6406.886719 35.671875 Z M 6407.136719 35.671875 " />
<g fill="#ffffff" fill-opacity="1">
<use xlink:href="#glyph-0-1" x="6430.964844" y="51.542969" />
</g>
<g fill="#ffffff" fill-opacity="1">
<use xlink:href="#glyph-0-0" x="6424.46875" y="51.542969" />
</g>
<g fill="#ffffff" fill-opacity="1">
<use xlink:href="#glyph-0-4" x="6424.46875" y="127.707031" />
</g>
<g fill="#ffffff" fill-opacity="1">
<use xlink:href="#glyph-0-4" x="6424.46875" y="145.140625" />
</g>
<path fill-rule="nonzero" fill="#ffffff" fill-opacity="1" d="M 6431.414062 66.488281 C 6431.523438 66.488281 6431.613281 66.398438 6431.613281 66.289062 L 6431.613281 53.035156 C 6431.613281 52.921875 6431.523438 52.835938 6431.414062 52.835938 L 6431.164062 52.835938 C 6431.054688 52.835938 6430.964844 52.921875 6430.964844 53.035156 L 6430.964844 66.289062 C 6430.964844 66.398438 6431.054688 66.488281 6431.164062 66.488281 Z M 6431.414062 66.488281 " />
<path fill-rule="nonzero" fill="#ffffff" fill-opacity="1" d="M 6430.765625 50.617188 C 6430.875 50.617188 6430.964844 50.527344 6430.964844 50.417969 L 6430.964844 24.347656 C 6430.964844 24.238281 6430.875 24.148438 6430.765625 24.148438 L 6430.515625 24.148438 C 6430.40625 24.148438 6430.316406 24.238281 6430.316406 24.347656 L 6430.316406 50.417969 C 6430.316406 50.527344 6430.40625 50.617188 6430.515625 50.617188 Z M 6430.765625 50.617188 " />
<g fill="#ffffff" fill-opacity="1">
<use xlink:href="#glyph-0-3" x="6417.246094" y="51.542969" />
</g>
<g fill="#ffffff" fill-opacity="1">
<use xlink:href="#glyph-0-3" x="6417.246094" y="51.542969" />
</g>
<g fill="#ffffff" fill-opacity="1">
<use xlink:href="#glyph-0-0" x="6438.1875" y="41.578125" />
</g>
<path fill-rule="nonzero" fill="#ffffff" fill-opacity="1" d="M 6444.488281 40.652344 C 6444.597656 40.652344 6444.6875 40.5625 6444.6875 40.453125 L 6444.6875 24.34375 C 6444.6875 24.234375 6444.597656 24.144531 6444.488281 24.144531 L 6444.238281 24.144531 C 6444.128906 24.144531 6444.039062 24.234375 6444.039062 24.34375 L 6444.039062 40.453125 C 6444.039062 40.5625 6444.128906 40.652344 6444.238281 40.652344 Z M 6444.488281 40.652344 " />
<g fill="#ffffff" fill-opacity="1">
<use xlink:href="#glyph-0-0" x="6450.664062" y="39.089844" />
</g>
<path fill-rule="nonzero" fill="#ffffff" fill-opacity="1" d="M 6456.960938 38.164062 C 6457.070312 38.164062 6457.160156 38.074219 6457.160156 37.964844 L 6457.160156 24.347656 C 6457.160156 24.238281 6457.070312 24.148438 6456.960938 24.148438 L 6456.710938 24.148438 C 6456.601562 24.148438 6456.511719 24.238281 6456.511719 24.347656 L 6456.511719 37.964844 C 6456.511719 38.074219 6456.601562 38.164062 6456.710938 38.164062 Z M 6456.960938 38.164062 " />
<g fill="#ffffff" fill-opacity="1">
<use xlink:href="#glyph-0-0" x="6463.136719" y="36.597656" />
</g>
<path fill-rule="nonzero" fill="#ffffff" fill-opacity="1" d="M 6469.433594 35.671875 C 6469.542969 35.671875 6469.632812 35.582031 6469.632812 35.472656 L 6469.632812 24.34375 C 6469.632812 24.234375 6469.542969 24.144531 6469.433594 24.144531 L 6469.183594 24.144531 C 6469.074219 24.144531 6468.984375 24.234375 6468.984375 24.34375 L 6468.984375 35.472656 C 6468.984375 35.582031 6469.074219 35.671875 6469.183594 35.671875 Z M 6469.433594 35.671875 " />
<g fill="#ffffff" fill-opacity="1">
<use xlink:href="#glyph-0-0" x="6475.613281" y="39.089844" />
</g>
<path fill-rule="nonzero" fill="#ffffff" fill-opacity="1" d="M 6481.910156 38.164062 C 6482.019531 38.164062 6482.109375 38.074219 6482.109375 37.964844 L 6482.109375 24.347656 C 6482.109375 24.238281 6482.019531 24.148438 6481.910156 24.148438 L 6481.660156 24.148438 C 6481.550781 24.148438 6481.460938 24.238281 6481.460938 24.347656 L 6481.460938 37.964844 C 6481.460938 38.074219 6481.550781 38.164062 6481.660156 38.164062 Z M 6481.910156 38.164062 " />
<g fill="#ffffff" fill-opacity="1">
<use xlink:href="#glyph-0-0" x="6488.085938" y="41.578125" />
</g>
<path fill-rule="nonzero" fill="#ffffff" fill-opacity="1" d="M 6494.382812 40.652344 C 6494.492188 40.652344 6494.582031 40.5625 6494.582031 40.453125 L 6494.582031 24.34375 C 6494.582031 24.234375 6494.492188 24.144531 6494.382812 24.144531 L 6494.132812 24.144531 C 6494.023438 24.144531 6493.933594 24.234375 6493.933594 24.34375 L 6493.933594 40.453125 C 6493.933594 40.5625 6494.023438 40.652344 6494.132812 40.652344 Z M 6494.382812 40.652344 " />
<g fill="#ffffff" fill-opacity="1">
<use xlink:href="#glyph-0-0" x="6502.78125" y="46.5625" />
</g>
<g fill="#ffffff" fill-opacity="1">
<use xlink:href="#glyph-0-0" x="6502.78125" y="46.5625" />
</g>
<path fill-rule="nonzero" fill="#ffffff" fill-opacity="1" d="M 6503.230469 63.167969 C 6503.339844 63.167969 6503.429688 63.078125 6503.429688 62.96875 L 6503.429688 47.691406 C 6503.429688 47.582031 6503.339844 47.492188 6503.230469 47.492188 L 6502.980469 47.492188 C 6502.871094 47.492188 6502.78125 47.582031 6502.78125 47.691406 L 6502.78125 62.96875 C 6502.78125 63.078125 6502.871094 63.167969 6502.980469 63.167969 Z M 6503.230469 63.167969 " />
<path fill-rule="nonzero" fill="#ffffff" fill-opacity="1" d="M 6509.078125 45.636719 C 6509.1875 45.636719 6509.277344 45.546875 6509.277344 45.4375 L 6509.277344 24.347656 C 6509.277344 24.238281 6509.1875 24.148438 6509.078125 24.148438 L 6508.828125 24.148438 C 6508.71875 24.148438 6508.628906 24.238281 6508.628906 24.347656 L 6508.628906 45.4375 C 6508.628906 45.546875 6508.71875 45.636719 6508.828125 45.636719 Z M 6509.078125 45.636719 " />
<g fill="#ffffff" fill-opacity="1">
<use xlink:href="#glyph-0-2" x="6497.570312" y="46.5625" />
</g>
<g fill="#ffffff" fill-opacity="1">
<use xlink:href="#glyph-0-2" x="6497.570312" y="46.5625" />
</g>
<g fill="#ffffff" fill-opacity="1">
<use xlink:href="#glyph-0-0" x="6516.5" y="41.578125" />
</g>
<path fill-rule="nonzero" fill="#ffffff" fill-opacity="1" d="M 6522.800781 40.652344 C 6522.910156 40.652344 6523 40.5625 6523 40.453125 L 6523 24.34375 C 6523 24.234375 6522.910156 24.144531 6522.800781 24.144531 L 6522.550781 24.144531 C 6522.441406 24.144531 6522.351562 24.234375 6522.351562 24.34375 L 6522.351562 40.453125 C 6522.351562 40.5625 6522.441406 40.652344 6522.550781 40.652344 Z M 6522.800781 40.652344 " />
<g fill="#ffffff" fill-opacity="1">
<use xlink:href="#glyph-0-0" x="6530.222656" y="36.597656" />
</g>
<path fill-rule="nonzero" fill="#ffffff" fill-opacity="1" d="M 6536.519531 35.671875 C 6536.628906 35.671875 6536.71875 35.582031 6536.71875 35.472656 L 6536.71875 24.34375 C 6536.71875 24.234375 6536.628906 24.144531 6536.519531 24.144531 L 6536.269531 24.144531 C 6536.160156 24.144531 6536.070312 24.234375 6536.070312 24.34375 L 6536.070312 35.472656 C 6536.070312 35.582031 6536.160156 35.671875 6536.269531 35.671875 Z M 6536.519531 35.671875 " />
<g fill="#ffffff" fill-opacity="1">
<use xlink:href="#glyph-0-0" x="6541.449219" y="49.050781" />
</g>
<g fill="#ffffff" fill-opacity="1">
<use xlink:href="#glyph-0-0" x="6541.449219" y="49.050781" />
</g>
<path fill-rule="nonzero" fill="#ffffff" fill-opacity="1" d="M 6541.898438 64.828125 C 6542.007812 64.828125 6542.097656 64.738281 6542.097656 64.628906 L 6542.097656 50.179688 C 6542.097656 50.070312 6542.007812 49.980469 6541.898438 49.980469 L 6541.648438 49.980469 C 6541.539062 49.980469 6541.449219 50.070312 6541.449219 50.179688 L 6541.449219 64.628906 C 6541.449219 64.738281 6541.539062 64.828125 6541.648438 64.828125 Z M 6541.898438 64.828125 " />
<path fill-rule="nonzero" fill="#ffffff" fill-opacity="1" d="M 6547.746094 48.125 C 6547.855469 48.125 6547.945312 48.035156 6547.945312 47.925781 L 6547.945312 24.34375 C 6547.945312 24.234375 6547.855469 24.144531 6547.746094 24.144531 L 6547.496094 24.144531 C 6547.386719 24.144531 6547.296875 24.234375 6547.296875 24.34375 L 6547.296875 47.925781 C 6547.296875 48.035156 6547.386719 48.125 6547.496094 48.125 Z M 6547.746094 48.125 " />
<g fill="#ffffff" fill-opacity="1">
<use xlink:href="#glyph-0-0" x="6555.167969" y="41.578125" />
</g>
<path fill-rule="nonzero" fill="#ffffff" fill-opacity="1" d="M 6561.46875 40.652344 C 6561.578125 40.652344 6561.667969 40.5625 6561.667969 40.453125 L 6561.667969 24.34375 C 6561.667969 24.234375 6561.578125 24.144531 6561.46875 24.144531 L 6561.21875 24.144531 C 6561.109375 24.144531 6561.019531 24.234375 6561.019531 24.34375 L 6561.019531 40.453125 C 6561.019531 40.5625 6561.109375 40.652344 6561.21875 40.652344 Z M 6561.46875 40.652344 " />
<g fill="#ffffff" fill-opacity="1">
<use xlink:href="#glyph-0-0" x="6568.890625" y="36.597656" />
</g>
<path fill-rule="nonzero" fill="#ffffff" fill-opacity="1" d="M 6575.1875 35.671875 C 6575.296875 35.671875 6575.386719 35.582031 6575.386719 35.472656 L 6575.386719 24.34375 C 6575.386719 24.234375 6575.296875 24.144531 6575.1875 24.144531 L 6574.9375 24.144531 C 6574.828125 24.144531 6574.738281 24.234375 6574.738281 24.34375 L 6574.738281 35.472656 C 6574.738281 35.582031 6574.828125 35.671875 6574.9375 35.671875 Z M 6575.1875 35.671875 " />
<g fill="#ffffff" fill-opacity="1">
<use xlink:href="#glyph-0-1" x="6599.019531" y="51.542969" />
</g>
<g fill="#ffffff" fill-opacity="1">
<use xlink:href="#glyph-0-0" x="6592.519531" y="51.542969" />
</g>
<g fill="#ffffff" fill-opacity="1">
<use xlink:href="#glyph-0-1" x="6592.519531" y="127.707031" />
</g>
<g fill="#ffffff" fill-opacity="1">
<use xlink:href="#glyph-0-1" x="6592.519531" y="145.140625" />
</g>
<path fill-rule="nonzero" fill="#ffffff" fill-opacity="1" d="M 6599.464844 66.488281 C 6599.574219 66.488281 6599.664062 66.398438 6599.664062 66.289062 L 6599.664062 53.035156 C 6599.664062 52.921875 6599.574219 52.835938 6599.464844 52.835938 L 6599.214844 52.835938 C 6599.105469 52.835938 6599.015625 52.921875 6599.015625 53.035156 L 6599.015625 66.289062 C 6599.015625 66.398438 6599.105469 66.488281 6599.214844 66.488281 Z M 6599.464844 66.488281 " />
<path fill-rule="nonzero" fill="#ffffff" fill-opacity="1" d="M 6598.820312 50.617188 C 6598.929688 50.617188 6599.019531 50.527344 6599.019531 50.417969 L 6599.019531 24.347656 C 6599.019531 24.238281 6598.929688 24.148438 6598.820312 24.148438 L 6598.570312 24.148438 C 6598.460938 24.148438 6598.371094 24.238281 6598.371094 24.347656 L 6598.371094 50.417969 C 6598.371094 50.527344 6598.460938 50.617188 6598.570312 50.617188 Z M 6598.820312 50.617188 " />
<g fill="#ffffff" fill-opacity="1">
<use xlink:href="#glyph-0-3" x="6585.296875" y="51.542969" />
</g>
<g fill="#ffffff" fill-opacity="1">
<use xlink:href="#glyph-0-3" x="6585.296875" y="51.542969" />
</g>
<path fill-rule="nonzero" fill="#ffffff" fill-opacity="1" d="M 6599.183594 143.851562 C 6599.292969 143.851562 6599.382812 143.761719 6599.382812 143.652344 L 6599.382812 110.472656 C 6599.382812 110.363281 6599.292969 110.273438 6599.183594 110.273438 L 6598.933594 110.273438 C 6598.824219 110.273438 6598.734375 110.363281 6598.734375 110.472656 L 6598.734375 143.652344 C 6598.734375 143.761719 6598.824219 143.851562 6598.933594 143.851562 Z M 6599.183594 143.851562 " />
<g fill="#ffffff" fill-opacity="1">
<use xlink:href="#glyph-0-0" x="6606.242188" y="41.578125" />
</g>
<path fill-rule="nonzero" fill="#ffffff" fill-opacity="1" d="M 6612.539062 40.652344 C 6612.648438 40.652344 6612.738281 40.5625 6612.738281 40.453125 L 6612.738281 24.34375 C 6612.738281 24.234375 6612.648438 24.144531 6612.539062 24.144531 L 6612.289062 24.144531 C 6612.179688 24.144531 6612.089844 24.234375 6612.089844 24.34375 L 6612.089844 40.453125 C 6612.089844 40.5625 6612.179688 40.652344 6612.289062 40.652344 Z M 6612.539062 40.652344 " />
<g fill="#ffffff" fill-opacity="1">
<use xlink:href="#glyph-0-0" x="6618.714844" y="39.089844" />
</g>
<path fill-rule="nonzero" fill="#ffffff" fill-opacity="1" d="M 6625.011719 38.164062 C 6625.121094 38.164062 6625.210938 38.074219 6625.210938 37.964844 L 6625.210938 24.347656 C 6625.210938 24.238281 6625.121094 24.148438 6625.011719 24.148438 L 6624.761719 24.148438 C 6624.652344 24.148438 6624.5625 24.238281 6624.5625 24.347656 L 6624.5625 37.964844 C 6624.5625 38.074219 6624.652344 38.164062 6624.761719 38.164062 Z M 6625.011719 38.164062 " />
<g fill="#ffffff" fill-opacity="1">
<use xlink:href="#glyph-0-0" x="6631.1875" y="36.597656" />
</g>
<path fill-rule="nonzero" fill="#ffffff" fill-opacity="1" d="M 6637.488281 35.671875 C 6637.597656 35.671875 6637.6875 35.582031 6637.6875 35.472656 L 6637.6875 24.34375 C 6637.6875 24.234375 6637.597656 24.144531 6637.488281 24.144531 L 6637.238281 24.144531 C 6637.128906 24.144531 6637.039062 24.234375 6637.039062 24.34375 L 6637.039062 35.472656 C 6637.039062 35.582031 6637.128906 35.671875 6637.238281 35.671875 Z M 6637.488281 35.671875 " />
<g fill="#ffffff" fill-opacity="1">
<use xlink:href="#glyph-0-0" x="6643.664062" y="39.089844" />
</g>
<path fill-rule="nonzero" fill="#ffffff" fill-opacity="1" d="M 6649.960938 38.164062 C 6650.070312 38.164062 6650.160156 38.074219 6650.160156 37.964844 L 6650.160156 24.347656 C 6650.160156 24.238281 6650.070312 24.148438 6649.960938 24.148438 L 6649.710938 24.148438 C 6649.601562 24.148438 6649.511719 24.238281 6649.511719 24.347656 L 6649.511719 37.964844 C 6649.511719 38.074219 6649.601562 38.164062 6649.710938 38.164062 Z M 6649.960938 38.164062 " />
<g fill="#ffffff" fill-opacity="1">
<use xlink:href="#glyph-0-0" x="6656.136719" y="41.578125" />
</g>
<g fill="#ffffff" fill-opacity="1">
<use xlink:href="#glyph-0-0" x="6668.613281" y="49.050781" />
</g>
<g fill="#ffffff" fill-opacity="1">
<use xlink:href="#glyph-0-1" x="6668.613281" y="125.214844" />
</g>
<g fill="#ffffff" fill-opacity="1">
<use xlink:href="#glyph-0-1" x="6668.613281" y="142.652344" />
</g>
</svg>